<svg width="26" height="26" viewBox="0 0 26 26" fill="none" xmlns="http://www.w3.org/2000/svg">
<circle cx="12.5999" cy="12.6" r="12.6" fill="#2B3049"/>
<path fill-rule="evenodd" clip-rule="evenodd" d="M13 6C9.675 6 7 8.74156 7 12.1493C7 14.8652 8.725 17.1712 11.1 17.9911C11.4 18.0424 11.5 17.863 11.5 17.6836C11.5 17.5299 11.5 17.1456 11.5 16.6331C9.825 17.0175 9.475 15.8132 9.475 15.8132C9.2 15.0958 8.8 14.9165 8.8 14.9165C8.25 14.5321 8.85 14.5321 8.85 14.5321C9.45 14.5834 9.775 15.1727 9.775 15.1727C10.3 16.1207 11.175 15.8389 11.525 15.6851C11.575 15.2752 11.725 15.019 11.9 14.8652C10.575 14.7115 9.175 14.1734 9.175 11.8162C9.175 11.15 9.4 10.5863 9.8 10.1764C9.75 10.0227 9.525 9.40773 9.85 8.53658C9.85 8.53658 10.35 8.38285 11.5 9.17713C11.975 9.04902 12.5 8.97216 13 8.97216C13.5 8.97216 14.025 9.04902 14.5 9.17713C15.65 8.38285 16.15 8.53658 16.15 8.53658C16.475 9.38211 16.275 9.99704 16.2 10.1764C16.575 10.612 16.825 11.15 16.825 11.8162C16.825 14.1734 15.425 14.6859 14.075 14.8396C14.3 15.019 14.475 15.4033 14.475 15.967C14.475 16.7869 14.475 17.4531 14.475 17.658C14.475 17.8118 14.575 18.0167 14.9 17.9655C17.275 17.1712 19 14.8652 19 12.1493C19 8.74156 16.325 6 13 6Z" fill="#E9F2FC"/>
</svg>
