<svg width="26" height="26" viewBox="0 0 26 26" fill="none" xmlns="http://www.w3.org/2000/svg">
<circle cx="12.5999" cy="13.1999" r="12.6" fill="#2B3049"/>
<path d="M12.6006 8.20258C14.2285 8.20258 14.4212 8.20868 15.0643 8.238C15.4509 8.24274 15.8339 8.31373 16.1966 8.44791C16.4595 8.54933 16.6984 8.70469 16.8977 8.904C17.097 9.10331 17.2524 9.34215 17.3538 9.60513C17.488 9.96778 17.559 10.3507 17.5637 10.7374C17.5927 11.3805 17.5991 11.5732 17.5991 13.2011C17.5991 14.8289 17.593 15.0217 17.5637 15.6647C17.559 16.0514 17.488 16.4344 17.3538 16.797C17.2524 17.06 17.097 17.2988 16.8977 17.4981C16.6984 17.6974 16.4595 17.8528 16.1966 17.9542C15.8339 18.0884 15.4509 18.1594 15.0643 18.1641C14.4215 18.1932 14.2287 18.1996 12.6006 18.1996C10.9725 18.1996 10.7797 18.1935 10.1369 18.1641C9.7503 18.1594 9.36733 18.0884 9.00468 17.9542C8.7417 17.8528 8.50286 17.6974 8.30355 17.4981C8.10425 17.2988 7.94888 17.06 7.84746 16.797C7.71328 16.4344 7.64229 16.0514 7.63755 15.6647C7.60852 15.0217 7.60214 14.8289 7.60214 13.2011C7.60214 11.5732 7.60823 11.3805 7.63755 10.7374C7.64229 10.3507 7.71328 9.96778 7.84746 9.60513C7.94888 9.34215 8.10425 9.10331 8.30355 8.904C8.50286 8.70469 8.7417 8.54933 9.00468 8.44791C9.36733 8.31373 9.7503 8.24274 10.1369 8.238C10.78 8.20897 10.9728 8.20258 12.6006 8.20258ZM12.6006 7.104C10.9458 7.104 10.7373 7.11097 10.087 7.14058C9.58099 7.15065 9.08034 7.24646 8.60636 7.42394C8.19976 7.57713 7.83149 7.8172 7.52723 8.12739C7.21676 8.43176 6.97649 8.80024 6.8232 9.2071C6.64572 9.68108 6.54991 10.1817 6.53985 10.6877C6.51081 11.3375 6.50385 11.5459 6.50385 13.2008C6.50385 14.8556 6.51081 15.0641 6.54043 15.7144C6.55049 16.2204 6.6463 16.7211 6.82378 17.195C6.9769 17.6018 7.21697 17.9703 7.52723 18.2747C7.83166 18.585 8.20014 18.8251 8.60694 18.9782C9.08092 19.1557 9.58157 19.2515 10.0876 19.2616C10.7379 19.2906 10.9455 19.2981 12.6012 19.2981C14.2569 19.2981 14.4645 19.2912 15.1148 19.2616C15.6208 19.2515 16.1215 19.1557 16.5955 18.9782C17.0003 18.8213 17.368 18.5815 17.6749 18.2744C17.9819 17.9673 18.2214 17.5994 18.378 17.1945C18.5555 16.7205 18.6513 16.2198 18.6614 15.7138C18.6904 15.0641 18.6974 14.8556 18.6974 13.2008C18.6974 11.5459 18.6904 11.3375 18.6608 10.6872C18.6507 10.1811 18.5549 9.6805 18.3775 9.20652C18.2243 8.79971 17.9843 8.43123 17.674 8.12681C17.3696 7.81655 17.0011 7.57648 16.5943 7.42336C16.1203 7.24588 15.6197 7.15007 15.1137 7.14C14.4639 7.11097 14.2555 7.104 12.6006 7.104Z" fill="#E9F2FC"/>
<path d="M12.6019 10.0713C11.9827 10.0713 11.3773 10.2549 10.8625 10.5989C10.3476 10.943 9.94633 11.4319 9.70936 12.004C9.4724 12.5761 9.41039 13.2056 9.5312 13.8129C9.652 14.4202 9.95019 14.9781 10.388 15.416C10.8259 15.8538 11.3838 16.152 11.9911 16.2728C12.5984 16.3936 13.2279 16.3316 13.8 16.0946C14.3721 15.8577 14.8611 15.4564 15.2051 14.9415C15.5491 14.4267 15.7327 13.8213 15.7327 13.2021C15.7327 12.3718 15.4029 11.5754 14.8157 10.9883C14.2286 10.4011 13.4322 10.0713 12.6019 10.0713ZM12.6019 15.2344C12.1999 15.2344 11.807 15.1152 11.4728 14.8919C11.1386 14.6686 10.8781 14.3512 10.7243 13.9798C10.5705 13.6085 10.5303 13.1999 10.6087 12.8057C10.6871 12.4114 10.8806 12.0493 11.1649 11.7651C11.4491 11.4809 11.8112 11.2873 12.2054 11.2089C12.5996 11.1305 13.0082 11.1707 13.3796 11.3246C13.7509 11.4784 14.0683 11.7389 14.2916 12.0731C14.5149 12.4073 14.6341 12.8002 14.6341 13.2021C14.6341 13.7411 14.42 14.258 14.0389 14.6392C13.6578 15.0203 13.1409 15.2344 12.6019 15.2344Z" fill="#E9F2FC"/>
<path d="M15.8558 10.6783C16.2598 10.6783 16.5874 10.3508 16.5874 9.9467C16.5874 9.54264 16.2598 9.21509 15.8558 9.21509C15.4517 9.21509 15.1241 9.54264 15.1241 9.9467C15.1241 10.3508 15.4517 10.6783 15.8558 10.6783Z" fill="#E9F2FC"/>
</svg>
