<svg width="26" height="26" viewBox="0 0 26 26" fill="none" xmlns="http://www.w3.org/2000/svg">
<circle cx="12.5999" cy="13.1999" r="12.6" fill="#2B3049"/>
<path d="M18.1864 10.4848C17.8092 10.6524 17.4112 10.7572 16.9921 10.82C17.4112 10.5686 17.7464 10.1705 17.893 9.68865C17.495 9.91911 17.055 10.0867 16.5731 10.1915C16.196 9.79341 15.6513 9.54199 15.0646 9.54199C13.9333 9.54199 13.0114 10.4638 13.0114 11.5952C13.0114 11.7628 13.0324 11.9095 13.0743 12.0561C11.3772 11.9723 9.84781 11.1552 8.82121 9.89816C8.6536 10.2124 8.54884 10.5476 8.54884 10.9248C8.54884 11.6371 8.90501 12.2656 9.47069 12.6428C9.13548 12.6218 8.82121 12.538 8.52789 12.3913V12.4123C8.52789 13.4179 9.24023 14.256 10.183 14.4446C10.0154 14.4865 9.82686 14.5074 9.6383 14.5074C9.5126 14.5074 9.36594 14.4865 9.24023 14.4655C9.5126 15.2826 10.2668 15.8902 11.1677 15.8902C10.4554 16.4349 9.57545 16.7701 8.6117 16.7701C8.44409 16.7701 8.27648 16.7701 8.12982 16.7492C9.05167 17.3358 10.1202 17.671 11.2934 17.671C15.0856 17.671 17.1598 14.5284 17.1598 11.8047C17.1598 11.7209 17.1598 11.6162 17.1598 11.5323C17.5578 11.26 17.914 10.9038 18.1864 10.4848Z" fill="#E9F2FC"/>
</svg>
