<svg width="347" height="194" viewBox="0 0 347 194" fill="none" xmlns="http://www.w3.org/2000/svg">
<path d="M40.6562 91.6338C40.6562 91.6338 43.7365 88.0325 40.846 85.7453C40.846 85.7453 38.7348 84.4643 37.0131 84.5685C37.0131 84.5685 39.4527 88.6673 38.6635 89.0752C37.8743 89.4828 36.2739 84.3113 36.2739 84.3113C36.2739 84.3113 31.4695 83.8443 29.9238 84.5891C29.9238 84.5891 34.0309 87.9572 33.1659 88.1578C32.3009 88.3584 27.8643 85.0524 27.8643 85.0524C27.8643 85.0524 23.3928 85.815 23.631 88.5486C23.8693 91.2821 25.4102 92.1262 26.0875 92.0537C26.7649 91.981 30.7262 90.4657 30.8126 91.0216C30.8991 91.5777 28.5144 93.3949 26.8444 93.4799C26.8444 93.4799 29.997 96.964 32.0924 95.9584C34.1877 94.9529 34.3665 93.3591 35.6727 92.7612C36.9789 92.1633 38.0938 92.1648 37.5546 92.7745C37.0153 93.3841 34.6515 93.9767 33.9046 95.3007C33.1575 96.6246 32.4876 97.5177 34.6553 97.1907C36.8232 96.8639 40.347 95.2744 40.5016 93.4543L40.6562 91.6338Z" fill="#B74846"/>
<path d="M25.828 88.6222C25.828 88.6222 37.9738 88.1531 40.6561 91.6338C40.6561 91.6338 41.2493 93.4139 43.0747 95.0352L43.3592 95.8121C43.3592 95.8121 41.2546 93.5884 40.5015 93.454C40.5015 93.454 41.679 89.1417 25.828 88.6222Z" fill="#B74846"/>
<path d="M43.0745 95.0353C43.0745 95.0353 45.6816 96.9671 45.8626 100.419L45.3894 100.462C45.3894 100.462 44.5568 96.8922 43.0519 95.4964C41.5471 94.1006 43.0745 95.0353 43.0745 95.0353Z" fill="#B74846"/>
<path d="M51.4263 87.1049C51.4263 87.1049 46.5261 84.3551 48.8129 80.6233C48.8129 80.6233 50.6422 78.3318 52.6023 77.7425C52.6023 77.7425 51.557 83.3077 52.6023 83.4386C53.6476 83.5696 53.3209 77.1534 53.3209 77.1534C53.3209 77.1534 58.4823 74.6655 60.508 74.8619C60.508 74.8619 57.3063 80.2959 58.3518 80.1649C59.3972 80.034 62.9907 74.5346 62.9907 74.5346C62.9907 74.5346 68.2828 73.5525 69.1321 76.695C69.9815 79.8378 68.6095 81.4091 67.8254 81.6053C67.0414 81.8019 62.0107 81.7363 62.1412 82.391C62.2717 83.0457 65.6694 84.0934 67.564 83.5042C67.564 83.5042 65.4732 88.6763 62.7293 88.4145C59.9853 88.1527 59.1358 86.4504 57.437 86.3194C55.7383 86.1884 54.4969 86.6468 55.3462 87.1051C56.1955 87.5634 59.0706 87.2553 60.4425 88.4242C61.8145 89.5931 62.9253 90.3132 60.3773 90.837C57.8289 91.3607 53.2556 91.0333 52.3409 89.0692C51.4261 87.1051 51.4263 87.1049 51.4263 87.1049Z" fill="#D0665F"/>
<path d="M66.7149 77.6771C66.7149 77.6771 52.9943 82.1291 51.4263 87.1049C51.4263 87.1049 51.4916 89.331 50.1196 91.8842V92.8663C50.1196 92.8663 51.557 89.5274 52.3411 89.0691C52.3411 89.0691 49.2703 84.7481 66.7149 77.6771Z" fill="#B74846"/>
<path d="M50.1196 91.8844C50.1196 91.8844 48.0037 95.1042 49.2099 99.0235L49.7543 98.877C49.7543 98.877 49.226 94.5601 50.3329 92.3888C51.44 90.2177 50.1196 91.8844 50.1196 91.8844Z" fill="#B74846"/>
<path d="M43.6306 83.3126C43.6306 83.3126 50.0899 79.688 47.0754 74.7688C47.0754 74.7688 44.6638 71.7482 42.0803 70.9715C42.0803 70.9715 43.4583 78.3072 42.0803 78.48C40.7021 78.6526 41.1329 70.195 41.1329 70.195C41.1329 70.195 34.3292 66.9152 31.6591 67.1741C31.6591 67.1741 35.8792 74.3373 34.5013 74.1647C33.1233 73.992 28.3864 66.7426 28.3864 66.7426C28.3864 66.7426 21.4103 65.4482 20.2908 69.5907C19.1711 73.7332 20.9797 75.8045 22.0131 76.0634C23.0466 76.3224 29.6784 76.236 29.5061 77.099C29.3338 77.9621 24.8553 79.3429 22.3577 78.5662C22.3577 78.5662 25.1136 85.384 28.731 85.0389C32.3483 84.6938 33.4678 82.4498 35.7072 82.2772C37.9463 82.1048 39.5828 82.7087 38.4631 83.3128C37.3435 83.9171 33.554 83.5108 31.7453 85.0517C29.9367 86.5925 28.4727 87.5419 31.8315 88.2322C35.1903 88.9225 41.2191 88.4911 42.4248 85.902L43.6306 83.3126Z" fill="#D0665F"/>
<path d="M23.4773 70.8849C23.4773 70.8849 41.5634 76.7535 43.6305 83.3124C43.6305 83.3124 43.5443 86.2467 45.3529 89.6125V90.9071C45.3529 90.9071 43.4581 86.5055 42.4246 85.9016C42.4248 85.9018 46.4725 80.2058 23.4773 70.8849Z" fill="#B74846"/>
<path d="M45.353 89.6127C45.353 89.6127 48.1423 93.857 46.5522 99.0235L45.8344 98.8304C45.8344 98.8304 46.5308 93.14 45.0717 90.2778C43.6126 87.4159 45.353 89.6127 45.353 89.6127Z" fill="#B74846"/>
<path d="M43.8482 110.227C36.8602 110.227 31.1954 104.551 31.1954 97.5484H56.5011C56.5011 104.55 50.8362 110.227 43.8482 110.227Z" fill="#CCCCCC"/>
<path d="M47.5849 110.13C47.0634 110.195 46.5384 110.227 46.0129 110.227C39.0251 110.227 33.3607 104.55 33.3607 97.548H36.5039C36.5039 104.017 41.3386 109.354 47.5849 110.13Z" fill="#E8E8E8"/>
<path d="M31.0204 110.872H56.6755C56.6755 110.458 56.5111 110.06 56.2183 109.766C55.9256 109.473 55.5285 109.308 55.1145 109.308H32.5816C32.3766 109.308 32.1735 109.349 31.9841 109.427C31.7947 109.506 31.6226 109.621 31.4776 109.766C31.3326 109.912 31.2176 110.084 31.1392 110.274C31.0607 110.464 31.0204 110.667 31.0204 110.872Z" fill="#CCCCCC"/>
<path d="M56.9171 97.548V97.937H30.9073V97.548H56.9171Z" fill="#E8E8E8"/>
<path d="M100.635 106.242L102.52 115.894L98.4556 116.236L93.8698 106.841L100.635 106.242Z" fill="#263E5E"/>
<path d="M253.742 89.7316L255.626 99.3839L251.562 99.726L246.976 90.3306L253.742 89.7316Z" fill="#263E5E"/>
<path d="M226.394 159V182.706H197.703V159H226.394Z" fill="#CCCCCC"/>
<path d="M240.739 159V182.706H212.048V159H240.739Z" fill="#E8E8E8"/>
<path d="M272.504 159V182.706H243.813V159H272.504Z" fill="#CCCCCC"/>
<path d="M286.85 159V182.706H258.159V159H286.85Z" fill="#E8E8E8"/>
<path d="M251.003 135.569V159.275H222.312V135.569H251.003Z" fill="#CCCCCC"/>
<path d="M265.348 135.569V159.275H236.657V135.569H265.348Z" fill="#E8E8E8"/>
<path d="M242.82 52.0377C242.434 53.2243 237.669 54.805 230.529 56.521C229.203 56.839 227.875 57.1456 226.544 57.4406C202.196 62.8447 134.864 71.7055 130.617 71.3545C124.748 70.8697 107.431 17.8506 107.431 17.8506C107.431 17.8506 141.055 13.6396 167.776 10.4636C176.917 9.37832 208.724 5.68958 214.626 5.04748C223.769 4.05336 243.442 50.1156 242.82 52.0377Z" fill="#D0665F"/>
<path d="M232.742 46.0865C232.742 46.0865 218.375 10.0301 217.29 6.98659C216.807 5.63005 215.727 5.23822 214.681 5.22086C216.48 4.85917 217.801 4.70298 217.801 4.70298C221.379 4.31389 224.804 6.22813 226.316 9.46237C229.614 16.5165 236.114 30.0508 242.276 43.3039C242.039 43.3241 232.742 46.0865 232.742 46.0865Z" fill="#DB7C79"/>
<path d="M298.986 72.1905C298.347 81.6965 288.206 88.8089 277.145 90.0118L255.236 92.3943L251.099 38.3253C251.099 38.3253 271.325 29.6517 277.185 34.7136C282.319 39.148 296.908 57.3254 298.816 68.8158C299.008 69.969 299.061 71.0961 298.986 72.1905Z" fill="#DB7C79"/>
<path d="M298.986 72.1905C298.347 81.6965 288.206 88.8089 277.145 90.0118L266.398 91.1804C273.1 86.1143 278.149 72.1982 298.986 72.1905Z" fill="#D0665F"/>
<path d="M237.217 45.1761C237.217 45.1761 265.33 28.6487 271.87 36.7366C275.343 41.031 285.517 58.5637 287.374 70.0596C289.177 81.2294 278.949 89.8151 267.605 91.0487L247.457 93.2397L237.217 45.1761Z" fill="#D0665F"/>
<path d="M280.439 80.4689C280.135 80.7531 279.826 81.0313 279.511 81.3034C275.562 84.721 270.249 87.6758 264.038 89.8253C259.344 91.4491 254.138 92.6125 248.622 93.1671L239.042 94.2117L238.912 94.2259L193.565 99.1687L167.572 102.003L167.187 102.044L167.184 102.034L165.803 97.704L152.736 53.9404C152.736 53.9404 266.382 39.146 276.181 43.1014C280.732 44.9375 284.206 54.2164 286.698 64.5865C288.024 70.1082 285.542 75.6965 280.439 80.4689Z" fill="#B74846"/>
<path d="M280.439 80.4689C280.135 80.7531 279.826 81.0313 279.511 81.3034C275.562 84.721 270.249 87.6758 264.038 89.8253C259.344 91.4491 254.138 92.6126 248.622 93.1672L239.042 94.2117L238.912 94.2259L193.565 99.1687L167.572 102.003L167.184 102.034L165.802 97.7041C181.422 93.0817 203.151 87.749 226.173 85.4757C248.161 83.3048 266.548 81.2769 280.439 80.4689Z" fill="#A33333"/>
<path d="M188.063 84.7468C187.265 93.9855 178.137 100.778 168.144 101.865L147.996 104.056L143.685 49.5228C143.685 49.5228 162.267 41.5111 167.705 46.6189C172.47 51.0935 186.057 69.3799 187.913 80.8759C188.127 82.206 188.172 83.4988 188.063 84.7468Z" fill="#DB7C79"/>
<path d="M188.063 84.7468C187.265 93.9855 178.137 100.778 168.144 101.865L152.021 103.618C159.079 98.2835 167.89 84.7051 188.063 84.7468Z" fill="#D0665F"/>
<path d="M176.574 86.3788C176.16 90.0374 174.441 93.2985 171.894 95.9573L171.893 95.9586C170.372 97.5448 168.556 98.9157 166.543 100.028C164.071 101.396 161.303 102.375 158.425 102.882C158.275 102.908 158.126 102.933 157.977 102.957C157.858 102.975 157.737 102.993 157.618 103.009C157.419 103.039 157.22 103.066 157.02 103.09C156.915 103.103 156.808 103.115 156.7 103.127L136.553 105.318L136.55 105.309L135.389 105.449C133.308 105.698 131.226 105.945 129.145 106.188C128.808 106.228 128.477 106.266 128.15 106.304C128.028 106.318 127.906 106.331 127.788 106.344C125.803 106.573 124.048 106.769 122.794 106.897C121.032 107.079 119.36 107.15 117.775 107.1C115.73 107.038 113.833 106.778 112.07 106.302C111.758 106.218 111.447 106.127 111.14 106.027C110.83 105.927 110.523 105.819 110.218 105.703C109.418 105.4 108.64 105.04 107.891 104.626C105.968 103.56 104.249 102.134 102.722 100.314C101.659 99.0482 100.687 97.5917 99.8033 95.9321C98.72 93.9031 97.7705 91.5695 96.9414 88.9127C96.9197 88.8453 96.898 88.7781 96.8774 88.7094C96.5009 87.488 96.1493 86.1991 95.8226 84.8407C95.6711 84.2092 95.5275 83.5759 95.3916 82.9409C94.9007 80.6531 94.4727 78.1829 94.1021 75.5223C94.0698 75.2891 94.0381 75.0557 94.0071 74.8223L93.9865 74.6661C93.7072 72.5507 93.4631 70.3192 93.2524 67.9638C93.1598 66.932 93.0743 65.878 92.9946 64.7986C92.9582 64.3079 92.9237 63.8127 92.89 63.3127C92.7223 60.8021 92.5879 58.1684 92.4829 55.407C92.4361 54.1668 92.3947 52.901 92.3602 51.6088C92.2171 46.2844 92.179 40.5155 92.2317 34.2785C92.29 27.1988 92.7018 22.2096 93.9493 20.9477C95.7894 19.0864 99.9278 17.9675 102.828 17.3846L102.831 17.3844C104.63 17.0224 105.951 16.8665 105.951 16.8665C106.016 16.8594 106.081 16.8534 106.146 16.8476C106.304 16.8341 106.461 16.8251 106.62 16.8207C106.682 16.8185 106.745 16.8172 106.807 16.817C106.849 16.8159 106.89 16.8159 106.931 16.817C106.993 16.817 107.055 16.8181 107.117 16.8205C107.302 16.8257 107.488 16.8374 107.672 16.8556C107.678 16.855 107.686 16.8563 107.692 16.8569C107.746 16.8622 107.801 16.8675 107.855 16.8751C107.959 16.8863 108.063 16.9009 108.165 16.9168C108.236 16.9283 108.305 16.9398 108.375 16.9524L108.521 16.9804C109.097 17.0966 109.659 17.2724 110.199 17.5048C112.041 18.2991 113.581 19.7435 114.467 21.6422C119.249 31.8948 124.022 42.1519 128.785 52.4135C128.813 52.4756 128.843 52.5375 128.871 52.5996C129.201 53.3091 129.531 54.0217 129.862 54.7343C129.894 54.8061 129.928 54.879 129.962 54.9506L130.013 55.0597C130.248 54.9364 130.49 54.8078 130.742 54.6781C130.75 54.6726 130.759 54.6679 130.768 54.664C131.876 54.0845 132.993 53.5216 134.118 52.9756L134.12 52.9754C134.774 52.6574 135.43 52.3455 136.09 52.0395C138.006 51.1512 140.079 50.2524 142.193 49.4437C143.127 49.083 144.07 48.7433 145.02 48.4248C146.231 48.0189 147.437 47.655 148.619 47.3547C148.659 47.3435 148.692 47.3355 148.721 47.3278C148.861 47.2924 149 47.2593 149.139 47.2252C149.973 47.0242 150.792 46.8543 151.588 46.7237H151.59C155.663 46.0571 159.134 46.4101 160.949 48.6597C161.627 49.5009 162.561 50.8481 163.639 52.5574C165.868 56.0918 168.711 61.1765 171.18 66.5369C173.634 71.8621 175.718 77.4597 176.464 82.0838C176.703 83.5649 176.731 84.9994 176.574 86.3788Z" fill="#B74846"/>
<path d="M120.892 58.2497C120.892 58.2497 106.524 22.1933 105.439 19.1498C104.956 17.7931 103.876 17.4012 102.83 17.3841C104.63 17.0224 105.951 16.8662 105.951 16.8662C109.529 16.4771 112.953 18.3913 114.465 21.6256C119.654 32.7258 124.833 43.8313 130 54.9419C129.763 54.9623 120.892 58.2497 120.892 58.2497Z" fill="#DB7C79"/>
<path d="M270.125 92.3942C270.014 92.3292 266.551 93.2177 265.583 93.2398C264.736 93.259 261.551 92.5389 261.192 91.7465C261.141 91.6332 264.876 91.4058 265.465 91.0351C265.759 90.8506 266.998 90.0533 268.04 90.1278C269.083 90.2025 269.641 90.1229 269.641 90.1229L270.125 92.3942Z" fill="#FFB27D"/>
<path d="M308.732 53.4472C308.732 53.4472 303.773 57.5079 298.984 54.5197C298.984 54.5197 298.376 51.6174 298.732 49.629C298.776 49.3842 298.817 49.1469 298.856 48.9209C299.247 46.6799 299.406 45.4112 299.406 45.4112H299.412C299.665 45.3571 307.917 43.6444 307.862 43.9049C306.599 49.9275 308.732 53.4472 308.732 53.4472Z" fill="#FFB27D"/>
<path d="M306.823 45.2024C305.827 46.436 302.789 48.6447 298.856 48.9209C299.247 46.6799 299.406 45.4112 299.406 45.4112H299.412C299.634 45.394 307.118 44.8391 306.823 45.2024Z" fill="#ED975D"/>
<path d="M297.845 44.8774C297.845 44.8774 306.082 48.5265 308.271 43.3512C310.46 38.1757 312.997 35.1613 307.83 32.6125C302.663 30.0638 300.8 31.6019 299.65 33.1512C298.5 34.7006 295.758 43.7949 297.845 44.8774Z" fill="#FFB27D"/>
<path d="M307.701 44.7661C307.804 44.8637 309.552 45.7829 314.375 39.433C315.132 38.4361 315.953 36.1262 315.062 33.7816C314.17 31.437 309.923 28.927 306.273 27.4963C302.622 26.0654 301.314 28.0292 300.021 30.0066C298.664 32.0825 295.615 33.4287 295.615 33.4287C298.537 35.8692 302.958 33.9944 304.239 34.6802C305.521 35.3659 305.6 37.6071 305.573 38.3159C305.546 39.0245 305.596 39.627 307.424 39.333C309.251 39.0391 307.743 41.9106 307.36 42.4422C307.36 42.442 306.837 43.9509 307.701 44.7661Z" fill="#A9453D"/>
<path d="M320.307 182.618H325.616C326.729 182.618 327.965 181.501 328.275 179.457C328.585 177.411 330.872 176.296 331.367 174.622C331.863 172.949 329.326 170.593 329.326 170.593L328.902 170.047L328.461 169.478L324.256 170.469C324.256 170.469 324.152 171.472 324.087 172.75C324.042 173.673 324.017 174.74 324.07 175.675C324.194 177.907 323.446 180.31 321.468 180.744C319.488 181.178 320.307 182.618 320.307 182.618Z" fill="#263E5E"/>
<path d="M283.35 182.618H297.422C297.556 182.591 297.659 182.562 297.721 182.531C298.66 182.059 298.366 178.455 298.253 177.341C298.231 177.135 298.216 177.014 298.216 177.014C298.216 177.014 293.268 173.048 292.587 176.085C292.565 176.178 292.541 176.272 292.514 176.364V176.366C291.655 179.207 287.815 180.497 285.597 180.857C283.902 181.133 283.463 182.123 283.35 182.618Z" fill="#263E5E"/>
<path d="M286.186 101.3C286.186 101.3 286.938 110.696 287.821 121.989C289.021 137.331 290.465 156.176 290.608 159.746C290.855 165.945 291.846 175.861 291.846 175.861C291.846 175.861 294.195 178.217 298.897 177.224C298.897 177.224 303.086 163.069 304.283 148.091L304.339 147.351C305.452 132.104 307.184 99.9986 307.184 99.9986L286.186 101.3Z" fill="#2B3049"/>
<path d="M288.986 100.675C288.986 100.675 288.5 106.537 291.205 117.536C293.191 125.606 304.283 148.092 304.283 148.092L304.339 147.351C305.452 132.105 307.183 99.9988 307.183 99.9988L288.986 100.675Z" fill="#22263A"/>
<path d="M288.986 100.675C288.986 100.675 303.163 136.443 312.07 152.433C320.976 168.424 323.76 172.886 323.76 172.886C323.76 172.886 328.862 170.841 329.326 169.446C329.326 169.446 325.92 138.576 319.956 131.05C316.586 126.798 312.627 114.037 312.441 109.575C312.255 105.112 311.235 96.2803 311.235 96.2803L288.986 100.675Z" fill="#2B3049"/>
<path d="M288.273 99.9986C290.257 100.119 311.188 99.3256 311.193 98.1541C311.212 94.0801 312.062 87.4856 313.123 79.4763C313.315 78.0013 313.468 76.5216 313.583 75.0386C313.876 71.226 313.889 67.555 313.605 64.2383C313.078 58.0767 310.467 53.1087 307.803 50.7919C307.453 50.4988 306.163 51.4802 303.999 52.3596C302 53.1706 300.417 52.5892 298.62 52.0857L296.323 54.1112C294.412 55.8961 292.365 58.6176 291.367 61.0689C291.367 61.0695 288.096 99.9866 288.273 99.9986Z" fill="#4A6CC9"/>
<path d="M291.367 61.0695L297.084 62.4015L304.951 83.7523C305.503 85.2493 306.499 86.541 307.806 87.4533C309.112 88.3656 310.666 88.8547 312.259 88.8547L311.569 99.3945L286.186 101.301L291.367 61.0695Z" fill="#2B3049"/>
<path d="M268.889 91.0414C268.481 89.4139 269.284 88.9874 269.284 88.9874C269.284 88.9874 285.46 82.96 286.801 82.2576C288.143 81.5553 298.037 66.7137 298.037 66.7137C298.037 66.7137 301.757 60.6164 305.778 61.0963C309.272 61.5134 311.03 63.872 311.91 66.2611C312.96 69.1078 312.134 72.3092 309.871 74.3261C304.791 78.8533 294.601 87.806 292.052 89.0774C286.379 91.9076 270.005 93.1682 270.005 93.1682C270.005 93.1682 269.21 92.3195 268.889 91.0414Z" fill="#4A6CC9"/>
<path d="M303.008 56.2171C304.339 54.978 308.607 51.5739 308.607 51.5739C308.607 51.5739 308.272 51.2116 308.149 51.0922C308.071 51.0162 307.803 50.7922 307.803 50.7922C307.234 50.6715 302.822 53.9967 301.354 55.3074C299.585 56.8858 294.833 61.8769 294.833 61.8769L297.084 62.4013C297.084 62.4013 301.441 57.6757 303.008 56.2171Z" fill="#374952"/>
<path d="M191.128 116.208V117.896C191.128 118.487 190.937 118.97 190.704 118.97H129.235C129.002 118.97 128.811 118.487 128.811 117.896V116.208C128.811 115.618 129.002 115.135 129.235 115.135H190.704C190.937 115.135 191.128 115.618 191.128 116.208Z" fill="#C4C4C4"/>
<path d="M191.128 116.208V117.896C191.128 118.487 190.953 118.97 190.739 118.97H141.939C141.725 118.97 141.55 118.487 141.55 117.896V116.208C141.55 115.618 141.725 115.135 141.939 115.135H190.739C190.953 115.135 191.128 115.618 191.128 116.208Z" fill="#D4D4D4"/>
<path d="M175.57 118.97V182.708H131.931V118.97H175.57Z" fill="#CCCCCC"/>
<path d="M187.8 118.97V182.708H144.16V118.97H187.8Z" fill="#E8E8E8"/>
<path d="M185.456 179.189H146.506V120.771H185.456V179.189ZM146.926 178.768H185.035V121.192H146.926V178.768Z" fill="#C4C4C4"/>
<path d="M185.245 140.096V140.517H146.716V140.096H185.245Z" fill="#C4C4C4"/>
<path d="M185.245 159.798V160.22H146.716V159.798H185.245Z" fill="#C4C4C4"/>
<path d="M169.928 124.538H162.779C162.612 124.538 162.452 124.471 162.333 124.352C162.215 124.234 162.149 124.074 162.148 123.906C162.149 123.739 162.215 123.578 162.333 123.46C162.452 123.341 162.612 123.274 162.779 123.274H169.928C170.096 123.274 170.256 123.341 170.374 123.46C170.492 123.578 170.559 123.739 170.559 123.906C170.559 124.074 170.492 124.234 170.374 124.353C170.256 124.471 170.096 124.538 169.928 124.538Z" fill="#C4C4C4"/>
<path d="M169.928 143.805H162.779C162.612 143.804 162.452 143.737 162.333 143.619C162.215 143.5 162.149 143.34 162.148 143.173C162.149 143.005 162.215 142.844 162.333 142.726C162.452 142.608 162.612 142.541 162.779 142.54H169.928C170.096 142.541 170.256 142.607 170.374 142.726C170.492 142.844 170.559 143.005 170.559 143.173C170.559 143.34 170.492 143.501 170.374 143.619C170.256 143.737 170.096 143.804 169.928 143.805Z" fill="#C4C4C4"/>
<path d="M169.928 163.888H162.779C162.612 163.888 162.452 163.821 162.333 163.703C162.215 163.584 162.149 163.424 162.148 163.256C162.149 163.089 162.215 162.928 162.333 162.81C162.452 162.691 162.612 162.625 162.779 162.624H169.928C170.096 162.625 170.256 162.691 170.374 162.81C170.492 162.928 170.559 163.089 170.559 163.256C170.559 163.424 170.492 163.584 170.374 163.703C170.256 163.821 170.096 163.888 169.928 163.888Z" fill="#C4C4C4"/>
<path d="M60.1341 137.257V182.706H5.1283V137.257H60.1341Z" fill="#CCCCCC"/>
<path d="M87.6371 137.257V182.706H32.6312V137.257H87.6371Z" fill="#E8E8E8"/>
<path d="M66.8642 110.897V137.232H34.9916V110.897H66.8642Z" fill="#E8E8E8"/>
<path d="M50.9279 110.897V137.232H19.0553V110.897H50.9279Z" fill="#CCCCCC"/>
<path d="M101.277 151.322V182.706H63.2944V151.322H101.277Z" fill="#E8E8E8"/>
<path d="M82.286 151.322V182.706H44.303V151.322H82.286Z" fill="#CCCCCC"/>
<path d="M158.085 103.045L159.97 112.697L155.906 113.039L151.32 103.644L158.085 103.045Z" fill="#263E5E"/>
<path d="M89.5911 52.1871C89.5911 52.1871 92.9384 57.6582 98.4422 56.4177C98.4422 56.4177 99.9698 53.8779 100.288 51.883C100.327 51.6374 100.366 51.3996 100.404 51.1736C100.772 48.9286 101.038 47.6782 101.038 47.6782C101.038 47.6782 101.037 47.6774 101.033 47.6763C100.811 47.5415 93.5828 43.2003 93.5493 43.4646C92.7621 49.5679 89.5911 52.1871 89.5911 52.1871Z" fill="#FFB27D"/>
<path d="M94.1043 45.0327C94.639 46.526 96.7808 49.6143 100.404 51.1736C100.772 48.9286 101.038 47.6781 101.038 47.6781C101.038 47.6781 101.037 47.6774 101.033 47.6763C100.829 47.5866 93.9448 44.5922 94.1043 45.0327Z" fill="#ED975D"/>
<path d="M102.605 47.6897C102.605 47.6897 93.6274 48.4158 93.2622 42.8068C92.8971 37.1978 91.4925 33.514 97.2086 32.8132C102.925 32.1125 104.179 34.1798 104.755 36.0223C105.332 37.8647 104.93 47.3563 102.605 47.6897Z" fill="#FFB27D"/>
<path d="M93.4184 44.3309C93.2886 44.3888 91.3365 44.68 88.8702 37.0922C88.483 35.9012 88.4675 33.4492 90.0798 31.5296C91.6922 29.6101 96.5269 28.6423 100.444 28.4965C104.361 28.3507 104.951 30.6365 105.521 32.9305C106.12 35.3387 108.557 37.6161 108.557 37.6161C104.995 38.9557 101.438 35.7264 100.002 35.9507C98.5668 36.175 97.7558 38.2652 97.5481 38.9433C97.3405 39.6213 97.0953 40.1736 95.4661 39.2927C93.8369 38.4117 94.3171 41.6211 94.5045 42.2493C94.5045 42.2493 94.5025 43.8464 93.4184 44.3309Z" fill="#2B3049"/>
<path d="M98.4349 183.219H84.3628C84.2281 183.193 84.126 183.164 84.064 183.133C83.1245 182.661 83.4185 179.057 83.5315 177.943C83.5532 177.737 83.5687 177.616 83.5687 177.616C83.5687 177.616 88.5168 173.65 89.1979 176.687C89.2196 176.782 89.2442 176.874 89.2706 176.966V176.968C90.1296 179.809 93.9695 181.099 96.1876 181.459C97.8822 181.735 98.3219 182.725 98.4349 183.219Z" fill="#263E5E"/>
<path d="M61.4775 183.219H56.1688C55.0561 183.219 53.8194 182.103 53.5098 180.059C53.2003 178.013 50.9126 176.898 50.4175 175.224C49.9222 173.551 52.4591 171.195 52.4591 171.195L52.8831 170.649L53.3243 170.08L57.5295 171.071C57.5295 171.071 57.6332 172.074 57.6981 173.352C57.7431 174.275 57.7678 175.342 57.7153 176.277C57.5915 178.509 58.3389 180.912 60.317 181.346C62.2962 181.78 61.4775 183.219 61.4775 183.219Z" fill="#263E5E"/>
<path d="M95.5985 101.902C95.5985 101.902 94.8469 111.298 93.9637 122.592C92.7632 137.933 91.3196 156.778 91.1767 160.348C90.9299 166.547 89.9391 176.463 89.9391 176.463C89.9391 176.463 87.59 178.819 82.888 177.826C82.888 177.826 78.6982 163.671 77.5013 148.694C77.4826 148.447 77.464 148.2 77.4457 147.953C76.3324 132.707 74.6011 100.601 74.6011 100.601L95.5985 101.902Z" fill="#2B3049"/>
<path d="M91.8049 103.758C91.8049 103.758 93.285 107.139 90.5794 118.138C88.5941 126.208 77.5015 148.694 77.5015 148.694C77.4828 148.447 77.4643 148.2 77.4459 147.954C76.3326 132.707 74.6013 100.601 74.6013 100.601L91.8049 103.758Z" fill="#22263A"/>
<path d="M92.7986 101.277C92.7986 101.277 78.6211 137.045 69.7148 153.035C60.8082 169.026 58.0249 173.488 58.0249 173.488C58.0249 173.488 52.9222 171.443 52.4583 170.049C52.4583 170.049 55.8641 139.178 61.8287 131.653C65.199 127.4 69.1582 114.639 69.3438 110.177C69.5294 105.714 70.5499 96.8824 70.5499 96.8824L92.7986 101.277Z" fill="#2B3049"/>
<path d="M93.52 102.894C91.6075 102.352 72.106 94.6938 72.4865 93.5862C73.8079 89.7332 75.1733 83.226 76.8049 75.3137C77.1086 73.8577 77.4501 72.41 77.8292 70.9719C78.806 67.2755 80.001 63.805 81.3587 60.7672C83.8824 55.1234 87.9807 51.2948 91.2577 49.9868C91.6842 49.8257 92.5801 51.178 94.3345 52.7229C95.9551 54.1487 97.6403 54.1218 99.5025 54.2398L101.005 56.9107C102.223 59.227 103.261 62.4724 103.398 65.1163C103.398 65.1163 93.691 102.941 93.52 102.894Z" fill="#4A6CC9"/>
<path d="M103.398 65.1163L97.562 64.4866L83.1146 82.0483C82.1016 83.2797 80.7363 84.1705 79.2027 84.6005C77.6691 85.0305 76.0407 84.9792 74.5371 84.4534L70.5497 96.8822L95.0627 104.812L103.398 65.1163Z" fill="#2B3049"/>
<path d="M94.0012 56.6919C93.1519 55.0825 90.2417 50.4596 90.2417 50.4596C90.2417 50.4596 90.6032 50.265 90.7284 50.2066C90.8571 50.1467 91.2573 49.9866 91.2573 49.9866C91.8348 50.0606 94.9063 54.6563 95.8623 56.3789C97.0133 58.4532 99.7753 64.7297 99.7753 64.7297L97.5617 64.4866C97.5621 64.4866 95.0013 58.5864 94.0012 56.6919Z" fill="#374952"/>
<path d="M102.236 101.446C102.236 101.446 103.691 102.214 104.556 102.176C105.42 102.138 106.028 102.275 107.311 102.55C108.594 102.824 108.646 103.258 107.693 103.472C106.74 103.685 105.661 103.276 106.145 103.792C106.63 104.308 111.212 104.749 111.155 105.334C111.098 105.918 106.932 107.612 105.407 107.08C103.882 106.547 100.317 103.42 100.317 103.42L102.236 101.446Z" fill="#FFB27D"/>
<path d="M102.03 103.329C103.352 102.299 102.982 101.468 102.982 101.468C102.982 101.468 93.9518 86.7301 93.3276 85.3487C92.7036 83.9671 94.0417 66.1686 94.0417 66.1686C94.0417 66.1686 94.8631 59.0697 91.4016 56.9641C88.3937 55.1342 87.4018 53.6339 85.2387 54.9709C82.661 56.5644 80.4459 62.5088 80.9873 65.4948C82.2027 72.1974 83.7732 84.8999 84.9982 87.4756C87.7249 93.2084 99.8424 104.314 99.8424 104.314C99.8424 104.314 100.991 104.137 102.03 103.329Z" fill="#4A6CC9"/>
<path d="M100.716 40.3743C100.908 40.3602 101.079 40.5974 101.097 40.9041C101.114 41.211 100.974 41.476 100.786 41.4899C100.597 41.504 100.409 41.2669 100.409 40.96C100.387 40.6533 100.523 40.3882 100.716 40.3743Z" fill="#48606B"/>
<path d="M103.995 40.1045C104.183 40.0906 104.354 40.3278 104.372 40.6345C104.389 40.9414 104.258 41.2062 104.065 41.2203C103.872 41.2342 103.706 40.9971 103.684 40.6904C103.667 40.3835 103.807 40.1186 103.995 40.1045Z" fill="#48606B"/>
<path d="M102.861 43.7123C103.343 43.8036 103.839 43.6716 104.223 43.3497C103.594 42.6187 103.066 41.8054 102.655 40.9322L102.861 43.7123Z" fill="#ED847E"/>
<path d="M99.4416 44.9909C99.4273 44.9722 99.4196 44.9493 99.4196 44.9258C99.4196 44.9023 99.4273 44.8795 99.4416 44.8608L99.4421 44.8601C99.4496 44.8519 99.4588 44.8455 99.4689 44.8411C99.4791 44.8366 99.49 44.8344 99.5011 44.8345C99.5121 44.8345 99.5231 44.8369 99.5332 44.8415C99.5433 44.846 99.5523 44.8526 99.5597 44.8608C100.047 45.4404 100.767 45.7376 101.495 45.6604C101.506 45.6607 101.517 45.6632 101.528 45.6678C101.538 45.6724 101.547 45.679 101.555 45.6872C101.563 45.6954 101.569 45.705 101.573 45.7156C101.577 45.7261 101.579 45.7373 101.578 45.7486C101.579 45.7599 101.577 45.7711 101.573 45.7817C101.569 45.7923 101.563 45.8019 101.555 45.8101C101.547 45.8183 101.538 45.8249 101.528 45.8296C101.517 45.8342 101.506 45.8367 101.495 45.837C101.37 45.8485 101.244 45.8485 101.119 45.837C100.475 45.8074 99.8698 45.5022 99.4416 44.9909Z" fill="#48606B"/>
<path d="M99.2445 39.8953C99.1662 39.8402 99.1446 39.7278 99.1964 39.6443C99.4852 39.1438 99.9847 38.823 100.536 38.7843C100.631 38.7843 100.707 38.8654 100.707 38.9655C100.702 39.0654 100.626 39.1445 100.532 39.1469C100.098 39.1887 99.7087 39.4456 99.481 39.8396C99.4646 39.8654 99.4419 39.8865 99.4151 39.9011C99.3884 39.9158 99.3583 39.9234 99.3279 39.9233C99.2986 39.919 99.2704 39.9096 99.2445 39.8953Z" fill="#48606B"/>
<path d="M104.884 39.3003C104.683 38.8915 104.304 38.6148 103.873 38.5611C103.87 38.5611 103.866 38.5609 103.863 38.5605C103.772 38.5528 103.703 38.4677 103.711 38.3705C103.72 38.2708 103.8 38.1955 103.895 38.1984C104.44 38.2691 104.92 38.6155 105.182 39.1283C105.228 39.217 105.199 39.3287 105.116 39.3794C105.085 39.3884 105.052 39.3884 105.02 39.3794C104.993 39.3783 104.966 39.3705 104.942 39.3567C104.919 39.3429 104.899 39.3236 104.884 39.3003Z" fill="#48606B"/>
<path d="M93.6942 30.2982C90.4409 29.2414 88.7036 33.2994 91.7724 37.3284C94.7001 37.8359 97.8655 35.2934 99.4036 33.715C100.758 32.3204 96.9471 31.3548 93.6942 30.2982Z" fill="#2B3049"/>
<path d="M92.755 30.6774C99.6844 23.2969 105.254 30.7958 105.367 32.6204C105.367 32.6204 107.201 33.2701 108.163 33.0871C105.7 36.8305 100.305 37.0427 94.6199 35.3492C90.1562 33.1372 91.0686 29.6844 92.755 30.6774Z" fill="#2B3049"/>
<path d="M90.8054 29.0996C93.8133 28.8558 93.7929 31.0016 93.7929 31.0016C92.8546 30.2812 91.8549 29.6447 90.8054 29.0996Z" fill="#2B3049"/>
<path d="M93.4626 27.902C92.1812 30.001 93.7369 30.779 93.7369 30.779C93.5652 29.8294 93.4734 28.867 93.4626 27.902Z" fill="#2B3049"/>
<path d="M301.773 38.7381C301.585 38.6912 301.376 38.8952 301.306 39.1944C301.236 39.4938 301.329 39.7792 301.512 39.8252C301.695 39.8714 301.921 39.6703 301.974 39.3681C302.048 39.0695 301.96 38.7849 301.773 38.7381Z" fill="#263238"/>
<path d="M298.588 37.9073C298.405 37.8611 298.196 38.0651 298.126 38.3645C298.056 38.6637 298.14 38.9474 298.328 38.9944C298.515 39.0411 298.72 38.8362 298.794 38.5379C298.864 38.2387 298.771 37.9533 298.588 37.9073Z" fill="#263238"/>
<path d="M299.086 41.6567C298.596 41.6636 298.13 41.4481 297.807 41.0648C298.552 40.4532 299.211 39.7428 299.766 38.9533L299.086 41.6567Z" fill="#ED847E"/>
<path d="M302.235 43.5054C302.253 43.4894 302.264 43.4682 302.268 43.445C302.272 43.4219 302.268 43.398 302.258 43.3771L302.257 43.3764C302.251 43.3671 302.243 43.3592 302.234 43.3532C302.225 43.3471 302.214 43.343 302.203 43.3412C302.192 43.3394 302.181 43.3398 302.171 43.3425C302.16 43.3452 302.15 43.3501 302.141 43.3569C301.561 43.8441 300.802 44.0127 300.097 43.8112C300.075 43.8079 300.052 43.8136 300.034 43.8272C300.016 43.8408 300.004 43.861 300 43.8835C299.998 43.8946 299.998 43.906 300 43.9171C300.002 43.9282 300.006 43.9387 300.013 43.9482C300.019 43.9576 300.027 43.9657 300.036 43.9721C300.046 43.9784 300.056 43.9828 300.067 43.9851C300.189 44.018 300.313 44.0395 300.438 44.0499C301.077 44.1316 301.726 43.9354 302.235 43.5054Z" fill="#263238"/>
<path d="M303.304 38.5198C303.391 38.479 303.431 38.372 303.394 38.2808C303.196 37.7379 302.759 37.336 302.222 37.2027C302.129 37.1864 302.04 37.2533 302.023 37.3518C302.01 37.4509 302.072 37.5421 302.164 37.5606C302.584 37.6766 302.924 37.9968 303.08 38.4241C303.092 38.4523 303.111 38.477 303.135 38.4961C303.159 38.5151 303.187 38.5278 303.217 38.5329C303.247 38.5338 303.276 38.5293 303.304 38.5198Z" fill="#263238"/>
<path d="M297.851 36.9618C298.119 36.5937 298.539 36.3863 298.974 36.4077C298.977 36.4081 298.98 36.4086 298.983 36.4088C299.075 36.417 299.157 36.345 299.166 36.248C299.174 36.1481 299.108 36.0601 299.014 36.0467C298.465 36.0224 297.933 36.2809 297.587 36.7409C297.526 36.8204 297.536 36.9353 297.608 36.9996C297.638 37.014 297.671 37.0197 297.703 37.0162C297.731 37.0197 297.758 37.0166 297.784 37.0071C297.809 36.9977 297.832 36.9821 297.851 36.9618Z" fill="#263238"/>
<path d="M310.018 29.6747C313.272 28.618 315.009 32.6759 311.94 36.705C309.012 37.2124 305.847 34.67 304.309 33.0915C302.955 31.6969 306.765 30.7313 310.018 29.6747Z" fill="#A9453D"/>
<path d="M310.957 30.054C304.028 22.6734 298.459 30.1723 298.345 31.9969C298.345 31.9969 296.511 32.6467 295.549 32.4636C298.012 36.207 303.407 36.4193 309.092 34.7257C313.556 32.5137 312.644 29.061 310.957 30.054Z" fill="#A9453D"/>
<path d="M312.907 28.4762C309.9 28.2324 309.92 30.3782 309.92 30.3782C310.858 29.6577 311.858 29.0212 312.907 28.4762Z" fill="#A9453D"/>
<path d="M310.25 27.2786C311.532 29.3775 309.976 30.1555 309.976 30.1555C310.148 29.2059 310.239 28.2436 310.25 27.2786Z" fill="#A9453D"/>
</svg>
