<svg width="615" height="400" viewBox="0 0 615 400" fill="none" xmlns="http://www.w3.org/2000/svg">
<path d="M397.639 69.6524C397.417 69.3652 397.195 69.078 396.957 68.7989C393.417 64.5399 388.481 61.8073 382.961 61.036C377.343 60.2564 371.75 61.6104 367.134 64.8436C359.627 55.6199 346.042 53.9212 336.473 61.1509C335.816 61.6432 335.2 62.1684 334.617 62.7182C334.206 63.1039 333.82 63.506 333.451 63.9163C333.492 63.9819 333.533 64.0394 333.582 64.105L359.635 99.1206L360.292 98.6283C361.672 97.6107 393.934 73.6406 394.953 72.8774C396.062 72.0404 397.072 71.1131 397.975 70.1201C397.869 69.9642 397.754 69.8083 397.639 69.6524Z" fill="#4A6CC9"/>
<path d="M399.281 41.7515C395.7 37.0084 390.485 33.9557 384.604 33.1351C378.986 32.3555 373.393 33.7095 368.777 36.9427C361.27 27.719 347.685 26.0203 338.116 33.25C328.539 40.4714 326.478 54.192 333.451 63.9163C333.492 63.9819 333.533 64.0394 333.582 64.105L359.635 99.1206L360.292 98.6283C361.672 97.6107 393.934 73.6406 394.953 72.8774C396.062 72.0404 397.072 71.1131 397.975 70.1202C405.055 62.3736 405.844 50.4172 399.281 41.7515ZM396.957 68.7989C396.062 69.8083 395.06 70.7356 393.959 71.5644C393.031 72.2702 364.686 93.3189 359.972 96.8229L334.905 63.1285C334.806 62.9972 334.707 62.8577 334.617 62.7182C328.358 53.7243 330.321 41.1935 339.11 34.5547C342.822 31.7565 347.175 30.4024 351.504 30.4024C357.746 30.4024 363.923 33.2171 367.964 38.5675L368.456 39.224L369.113 38.7235C378.173 31.8877 391.125 33.6849 397.975 42.7363C401.294 47.1265 402.698 52.5344 401.942 57.9832C401.376 62.0699 399.643 65.7955 396.957 68.7989Z" fill="#2B3049"/>
<path d="M576.201 83.7026L570.838 82.882C570.099 79.1236 569.007 75.4226 567.586 71.8612C568.193 75.3241 567.963 78.9266 566.961 82.2911L509.213 73.4695C512.038 61.0619 513.64 49.4666 512.687 39.5454C511.266 24.6594 522.305 11.2588 537.262 10.7336C537.672 10.7172 538.091 10.709 538.51 10.709C552.366 10.709 563.807 18.8002 565.475 29.2549C566.066 32.9969 566.896 36.706 567.586 40.4398C570.173 54.4231 580.998 73.0592 576.201 83.7026Z" fill="#2B3049"/>
<path d="M424.404 105.968C426.267 106.74 427.8 107.869 428.842 109.121L447.054 115.358L443.829 123.929L425.703 116.679C424.08 116.826 422.197 116.538 420.334 115.766C416.078 114.002 413.54 110.378 414.663 107.672C415.787 104.967 420.148 104.203 424.404 105.968Z" fill="#FFB6B6"/>
<path d="M482.962 381.1L475.76 381.27L471.745 348.94L482.374 348.689L482.962 381.1Z" fill="#FFB7B7"/>
<path d="M458.252 396.113C458.252 397.329 459.115 398.314 460.18 398.314H474.477C474.477 398.314 475.884 392.664 481.62 390.232L482.016 398.314H489.39L488.497 385.319C488.497 385.319 490.47 378.366 486.373 374.812C482.275 371.258 485.594 371.753 485.594 371.753L483.982 363.71L472.838 365.019L472.756 377.645L467.348 390.178L459.415 394.093C458.709 394.441 458.252 395.235 458.252 396.113Z" fill="#2B3049"/>
<path d="M560.388 381.1L553.186 381.27L549.171 348.94L559.8 348.689L560.388 381.1Z" fill="#FFB7B7"/>
<path d="M535.677 396.113C535.677 397.329 536.541 398.314 537.606 398.314H551.902C551.902 398.314 553.309 392.664 559.045 390.232L559.441 398.314H566.816L565.923 385.319C565.923 385.319 567.896 378.366 563.798 374.812C559.701 371.258 563.02 371.753 563.02 371.753L561.408 363.71L550.264 365.019L550.182 377.645L544.773 390.178L536.841 394.093C536.135 394.441 535.677 395.235 535.677 396.113Z" fill="#2B3049"/>
<path d="M502.281 146.069L546.633 153.455C552.448 163.058 563.881 199.409 563.881 199.409C563.881 199.409 560.886 300.396 563.447 358.824L544.991 359.429L520.35 228.951L487.497 356.146L469.575 357.414L471.891 266.7C471.891 266.7 496.656 147.193 502.281 146.069Z" fill="#2B3049"/>
<path d="M523.216 65.4698L545.802 66.1749L569.093 97.2028C560.06 120.01 551.565 136.478 551.936 152.74C551.967 154.117 554.216 157.212 554.4 158.484C554.649 160.202 551.38 162.723 551.936 164.228L497.353 152.634C498.457 151.078 497.506 149.111 498.174 147.71C498.761 146.479 501.015 145.804 501.288 144.61C502.767 138.164 503.555 127.409 497.993 114.779C494.038 105.798 511.447 84.8483 510.512 74.6371L523.216 65.4698Z" fill="#E9F2FC"/>
<path d="M528.394 79.9572L486.848 135.988L438.148 122.589L440.265 109.896L477.349 116.913L498.037 85.1363C504.793 72.0893 518.108 69.4618 528.394 79.9572Z" fill="#E9F2FC"/>
<path d="M533.75 58.3213C544.572 58.3213 553.344 49.5564 553.344 38.7443C553.344 27.9322 544.572 19.1673 533.75 19.1673C522.928 19.1673 514.156 27.9322 514.156 38.7443C514.156 49.5564 522.928 58.3213 533.75 58.3213Z" fill="#FFB7B7"/>
<path d="M551.971 214.446C552.522 212.508 553.466 210.854 554.589 209.675L558.67 190.877L567.566 193.079L562.468 211.91C562.804 213.504 562.737 215.406 562.186 217.344C560.927 221.773 557.62 224.714 554.8 223.913C551.979 223.113 550.713 218.875 551.971 214.446Z" fill="#FFB6B6"/>
<path d="M553.202 76.8328C553.202 76.8328 569.627 75.997 570.823 86.8789C572.019 97.7608 575.845 159.737 575.845 159.737L566.976 201.569L554.329 199.813L559.918 146.565L553.202 76.8328Z" fill="#E9F2FC"/>
<path d="M553.672 22.1073C553.672 26.5304 551.216 32.2255 551.216 38.9135L543.767 36.9769C543.619 35.6803 542.863 31.6264 542.527 30.3627C542.699 31.5526 543.069 35.549 542.658 36.6814L539.003 35.7295C538.978 35.0484 538.921 34.3673 538.839 33.6944C538.691 32.3978 538.444 31.1177 538.108 29.8539C538.28 31.0438 538.141 32.2665 537.73 33.399C537.492 34.0226 537.18 34.6135 536.785 35.1551L518.749 30.453C514.379 28.8104 513.71 34.5908 513.78 41.8513C513.78 41.8513 511.316 16.4123 530.042 14.9433L532.868 12.1204C549.878 13.097 553.672 16.6174 553.672 22.1073Z" fill="#2B3049"/>
<path d="M513.522 46.1897C514.193 53.022 513.375 59.8959 512.402 66.6995C512.089 68.8891 511.74 71.1304 510.573 73.0797C509.405 75.029 507.233 76.6566 504.744 76.7071C508.657 77.763 513.169 76.8375 516.161 74.3654C519.199 71.8556 520.535 68.0514 520.637 64.3709C520.739 60.6904 519.743 57.0636 518.753 53.4881L513.522 46.1897Z" fill="#2B3049"/>
<path d="M549.287 19.8672C549.958 32.3237 549.14 44.856 548.167 57.2601C547.853 61.2522 547.505 65.3385 546.338 68.8924C545.17 72.4463 542.998 75.4137 540.509 75.5058C544.422 77.4308 548.934 75.7435 551.926 71.2363C554.964 66.6606 556.3 59.7249 556.402 53.0147C556.504 46.3045 555.507 39.6921 554.517 33.1735L549.287 19.8672Z" fill="#2B3049"/>
<path d="M132.791 391.254L144.58 391.253L150.189 345.818L132.788 345.819L132.791 391.254Z" fill="#A0616A"/>
<path d="M173.183 390.987C173.551 391.604 173.744 393.598 173.744 394.316C173.744 396.524 171.953 398.314 169.743 398.314H133.232C131.724 398.314 130.502 397.093 130.502 395.587V394.068C130.502 394.068 128.696 389.503 132.414 383.877C132.414 383.877 137.036 388.283 143.942 381.383L145.979 377.697L160.72 388.468L168.891 389.473C170.679 389.693 172.264 389.439 173.183 390.987Z" fill="#2B3049"/>
<path d="M96.6516 391.254L108.441 391.253L114.05 345.818L96.6492 345.819L96.6516 391.254Z" fill="#A0616A"/>
<path d="M137.044 390.987C137.412 391.604 137.605 393.598 137.605 394.316C137.605 396.524 135.814 398.314 133.604 398.314H97.0925C95.5849 398.314 94.3627 397.093 94.3627 395.587V394.068C94.3627 394.068 92.5566 389.503 96.2752 383.877C96.2752 383.877 100.897 388.283 107.803 381.383L109.84 377.697L124.581 388.468L132.752 389.473C134.54 389.693 136.125 389.439 137.044 390.987Z" fill="#2B3049"/>
<path d="M98.5914 163.712L91.1993 281.06L94.8954 371.602H117.899L132.266 217.873L129.075 371.602L150.336 371.328L172.923 194.486C172.923 194.486 172.512 176.022 165.531 166.585C158.549 157.148 98.5914 163.712 98.5914 163.712Z" fill="#2B3049"/>
<path d="M184.187 136.717L165.671 137.446L167.834 158.11L204.134 185.459L209.062 178.073L182.996 148.085L184.187 136.717Z" fill="#A0616A"/>
<path d="M149.104 60.7254L123.642 58.2636L104.752 67.2903V141.966L98.7445 154.515C96.81 158.556 96.6064 163.211 98.1808 167.405L165.531 166.585L163.888 157.558L167.173 140.325L169.637 77.1377L149.104 60.7254Z" fill="#E9F2FC"/>
<path d="M164.299 76.7274C164.299 76.7274 170.048 70.9831 174.155 85.7541C178.262 100.525 188.118 153.044 188.118 153.044L164.709 153.455L158.549 97.2427L164.299 76.7274Z" fill="#E9F2FC"/>
<path d="M98.5915 139.915L96.1275 200.521L87.0927 201.461L83.8074 141.556L98.5915 139.915Z" fill="#A0616A"/>
<path d="M114.197 67.7006C114.197 67.7006 99.4128 61.9563 95.3061 76.7274C91.1994 91.4984 81.3433 144.018 81.3433 144.018L99.4128 145.313L119.946 88.216L114.197 67.7006Z" fill="#E9F2FC"/>
<path d="M135.669 53.5772C148.075 53.5772 158.133 43.5287 158.133 31.1332C158.133 18.7377 148.075 8.68912 135.669 8.68912C123.262 8.68912 113.205 18.7377 113.205 31.1332C113.205 43.5287 123.262 53.5772 135.669 53.5772Z" fill="#A0616A"/>
<path d="M92.1085 218.764C95.8565 218.636 98.7209 213.42 98.5064 207.113C98.2918 200.807 95.0795 195.797 91.3315 195.924C87.5834 196.052 84.719 201.268 84.9336 207.574C85.1481 213.881 88.3604 218.891 92.1085 218.764Z" fill="#A0616A"/>
<path d="M221.744 194.511C224.266 191.737 222.519 186.049 217.844 181.806C213.168 177.564 207.334 176.373 204.813 179.146C202.291 181.92 204.038 187.608 208.713 191.851C213.389 196.093 219.223 197.284 221.744 194.511Z" fill="#A0616A"/>
<path d="M153.075 11.8184C150.847 8.31704 149.315 9.7335 145.185 9.30135C142.817 9.05367 138.389 5.33634 136.07 5.87436C133.014 6.58355 129.882 7.32514 127.28 9.07592C121.762 5.833 119.8 12.1805 115.016 16.4299C110.231 20.6793 108.609 28.1087 111.186 33.9631C112.414 36.751 112.32 39.7095 114.316 42.0112C116.615 44.661 117.881 48.349 118.058 48.5531C119.015 49.6559 123.52 50.43 123.704 50.6419C125.508 52.7216 128.414 52.0807 130.218 54.1605L131.258 43.1572C129.798 41.8173 128.286 40.4035 127.605 38.543C126.924 36.6826 127.375 34.246 129.125 33.3138C130.501 32.5806 132.342 32.9103 133.541 31.9138C135.371 30.3928 134.242 27.2111 135.575 25.2401C136.362 24.0747 137.824 23.6057 139.176 23.2137C141.367 22.5784 143.558 21.9431 145.748 21.3079C147.787 20.7169 149.88 20.1198 151.995 20.2885C154.111 20.4572 156.287 21.5599 157.122 23.5089C156.351 19.4319 155.303 15.3197 153.075 11.8184Z" fill="#2B3049"/>
<path d="M229.493 152.88C226.707 145.706 218.628 142.148 211.448 144.932C204.337 147.689 200.779 155.634 203.42 162.756L203.211 162.837L213.301 188.813L237.226 179.537C238.017 179.381 238.805 179.158 239.583 178.856C246.763 176.073 250.324 168.001 247.538 160.828C244.752 153.654 236.673 150.096 229.493 152.88Z" fill="#4A6CC9"/>
<path d="M424.253 13.9504V100.936C424.253 108.628 417.99 114.886 410.291 114.886H323.228C315.529 114.886 309.266 108.628 309.266 100.936V13.9504C309.266 6.25799 315.529 0 323.228 0H410.291C417.99 0 424.253 6.25799 424.253 13.9504ZM410.291 113.245C417.095 113.245 422.611 107.734 422.611 100.936V57.0811C422.611 26.4625 397.767 1.64123 367.122 1.64123C336.076 1.64123 310.908 26.7865 310.908 57.8047V100.936C310.908 107.734 316.424 113.245 323.228 113.245H410.291Z" fill="#2B3049"/>
<path d="M405.622 31.3669C398.023 30.1134 390.846 35.2516 389.592 42.8433C388.349 50.363 393.384 57.4658 400.864 58.8182L400.828 59.0384L428.344 63.5778L432.525 38.2802C432.793 37.5204 433.002 36.7289 433.138 35.9065C434.393 28.3148 429.25 21.1442 421.652 19.8907C414.053 18.6372 406.876 23.7752 405.622 31.3669Z" fill="#4A6CC9"/>
<path d="M314.913 92.1543C312.126 84.981 304.047 81.4227 296.868 84.2065C289.756 86.9639 286.198 94.9089 288.839 102.03L288.631 102.111L298.721 128.088L322.645 118.812C323.436 118.655 324.225 118.433 325.003 118.131C332.182 115.347 335.744 107.275 332.957 100.102C330.171 92.9288 322.092 89.3705 314.913 92.1543Z" fill="#4A6CC9"/>
<path d="M531.812 185.176C524.286 183.546 516.862 188.321 515.23 195.84C513.614 203.289 518.289 210.633 525.692 212.356L525.645 212.575L552.901 218.478L558.337 193.42C558.643 192.674 558.891 191.894 559.068 191.08C560.7 183.56 555.921 176.142 548.394 174.512C540.868 172.882 533.444 177.656 531.812 185.176Z" fill="#4A6CC9"/>
<path d="M64.4883 385.404C62.7915 385.51 61.8537 383.404 63.1374 382.176L63.2652 381.669C63.2483 381.628 63.2314 381.588 63.2144 381.547C61.4985 377.459 55.6828 377.487 53.9814 381.582C52.4713 385.215 50.5487 388.855 50.0753 392.698C49.8631 394.394 49.9585 396.122 50.3352 397.786C46.7968 390.063 44.9348 381.631 44.9348 373.15C44.9348 371.02 45.0515 368.889 45.2902 366.764C45.4865 365.025 45.7571 363.297 46.1072 361.585C48.001 352.331 52.1018 343.517 58.0168 336.155C60.8602 334.602 63.2315 332.174 64.6638 329.264C65.1784 328.215 65.5816 327.086 65.7726 325.936C65.449 325.978 64.5524 321.054 64.7965 320.752C64.3455 320.068 63.5384 319.729 63.0458 319.061C60.5963 315.743 57.2215 316.323 55.4597 320.832C51.6962 322.73 51.6597 325.877 53.969 328.904C55.4382 330.83 55.6401 333.436 56.9292 335.497C56.7966 335.667 56.6586 335.831 56.526 336.001C54.094 339.118 51.9905 342.467 50.2173 345.987C50.7184 342.075 49.9785 337.363 48.7172 334.326C47.2813 330.865 44.59 327.951 42.22 324.959C39.3732 321.365 33.5356 322.933 33.0341 327.489C33.0292 327.533 33.0245 327.577 33.0199 327.621C33.3719 327.82 33.7168 328.03 34.0537 328.253C35.9752 329.523 35.3111 332.499 33.0343 332.85L32.9828 332.858C33.1101 334.125 33.3276 335.381 33.6459 336.616C30.6054 348.364 37.1695 352.642 46.5421 352.834C46.749 352.94 46.9506 353.046 47.1576 353.147C46.2079 355.819 45.4493 358.559 44.887 361.336C44.3831 363.79 44.0329 366.271 43.8367 368.762C43.5926 371.905 43.6138 375.064 43.8791 378.201L43.8632 378.09C43.1895 374.634 41.3115 371.407 38.5847 369.17C34.5227 365.836 28.7838 364.608 24.4016 361.929C22.2921 360.639 19.589 362.306 19.9572 364.749L19.9751 364.866C20.6276 365.131 21.2641 365.438 21.8795 365.783C22.2316 365.981 22.5764 366.192 22.9133 366.415C24.8348 367.685 24.1707 370.661 21.894 371.012L21.8424 371.02C21.8052 371.025 21.7734 371.03 21.7363 371.036C22.8557 373.691 24.4153 376.156 26.3675 378.281C28.2686 388.536 36.4339 389.509 45.1682 386.523H45.1735C46.1284 390.678 47.5236 394.738 49.3167 398.607H64.1174C64.1705 398.443 64.2182 398.273 64.266 398.109C62.8973 398.194 61.518 398.114 60.1705 397.865C61.2687 396.519 62.3668 395.162 63.4649 393.816C63.4914 393.789 63.5127 393.763 63.5339 393.736C64.0909 393.047 64.6532 392.364 65.2102 391.675L65.2105 391.674C65.2454 389.559 64.9911 387.45 64.4883 385.404Z" fill="#E9F2FC"/>
</svg>
