<svg width="220" height="220" viewBox="0 0 220 220" fill="none" xmlns="http://www.w3.org/2000/svg">
<g clip-path="url(#clip0_151_4253)">
<path d="M212.872 152.095C212.872 184.964 166.722 211.609 109.793 211.609C52.8641 211.609 6.71423 184.964 6.71423 152.095C6.71423 119.226 52.8641 92.5803 109.793 92.5803C166.722 92.5803 212.872 119.226 212.872 152.095Z" fill="#E9F2FC"/>
<path d="M192.975 172.423L158.879 152.68C158.732 152.604 158.568 152.564 158.402 152.564C158.236 152.564 158.072 152.604 157.925 152.68L126.768 170.627C126.711 170.647 126.661 170.684 126.626 170.733C126.59 170.783 126.571 170.842 126.571 170.902C126.571 170.963 126.59 171.022 126.626 171.072C126.661 171.121 126.711 171.158 126.768 171.178L160.868 190.921C161.015 190.997 161.178 191.036 161.343 191.036C161.509 191.036 161.672 190.997 161.818 190.921L192.979 172.973C193.239 172.823 193.239 172.577 192.975 172.423Z" fill="#E0E0E0"/>
<path d="M165 129.659L130.9 109.917C130.752 109.843 130.59 109.804 130.425 109.804C130.26 109.804 130.097 109.843 129.95 109.917L37.4747 163.205C37.2107 163.355 37.2107 163.601 37.4747 163.755L71.5703 183.48C71.8689 183.632 72.2221 183.632 72.5207 183.48L165 130.209C165.057 130.19 165.107 130.153 165.143 130.103C165.178 130.054 165.197 129.995 165.197 129.934C165.197 129.874 165.178 129.814 165.143 129.765C165.107 129.716 165.057 129.679 165 129.659Z" fill="#E0E0E0"/>
<path d="M67.3815 126.905C67.3815 133.721 57.8094 139.247 46.002 139.247C34.1945 139.247 24.6224 133.721 24.6224 126.905C24.6224 120.088 34.1945 114.563 46.002 114.563C57.8094 114.563 67.3815 120.088 67.3815 126.905Z" fill="#D5E0EC"/>
<path d="M43.4411 165.062C41.1068 166.202 38.5132 166.708 35.9214 166.527C31.4379 166.276 29.9727 163.79 29.9727 163.79C29.9727 163.79 32.5554 160.09 35.2527 159.482C35.2527 159.482 30.8924 159.434 27.0599 160.943C27.0599 160.943 24.4199 160.415 24.2174 156.143C24.2174 156.143 26.3119 154.048 31.8604 153.872C31.8604 153.872 28.8331 152.376 23.9624 152.552C23.5884 152.614 23.2364 147.07 23.3111 144.562C23.3859 142.054 24.3494 142.291 26.3384 142.195C28.3271 142.098 34.7951 143.163 35.7499 144.452C36.7047 145.741 36.5374 149.402 36.5374 149.402C37.5309 148.101 38.2291 146.6 38.5834 145.002C38.5834 145.002 39.8462 144.821 42.4422 146.322C47.2249 149.081 47.5902 152.301 47.6387 154.748C47.7047 157.463 46.8731 162.523 43.4411 165.062Z" fill="#D0665F"/>
<path d="M43.3884 165.308C43.3432 165.297 43.3018 165.274 43.2685 165.242C43.2352 165.209 43.2112 165.168 43.1991 165.123C41.2676 157.093 30.0784 145.838 25.5991 143.928C25.5677 143.916 25.5391 143.898 25.5149 143.874C25.4908 143.851 25.4716 143.823 25.4585 143.791C25.4455 143.76 25.4388 143.727 25.439 143.693C25.4391 143.66 25.446 143.626 25.4593 143.595C25.4726 143.564 25.492 143.536 25.5163 143.513C25.5407 143.489 25.5694 143.471 25.601 143.459C25.6325 143.447 25.6661 143.442 25.6998 143.443C25.7335 143.444 25.7666 143.452 25.7971 143.467C30.3599 145.411 41.7251 156.851 43.6831 165C43.6914 165.031 43.6936 165.063 43.6895 165.094C43.6855 165.126 43.6752 165.156 43.6594 165.184C43.6435 165.211 43.6224 165.236 43.5973 165.255C43.5721 165.274 43.5433 165.289 43.5126 165.297L43.5027 165.299C43.4662 165.313 43.4265 165.316 43.3884 165.308Z" fill="white"/>
<path d="M158.84 125.246C158.571 124.555 158.374 123.839 158.25 123.108C157.934 121.472 158.072 119.781 158.651 118.219C158.946 117.442 159.398 116.734 159.978 116.139C160.559 115.544 161.256 115.075 162.025 114.761C162.563 114.627 163.063 114.371 163.486 114.013C163.885 113.536 164.185 112.984 164.366 112.389C164.641 111.416 165 110.47 165.44 109.56C166.769 107.44 169.441 106.599 171.745 107.576C172.247 107.809 172.704 108.121 173.219 108.31C174.86 108.913 176.664 107.342 178.16 106.823C179.942 106.207 182.023 105.899 183.757 106.823C185.926 107.985 186.102 110.409 184.426 112.165C183.638 112.987 182.666 113.74 182.384 114.844C181.988 116.441 183.264 118.052 183.04 119.684C182.82 121.418 181.826 122.056 180.224 122.549L178.424 123.108C177.689 123.261 177.012 123.62 176.471 124.142C175.718 125.021 175.736 126.421 175.441 127.486C175.266 128.043 174.976 128.558 174.589 128.997C174.203 129.436 173.728 129.789 173.197 130.033C171.208 131.03 168.966 131.409 166.76 131.12C165.406 131.006 164.085 130.64 162.866 130.042C161.106 129.109 159.68 127.235 158.906 125.435L158.84 125.246Z" fill="#D0665F"/>
<path d="M160.846 127.16C161.366 127.455 162.246 125.541 162.501 125.184C163.148 124.265 163.821 123.376 164.547 122.509C165.839 120.948 167.237 119.478 168.731 118.109C170.977 116.024 173.444 114.19 176.088 112.64C177.169 111.982 178.302 111.414 179.476 110.941C179.541 110.917 179.594 110.867 179.623 110.804C179.652 110.74 179.654 110.668 179.63 110.603C179.584 110.47 179.439 110.399 179.305 110.445L179.295 110.449C175.485 111.888 171.939 114.523 168.925 117.198C167.339 118.606 165.855 120.125 164.485 121.744C163.948 122.373 160.283 126.672 160.811 127.112L160.846 127.16Z" fill="white"/>
<path d="M167.926 118.686H167.988C171.692 118.285 177.421 119.42 177.478 119.429C177.547 119.442 177.617 119.428 177.675 119.389C177.733 119.35 177.773 119.29 177.786 119.222C177.8 119.155 177.787 119.085 177.749 119.027C177.712 118.97 177.653 118.929 177.585 118.915L177.58 118.914C177.342 118.866 171.719 117.757 167.931 118.162C167.864 118.165 167.801 118.194 167.755 118.242C167.709 118.291 167.683 118.355 167.683 118.422C167.683 118.488 167.709 118.553 167.755 118.601C167.801 118.649 167.864 118.678 167.931 118.681L167.926 118.686Z" fill="white"/>
<path d="M169.84 116.961C169.874 116.963 169.908 116.959 169.94 116.948C169.973 116.937 170.003 116.92 170.028 116.898C170.054 116.875 170.075 116.848 170.09 116.817C170.105 116.787 170.114 116.754 170.117 116.72L170.117 116.714C170.217 114.821 170.045 112.923 169.607 111.078C169.586 111.014 169.542 110.959 169.483 110.927C169.424 110.894 169.354 110.885 169.289 110.902C169.223 110.919 169.167 110.96 169.131 111.018C169.095 111.075 169.083 111.144 169.096 111.21C169.516 113.003 169.683 114.845 169.593 116.684C169.59 116.753 169.614 116.821 169.66 116.873C169.706 116.925 169.771 116.956 169.84 116.961Z" fill="white"/>
<path d="M162.078 129.985L133.056 146.74V129.105L162.078 112.345V129.985Z" fill="#19283D"/>
<path d="M104.034 129.985L133.056 146.74V129.105L104.034 112.345V129.985Z" fill="#263238"/>
<path d="M162.078 112.345L133.056 95.59L104.034 112.345L133.056 129.105L162.078 112.345Z" fill="black"/>
<path d="M138.16 115.628C139.572 116.442 140.276 117.511 140.276 118.58V121.44C140.276 122.509 139.572 123.578 138.16 124.392C136.586 125.229 134.825 125.65 133.043 125.616V114.4C134.825 114.365 136.587 114.788 138.16 115.628Z" fill="#19283D"/>
<path d="M127.939 115.628C126.526 116.442 125.822 117.511 125.822 118.58V121.44C125.822 122.509 126.526 123.578 127.939 124.392C129.513 125.229 131.274 125.65 133.056 125.616V114.4C131.273 114.365 129.511 114.788 127.939 115.628Z" fill="#263238"/>
<path d="M127.939 115.628C125.114 117.256 125.114 119.9 127.939 121.532C130.764 123.165 135.344 123.165 138.173 121.532C141.002 119.9 140.998 117.256 138.173 115.628C135.348 114 130.764 113.995 127.939 115.628Z" fill="#263E5E"/>
<path opacity="0.07" d="M127.939 115.628C125.114 117.256 125.114 119.9 127.939 121.532C130.764 123.165 135.344 123.165 138.173 121.532C141.002 119.9 140.998 117.256 138.173 115.628C135.348 114 130.764 113.995 127.939 115.628Z" fill="white"/>
<path d="M138.16 99.2818C139.572 100.096 140.276 101.165 140.276 102.234V105.09C140.276 106.159 139.572 107.228 138.16 108.042C136.587 108.881 134.825 109.302 133.043 109.265V98.0585C134.825 98.0242 136.586 98.4452 138.16 99.2818Z" fill="#19283D"/>
<path d="M127.939 99.2818C126.526 100.096 125.822 101.165 125.822 102.234V105.09C125.822 106.159 126.526 107.228 127.939 108.042C129.512 108.881 131.274 109.302 133.056 109.265V98.0585C131.274 98.0243 129.513 98.4453 127.939 99.2818Z" fill="#263238"/>
<path d="M127.939 99.2817C125.114 100.914 125.114 103.558 127.939 105.191C130.764 106.823 135.344 106.819 138.173 105.191C141.002 103.563 140.998 100.914 138.173 99.2817C135.348 97.6493 130.764 97.6493 127.939 99.2817Z" fill="#263E5E"/>
<path opacity="0.07" d="M127.939 99.2817C125.114 100.914 125.114 103.558 127.939 105.191C130.764 106.823 135.344 106.819 138.173 105.191C141.002 103.563 140.998 100.914 138.173 99.2817C135.348 97.6493 130.764 97.6493 127.939 99.2817Z" fill="white"/>
<path d="M152.319 107.457C153.732 108.271 154.44 109.34 154.44 110.409V113.265C154.44 114.334 153.732 115.403 152.319 116.217C150.747 117.054 148.987 117.475 147.206 117.441V106.234C148.987 106.197 150.748 106.618 152.319 107.457Z" fill="#19283D"/>
<path d="M142.089 107.457C140.677 108.271 139.973 109.34 139.973 110.409V113.265C139.973 114.334 140.677 115.403 142.089 116.217C143.663 117.054 145.424 117.475 147.206 117.441V106.234C145.424 106.197 143.662 106.618 142.089 107.457Z" fill="#263238"/>
<path d="M142.089 107.457C139.264 109.085 139.264 111.729 142.089 113.362C144.914 114.994 149.494 114.994 152.319 113.362C155.144 111.729 155.148 109.085 152.319 107.457C149.49 105.829 144.914 105.824 142.089 107.457Z" fill="#263E5E"/>
<path opacity="0.07" d="M142.089 107.457C139.264 109.085 139.264 111.729 142.089 113.362C144.914 114.994 149.494 114.994 152.319 113.362C155.144 111.729 155.148 109.085 152.319 107.457C149.49 105.829 144.914 105.824 142.089 107.457Z" fill="white"/>
<path d="M124.023 107.448C125.435 108.266 126.139 109.336 126.139 110.405V113.261C126.139 114.325 125.435 115.395 124.023 116.213C122.449 117.049 120.688 117.47 118.906 117.436V106.225C120.688 106.191 122.449 106.612 124.023 107.448Z" fill="#19283D"/>
<path d="M113.788 107.448C112.376 108.266 111.672 109.336 111.672 110.405V113.261C111.672 114.325 112.376 115.395 113.788 116.213C115.362 117.049 117.124 117.47 118.906 117.436V106.225C117.124 106.191 115.362 106.612 113.788 107.448Z" fill="#263238"/>
<path d="M113.788 107.448C110.964 109.081 110.964 111.725 113.788 113.357C116.613 114.99 121.198 114.99 124.023 113.357C126.848 111.725 126.848 109.081 124.023 107.448C121.198 105.816 116.6 105.82 113.788 107.448Z" fill="#263E5E"/>
<path opacity="0.07" d="M113.788 107.448C110.964 109.081 110.964 111.725 113.788 113.357C116.613 114.99 121.198 114.99 124.023 113.357C126.848 111.725 126.848 109.081 124.023 107.448C121.198 105.816 116.6 105.82 113.788 107.448Z" fill="white"/>
<path d="M190.366 172.946L161.344 189.702V172.062L190.366 155.307V172.946Z" fill="#D0665F"/>
<path opacity="0.1" d="M190.366 172.946L161.344 189.702V172.062L190.366 155.307V172.946Z" fill="black"/>
<path d="M132.326 172.946L161.344 189.702V172.062L132.321 155.307L132.326 172.946Z" fill="#D0665F"/>
<path opacity="0.2" d="M132.326 172.946L161.344 189.702V172.062L132.321 155.307L132.326 172.946Z" fill="black"/>
<path d="M190.366 155.307L161.344 138.552L132.321 155.307L161.344 172.062L190.366 155.307Z" fill="#D0665F"/>
<path d="M168.577 145.2C168.577 144.131 167.873 143.062 166.461 142.248C163.636 140.615 159.056 140.615 156.231 142.248C154.818 143.062 154.11 144.131 154.11 145.2V148.056C154.11 149.125 154.818 150.19 156.231 151.008C159.056 152.64 163.636 152.64 166.461 151.008C167.873 150.19 168.582 149.125 168.577 148.056V145.2Z" fill="#D0665F"/>
<path opacity="0.1" d="M166.461 142.243C167.873 143.057 168.581 144.126 168.577 145.196V148.051C168.577 149.12 167.873 150.185 166.461 151.003C164.888 151.845 163.127 152.27 161.344 152.24V141.02C163.126 140.984 164.888 141.405 166.461 142.243Z" fill="black"/>
<path opacity="0.2" d="M156.231 142.243C154.818 143.057 154.11 144.126 154.11 145.196V148.051C154.11 149.121 154.818 150.185 156.231 151.004C157.802 151.844 159.562 152.27 161.344 152.24V141.02C159.563 140.984 157.803 141.405 156.231 142.243Z" fill="black"/>
<path d="M156.231 142.243C153.406 143.871 153.406 146.516 156.231 148.148C159.055 149.78 163.636 149.78 166.461 148.148C169.285 146.516 169.285 143.871 166.461 142.243C163.636 140.615 159.055 140.611 156.231 142.243Z" fill="#D0665F"/>
<path opacity="0.3" d="M156.231 142.243C153.406 143.871 153.406 146.516 156.231 148.148C159.055 149.78 163.636 149.78 166.461 148.148C169.285 146.516 169.285 143.871 166.461 142.243C163.636 140.615 159.055 140.611 156.231 142.243Z" fill="white"/>
<path d="M168.577 161.537C168.577 160.472 167.873 159.403 166.461 158.585C163.636 156.952 159.056 156.952 156.231 158.585C154.818 159.403 154.11 160.468 154.11 161.537V164.393C154.11 165.462 154.818 166.531 156.231 167.345C159.056 168.978 163.636 168.978 166.461 167.345C167.873 166.531 168.582 165.462 168.577 164.393V161.537Z" fill="#D0665F"/>
<path opacity="0.1" d="M166.461 158.585C167.873 159.403 168.581 160.468 168.577 161.537V164.393C168.577 165.462 167.873 166.531 166.461 167.345C164.888 168.186 163.126 168.607 161.344 168.569V157.362C163.126 157.327 164.887 157.748 166.461 158.585Z" fill="black"/>
<path opacity="0.2" d="M156.231 158.585C154.818 159.403 154.11 160.468 154.11 161.537V164.393C154.11 165.462 154.818 166.531 156.231 167.345C157.802 168.185 159.563 168.606 161.344 168.569V157.362C159.563 157.328 157.803 157.749 156.231 158.585Z" fill="black"/>
<path d="M156.231 158.585C153.406 160.217 153.406 162.862 156.231 164.494C159.055 166.126 163.636 166.122 166.461 164.494C169.285 162.866 169.285 160.217 166.461 158.585C163.636 156.952 159.055 156.952 156.231 158.585Z" fill="#D0665F"/>
<path opacity="0.3" d="M156.231 158.585C153.406 160.217 153.406 162.862 156.231 164.494C159.055 166.126 163.636 166.122 166.461 164.494C169.285 162.866 169.285 160.217 166.461 158.585C163.636 156.952 159.055 156.952 156.231 158.585Z" fill="white"/>
<path d="M154.44 153.362C154.44 152.293 153.732 151.224 152.319 150.41C149.494 148.777 144.914 148.777 142.089 150.41C140.677 151.224 139.968 152.293 139.968 153.362V156.2C139.968 157.269 140.677 158.339 142.089 159.153C144.914 160.785 149.494 160.785 152.319 159.153C153.732 158.339 154.44 157.269 154.44 156.2V153.362Z" fill="#D0665F"/>
<path opacity="0.1" d="M152.31 150.41C153.723 151.224 154.431 152.293 154.431 153.362V156.218C154.431 157.287 153.723 158.356 152.31 159.17C150.737 160.009 148.975 160.43 147.193 160.393V149.186C148.975 149.152 150.736 149.573 152.31 150.41Z" fill="black"/>
<path opacity="0.2" d="M142.08 150.41C140.668 151.224 139.959 152.293 139.959 153.362V156.2C139.959 157.269 140.668 158.339 142.08 159.153C143.652 159.99 145.412 160.411 147.193 160.376V149.187C145.413 149.153 143.653 149.574 142.08 150.41Z" fill="black"/>
<path d="M142.08 150.41C139.255 152.042 139.255 154.687 142.08 156.314C144.905 157.942 149.485 157.947 152.31 156.314C155.135 154.682 155.135 152.042 152.31 150.41C149.485 148.777 144.905 148.777 142.08 150.41Z" fill="#D0665F"/>
<path opacity="0.3" d="M142.08 150.41C139.255 152.042 139.255 154.687 142.08 156.314C144.905 157.942 149.485 157.947 152.31 156.314C155.135 154.682 155.135 152.042 152.31 150.41C149.485 148.777 144.905 148.777 142.08 150.41Z" fill="white"/>
<path d="M182.727 153.366C182.727 152.297 182.023 151.228 180.611 150.414C177.786 148.782 173.206 148.782 170.381 150.414C168.964 151.228 168.26 152.297 168.26 153.366V156.222C168.26 157.291 168.964 158.36 170.377 159.174C173.206 160.807 177.786 160.807 180.611 159.174C182.023 158.36 182.727 157.291 182.727 156.222V153.366Z" fill="#D0665F"/>
<path opacity="0.1" d="M180.611 150.414C182.024 151.228 182.728 152.297 182.728 153.366V156.222C182.728 157.291 182.024 158.36 180.611 159.174C179.038 160.013 177.276 160.434 175.494 160.398V149.191C177.276 149.157 179.037 149.578 180.611 150.414Z" fill="black"/>
<path opacity="0.2" d="M170.381 150.414C168.965 151.228 168.26 152.297 168.26 153.366V156.222C168.26 157.291 168.965 158.36 170.377 159.174C171.95 160.012 173.712 160.433 175.494 160.398V149.191C173.713 149.157 171.954 149.578 170.381 150.414Z" fill="black"/>
<path d="M170.381 150.414C167.552 152.046 167.552 154.691 170.381 156.323C173.21 157.955 177.791 157.951 180.615 156.323C183.44 154.695 183.44 152.046 180.615 150.414C177.791 148.782 173.206 148.782 170.381 150.414Z" fill="#D0665F"/>
<path opacity="0.3" d="M170.381 150.414C167.552 152.046 167.552 154.691 170.381 156.323C173.21 157.955 177.791 157.951 180.615 156.323C183.44 154.695 183.44 152.046 180.615 150.414C177.791 148.782 173.206 148.782 170.381 150.414Z" fill="white"/>
<path d="M162.078 111.069L133.056 127.825V110.185L162.078 93.4296V111.069Z" fill="#D0665F"/>
<path opacity="0.3" d="M162.078 111.069L133.056 127.825V110.185L162.078 93.4296V111.069Z" fill="black"/>
<path d="M104.034 111.069L133.056 127.825V110.185L104.034 93.4296V111.069Z" fill="#D0665F"/>
<path opacity="0.4" d="M104.034 111.069L133.056 127.825V110.185L104.034 93.4296V111.069Z" fill="black"/>
<path d="M162.078 93.4296L133.056 76.6743L104.034 93.4296L133.056 110.185L162.078 93.4296Z" fill="#D0665F"/>
<path opacity="0.55" d="M162.078 93.4296L133.056 76.6743L104.034 93.4296L133.056 110.185L162.078 93.4296Z" fill="black"/>
<path d="M140.29 83.3185C140.29 82.2493 139.586 81.18 138.173 80.366C135.348 78.7335 130.764 78.7335 127.939 80.366C126.526 81.18 125.822 82.2493 125.822 83.3185V86.1742C125.822 87.2435 126.526 88.3125 127.939 89.1265C130.764 90.759 135.344 90.759 138.173 89.1265C139.586 88.3125 140.29 87.2435 140.29 86.1742V83.3185Z" fill="#D0665F"/>
<path opacity="0.3" d="M138.16 80.366C139.572 81.18 140.276 82.2493 140.276 83.3185V86.1742C140.276 87.2435 139.572 88.3125 138.16 89.1265C136.586 89.9629 134.825 90.3839 133.043 90.3498V79.143C134.825 79.1065 136.587 79.5276 138.16 80.366Z" fill="black"/>
<path opacity="0.4" d="M127.939 80.366C126.526 81.18 125.822 82.2493 125.822 83.3185V86.1742C125.822 87.2435 126.526 88.3125 127.939 89.1265C129.513 89.9629 131.274 90.3839 133.056 90.3497V79.143C131.274 79.1065 129.512 79.5276 127.939 80.366Z" fill="black"/>
<path d="M127.939 80.366C125.114 81.994 125.114 84.6385 127.939 86.2708C130.764 87.9032 135.344 87.9032 138.173 86.2708C141.002 84.6385 140.998 81.994 138.173 80.366C135.348 78.738 130.764 78.7335 127.939 80.366Z" fill="#D0665F"/>
<path opacity="0.3" d="M127.939 80.366C125.114 81.994 125.114 84.6385 127.939 86.2708C130.764 87.9032 135.344 87.9032 138.173 86.2708C141.002 84.6385 140.998 81.994 138.173 80.366C135.348 78.738 130.764 78.7335 127.939 80.366Z" fill="white"/>
<path d="M140.29 99.6645C140.29 98.5953 139.586 97.526 138.173 96.7075C135.348 95.0797 130.764 95.0797 127.939 96.7075C126.526 97.526 125.822 98.5953 125.822 99.66V102.52C125.822 103.589 126.526 104.658 127.939 105.477C130.764 107.105 135.344 107.105 138.173 105.477C139.586 104.658 140.29 103.589 140.29 102.52V99.6645Z" fill="#D0665F"/>
<path opacity="0.3" d="M138.16 96.7075C139.572 97.526 140.276 98.5952 140.276 99.66V102.52C140.276 103.589 139.572 104.658 138.16 105.477C136.586 106.313 134.825 106.734 133.043 106.7V95.48C134.825 95.4472 136.586 95.8697 138.16 96.7075Z" fill="black"/>
<path opacity="0.4" d="M127.939 96.7076C126.526 97.526 125.822 98.5953 125.822 99.66V102.52C125.822 103.589 126.526 104.658 127.939 105.477C129.513 106.313 131.274 106.734 133.056 106.7V95.48C131.273 95.4473 129.512 95.8698 127.939 96.7076Z" fill="black"/>
<path d="M127.939 96.7075C125.114 98.34 125.114 100.984 127.939 102.617C130.764 104.249 135.344 104.249 138.173 102.617C141.002 100.984 140.998 98.34 138.173 96.7075C135.348 95.075 130.764 95.0797 127.939 96.7075Z" fill="#D0665F"/>
<path opacity="0.3" d="M127.939 96.7075C125.114 98.34 125.114 100.984 127.939 102.617C130.764 104.249 135.344 104.249 138.173 102.617C141.002 100.984 140.998 98.34 138.173 96.7075C135.348 95.075 130.764 95.0797 127.939 96.7075Z" fill="white"/>
<path d="M126.139 91.4848C126.139 90.4155 125.435 89.3463 124.023 88.5323C121.198 86.8998 116.618 86.8998 113.788 88.5323C112.376 89.3463 111.672 90.4155 111.672 91.4848V94.3405C111.672 95.4095 112.376 96.4788 113.788 97.2928C116.613 98.9252 121.198 98.9252 124.023 97.2928C125.435 96.4788 126.139 95.4095 126.139 94.3405V91.4848Z" fill="#D0665F"/>
<path opacity="0.3" d="M124.023 88.5323C125.435 89.3463 126.139 90.4155 126.139 91.4848V94.3405C126.139 95.4095 125.435 96.4788 124.023 97.2928C122.45 98.1312 120.688 98.5524 118.906 98.516V87.309C120.688 87.2749 122.449 87.696 124.023 88.5323Z" fill="black"/>
<path opacity="0.4" d="M113.788 88.5323C112.376 89.3463 111.672 90.4155 111.672 91.4848V94.3405C111.672 95.4095 112.376 96.4788 113.788 97.2928C115.362 98.1313 117.123 98.5524 118.906 98.516V87.309C117.124 87.2749 115.362 87.696 113.788 88.5323Z" fill="black"/>
<path d="M113.788 88.5323C110.964 90.1648 110.964 92.8091 113.788 94.4415C116.613 96.074 121.198 96.0695 124.023 94.4415C126.848 92.8137 126.848 90.1648 124.023 88.5323C121.198 86.9002 116.6 86.9 113.788 88.5323Z" fill="#D0665F"/>
<path opacity="0.3" d="M113.788 88.5323C110.964 90.1648 110.964 92.8091 113.788 94.4415C116.613 96.074 121.198 96.0695 124.023 94.4415C126.848 92.8137 126.848 90.1648 124.023 88.5323C121.198 86.9002 116.6 86.9 113.788 88.5323Z" fill="white"/>
<path d="M154.44 91.4892C154.44 90.4243 153.736 89.3553 152.319 88.5368C149.494 86.9045 144.914 86.9045 142.089 88.5368C140.677 89.3555 139.973 90.42 139.973 91.4892V94.345C139.973 95.414 140.677 96.4832 142.089 97.2972C144.914 98.9297 149.494 98.9297 152.319 97.2972C153.736 96.4832 154.44 95.4142 154.44 94.345V91.4892Z" fill="#D0665F"/>
<path opacity="0.3" d="M152.319 88.537C153.732 89.3554 154.44 90.42 154.44 91.4892V94.345C154.44 95.4142 153.732 96.4832 152.319 97.2972C150.748 98.1357 148.987 98.5569 147.206 98.5205V87.3137C148.987 87.2793 150.747 87.7003 152.319 88.537Z" fill="black"/>
<path opacity="0.4" d="M142.089 88.5369C140.677 89.3554 139.973 90.42 139.973 91.4892V94.345C139.973 95.4142 140.677 96.4832 142.089 97.2972C143.662 98.1357 145.424 98.5569 147.206 98.5205V87.3137C145.424 87.2794 143.663 87.7004 142.089 88.5369Z" fill="black"/>
<path d="M142.089 88.537C139.264 90.1693 139.264 92.8137 142.089 94.446C144.914 96.0785 149.494 96.074 152.319 94.446C155.144 92.8182 155.148 90.1693 152.319 88.537C149.49 86.9045 144.914 86.9045 142.089 88.537Z" fill="#D0665F"/>
<path opacity="0.3" d="M142.089 88.537C139.264 90.1693 139.264 92.8137 142.089 94.446C144.914 96.0785 149.494 96.074 152.319 94.446C155.144 92.8182 155.148 90.1693 152.319 88.537C149.49 86.9045 144.914 86.9045 142.089 88.537Z" fill="white"/>
<path d="M131.529 147.62L102.507 164.379V146.74L131.529 129.985V147.62Z" fill="#D0665F"/>
<path opacity="0.3" d="M131.529 147.62L102.507 164.379V146.74L131.529 129.985V147.62Z" fill="black"/>
<path d="M73.4843 147.62L102.507 164.379V146.74L73.4843 129.985V147.62Z" fill="#D0665F"/>
<path opacity="0.4" d="M73.4843 147.62L102.507 164.379V146.74L73.4843 129.985V147.62Z" fill="black"/>
<path d="M131.529 129.985L102.507 113.23L73.4843 129.985L102.507 146.74L131.529 129.985Z" fill="#D0665F"/>
<path opacity="0.55" d="M131.529 129.985L102.507 113.23L73.4843 129.985L102.507 146.74L131.529 129.985Z" fill="black"/>
<path d="M109.74 119.874C109.74 118.805 109.036 117.735 107.624 116.921C104.799 115.289 100.219 115.289 97.3897 116.921C95.9772 117.735 95.2732 118.805 95.2732 119.874V122.729C95.2732 123.799 95.9772 124.868 97.3897 125.682C100.214 127.314 104.799 127.314 107.624 125.682C109.036 124.868 109.74 123.799 109.74 122.729V119.874Z" fill="#D0665F"/>
<path opacity="0.3" d="M107.624 116.921C109.036 117.735 109.74 118.805 109.74 119.874V122.729C109.74 123.799 109.036 124.868 107.624 125.682C106.054 126.516 104.297 126.937 102.52 126.905V115.72C104.296 115.679 106.053 116.093 107.624 116.921Z" fill="black"/>
<path opacity="0.4" d="M97.3897 116.921C95.9772 117.735 95.2732 118.805 95.2732 119.874V122.729C95.2732 123.799 95.9772 124.868 97.3897 125.682C98.9675 126.52 100.734 126.941 102.52 126.905V115.72C100.735 115.675 98.9688 116.088 97.3897 116.921Z" fill="black"/>
<path d="M97.3897 116.921C94.5649 118.549 94.5649 121.194 97.3897 122.826C100.214 124.458 104.799 124.459 107.624 122.826C110.449 121.194 110.449 118.549 107.624 116.921C104.799 115.293 100.219 115.28 97.3897 116.921Z" fill="#D0665F"/>
<path opacity="0.3" d="M97.3897 116.921C94.5649 118.549 94.5649 121.194 97.3897 122.826C100.214 124.458 104.799 124.459 107.624 122.826C110.449 121.194 110.449 118.549 107.624 116.921C104.799 115.293 100.219 115.28 97.3897 116.921Z" fill="white"/>
<path d="M109.74 136.215C109.74 135.15 109.036 134.081 107.624 133.263C104.799 131.63 100.219 131.63 97.3897 133.263C95.9772 134.081 95.2732 135.146 95.2732 136.215V139.071C95.2732 140.14 95.9772 141.209 97.3897 142.023C100.214 143.656 104.799 143.656 107.624 142.023C109.036 141.209 109.74 140.14 109.74 139.071V136.215Z" fill="#D0665F"/>
<path opacity="0.3" d="M107.624 133.263C109.036 134.081 109.74 135.146 109.74 136.215V139.071C109.74 140.14 109.036 141.209 107.624 142.023C106.055 142.861 104.298 143.283 102.52 143.251V132.04C104.297 132.008 106.054 132.429 107.624 133.263Z" fill="black"/>
<path opacity="0.4" d="M97.3897 133.263C95.9772 134.081 95.2732 135.146 95.2732 136.215V139.071C95.2732 140.14 95.9772 141.209 97.3897 142.023C98.9664 142.865 100.733 143.288 102.52 143.251V132.04C100.734 132.003 98.9676 132.424 97.3897 133.263Z" fill="black"/>
<path d="M97.3897 133.263C94.5649 134.895 94.5649 137.54 97.3897 139.172C100.214 140.804 104.799 140.8 107.624 139.172C110.449 137.544 110.449 134.895 107.624 133.263C104.799 131.63 100.219 131.63 97.3897 133.263Z" fill="#D0665F"/>
<path opacity="0.3" d="M97.3897 133.263C94.5649 134.895 94.5649 137.54 97.3897 139.172C100.214 140.804 104.799 140.8 107.624 139.172C110.449 137.544 110.449 134.895 107.624 133.263C104.799 131.63 100.219 131.63 97.3897 133.263Z" fill="white"/>
<path d="M95.5899 128.04C95.5899 126.971 94.8859 125.902 93.4734 125.088C90.6487 123.455 86.0682 123.455 83.2392 125.088C81.8267 125.902 81.1227 126.971 81.1227 128.04V130.896C81.1227 131.965 81.8267 133.034 83.2392 133.848C86.0639 135.481 90.6487 135.481 93.4734 133.848C94.8859 133.034 95.5899 131.965 95.5899 130.896V128.04Z" fill="#D0665F"/>
<path opacity="0.3" d="M93.4735 125.088C94.886 125.902 95.59 126.971 95.59 128.04V130.896C95.59 131.965 94.886 133.034 93.4735 133.848C91.9012 134.689 90.1394 135.114 88.3564 135.08V123.864C90.1384 123.83 91.8996 124.251 93.4735 125.088Z" fill="black"/>
<path opacity="0.4" d="M83.2392 125.088C81.8267 125.902 81.1227 126.971 81.1227 128.04V130.896C81.1227 131.965 81.8267 133.034 83.2392 133.848C84.8115 134.69 86.5734 135.114 88.3564 135.08V123.864C86.5744 123.831 84.8133 124.252 83.2392 125.088Z" fill="black"/>
<path d="M83.2392 125.087C80.4144 126.72 80.4144 129.364 83.2392 130.992C86.0639 132.62 90.6487 132.625 93.4735 130.992C96.2982 129.36 96.2982 126.72 93.4735 125.087C90.6487 123.455 86.0684 123.455 83.2392 125.087Z" fill="#D0665F"/>
<path opacity="0.3" d="M83.2392 125.087C80.4144 126.72 80.4144 129.364 83.2392 130.992C86.0639 132.62 90.6487 132.625 93.4735 130.992C96.2982 129.36 96.2982 126.72 93.4735 125.087C90.6487 123.455 86.0684 123.455 83.2392 125.087Z" fill="white"/>
<path d="M123.891 128.04C123.891 126.971 123.187 125.906 121.77 125.088C118.945 123.455 114.365 123.455 111.54 125.088C110.127 125.902 109.423 126.971 109.423 128.04V130.896C109.423 131.965 110.128 133.034 111.54 133.848C114.365 135.481 118.945 135.481 121.77 133.848C123.187 133.034 123.891 131.965 123.891 130.896V128.04Z" fill="#D0665F"/>
<path opacity="0.3" d="M121.77 125.092C123.182 125.906 123.891 126.975 123.891 128.044V130.9C123.891 131.969 123.187 133.038 121.774 133.852C120.201 134.692 118.44 135.114 116.657 135.08V123.869C118.438 123.835 120.198 124.256 121.77 125.092Z" fill="black"/>
<path opacity="0.4" d="M111.54 125.092C110.127 125.906 109.423 126.975 109.423 128.044V130.9C109.423 131.969 110.128 133.038 111.54 133.852C113.113 134.692 114.875 135.115 116.657 135.08V123.869C114.875 123.835 113.114 124.256 111.54 125.092Z" fill="black"/>
<path d="M111.54 125.092C108.715 126.725 108.715 129.369 111.54 131.001C114.365 132.634 118.945 132.629 121.77 131.001C124.595 129.373 124.599 126.725 121.77 125.092C118.941 123.46 114.365 123.46 111.54 125.092Z" fill="#D0665F"/>
<path opacity="0.3" d="M111.54 125.092C108.715 126.725 108.715 129.369 111.54 131.001C114.365 132.634 118.945 132.629 121.77 131.001C124.595 129.373 124.599 126.725 121.77 125.092C118.941 123.46 114.365 123.46 111.54 125.092Z" fill="white"/>
<path d="M131.529 128.704L102.507 145.46V127.825L131.529 111.069V128.704Z" fill="#D0665F"/>
<path opacity="0.1" d="M131.529 128.704L102.507 145.46V127.825L131.529 111.069V128.704Z" fill="black"/>
<path d="M73.4843 128.704L102.507 145.46V127.825L73.4843 111.069V128.704Z" fill="#D0665F"/>
<path opacity="0.2" d="M73.4843 128.704L102.507 145.46V127.825L73.4843 111.069V128.704Z" fill="black"/>
<path d="M131.529 111.069L102.507 94.3098L73.4843 111.069L102.507 127.825L131.529 111.069Z" fill="#D0665F"/>
<path d="M109.74 100.954C109.74 99.8845 109.036 98.8196 107.624 98.0013C104.799 96.3688 100.219 96.3688 97.3897 98.0013C95.9772 98.8198 95.2732 99.8845 95.2732 100.954V103.809C95.2732 104.879 95.9772 105.948 97.3897 106.762C100.214 108.394 104.799 108.394 107.624 106.762C109.036 105.948 109.74 104.879 109.74 103.809V100.954Z" fill="#D0665F"/>
<path opacity="0.1" d="M107.624 98.0012C109.036 98.8197 109.74 99.8845 109.74 100.954V103.809C109.74 104.878 109.036 105.948 107.624 106.762C106.055 107.598 104.298 108.019 102.52 107.985V96.8C104.296 96.7612 106.052 97.1746 107.624 98.0012Z" fill="black"/>
<path opacity="0.2" d="M97.3897 98.0012C95.9772 98.8197 95.2732 99.8845 95.2732 100.954V103.809C95.2732 104.878 95.9772 105.948 97.3897 106.762C98.9668 107.602 100.733 108.024 102.52 107.985V96.8C100.736 96.7568 98.9696 97.1703 97.3897 98.0012Z" fill="black"/>
<path d="M97.3897 98.0013C94.5649 99.6337 94.5649 102.278 97.3897 103.911C100.214 105.543 104.799 105.539 107.624 103.911C110.449 102.283 110.449 99.6337 107.624 98.0013C104.799 96.3688 100.219 96.36 97.3897 98.0013Z" fill="#D0665F"/>
<path opacity="0.3" d="M97.3897 98.0013C94.5649 99.6337 94.5649 102.278 97.3897 103.911C100.214 105.543 104.799 105.539 107.624 103.911C110.449 102.283 110.449 99.6337 107.624 98.0013C104.799 96.3688 100.219 96.36 97.3897 98.0013Z" fill="white"/>
<path d="M109.74 117.3C109.74 116.231 109.036 115.161 107.624 114.347C104.799 112.715 100.219 112.715 97.3897 114.347C95.9772 115.161 95.2732 116.231 95.2732 117.3V120.155C95.2732 121.225 95.9772 122.294 97.3897 123.108C100.214 124.74 104.799 124.74 107.624 123.108C109.036 122.294 109.74 121.225 109.74 120.155V117.3Z" fill="#D0665F"/>
<path opacity="0.1" d="M107.624 114.347C109.036 115.161 109.74 116.23 109.74 117.3V120.155C109.74 121.224 109.036 122.294 107.624 123.108C106.054 123.942 104.297 124.363 102.52 124.331V113.124C104.298 113.09 106.055 113.511 107.624 114.347Z" fill="black"/>
<path opacity="0.2" d="M97.3897 114.347C95.9772 115.161 95.2732 116.231 95.2732 117.3V120.155C95.2732 121.225 95.9772 122.294 97.3897 123.108C98.9675 123.946 100.734 124.367 102.52 124.331V113.124C100.733 113.085 98.9667 113.507 97.3897 114.347Z" fill="black"/>
<path d="M97.3897 114.347C94.5649 115.98 94.5649 118.624 97.3897 120.252C100.214 121.88 104.799 121.885 107.624 120.252C110.449 118.62 110.449 115.98 107.624 114.347C104.799 112.715 100.219 112.715 97.3897 114.347Z" fill="#D0665F"/>
<path opacity="0.3" d="M97.3897 114.347C94.5649 115.98 94.5649 118.624 97.3897 120.252C100.214 121.88 104.799 121.885 107.624 120.252C110.449 118.62 110.449 115.98 107.624 114.347C104.799 112.715 100.219 112.715 97.3897 114.347Z" fill="white"/>
<path d="M95.5899 109.12C95.5899 108.051 94.8859 106.982 93.4734 106.168C90.6487 104.535 86.0682 104.535 83.2392 106.168C81.8267 106.982 81.1227 108.051 81.1227 109.12V111.976C81.1227 113.045 81.8267 114.11 83.2392 114.928C86.0639 116.556 90.6487 116.561 93.4734 114.928C94.8859 114.11 95.5899 113.04 95.5899 111.976V109.12Z" fill="#D0665F"/>
<path opacity="0.1" d="M93.4735 106.172C94.886 106.986 95.59 108.055 95.59 109.124V111.98C95.59 113.049 94.886 114.114 93.4735 114.932C91.9 115.77 90.1388 116.193 88.3564 116.16V104.944C90.139 104.91 91.9007 105.332 93.4735 106.172Z" fill="black"/>
<path opacity="0.2" d="M83.2392 106.172C81.8267 106.986 81.1227 108.055 81.1227 109.125V111.98C81.1227 113.049 81.8267 114.114 83.2392 114.933C84.8127 115.77 86.574 116.193 88.3564 116.16V104.944C86.5738 104.91 84.8121 105.333 83.2392 106.172Z" fill="black"/>
<path d="M83.2392 106.172C80.4144 107.8 80.4144 110.445 83.2392 112.077C86.0639 113.709 90.6487 113.709 93.4735 112.077C96.2982 110.444 96.2982 107.8 93.4735 106.172C90.6487 104.544 86.0684 104.54 83.2392 106.172Z" fill="#D0665F"/>
<path opacity="0.3" d="M83.2392 106.172C80.4144 107.8 80.4144 110.445 83.2392 112.077C86.0639 113.709 90.6487 113.709 93.4735 112.077C96.2982 110.444 96.2982 107.8 93.4735 106.172C90.6487 104.544 86.0684 104.54 83.2392 106.172Z" fill="white"/>
<path d="M123.891 109.12C123.891 108.051 123.187 106.982 121.77 106.168C118.945 104.535 114.365 104.535 111.54 106.168C110.127 106.982 109.423 108.051 109.423 109.12V111.976C109.423 113.045 110.128 114.114 111.54 114.928C114.365 116.561 118.945 116.561 121.77 114.928C123.187 114.114 123.891 113.045 123.891 111.976V109.12Z" fill="#D0665F"/>
<path opacity="0.1" d="M121.77 106.176C123.182 106.99 123.891 108.06 123.891 109.129V111.984C123.891 113.054 123.187 114.123 121.774 114.937C120.2 115.773 118.439 116.194 116.657 116.16V104.953C118.438 104.917 120.198 105.338 121.77 106.176Z" fill="black"/>
<path opacity="0.2" d="M111.54 106.176C110.127 106.99 109.423 108.06 109.423 109.129V111.984C109.423 113.054 110.128 114.123 111.54 114.937C113.114 115.773 114.875 116.194 116.657 116.16V104.953C114.875 104.917 113.113 105.338 111.54 106.176Z" fill="black"/>
<path d="M111.54 106.176C108.715 107.804 108.715 110.449 111.54 112.081C114.365 113.713 118.945 113.714 121.77 112.081C124.595 110.449 124.599 107.804 121.77 106.176C118.941 104.548 114.365 104.544 111.54 106.176Z" fill="#D0665F"/>
<path opacity="0.3" d="M111.54 106.176C108.715 107.804 108.715 110.449 111.54 112.081C114.365 113.713 118.945 113.714 121.77 112.081C124.595 110.449 124.599 107.804 121.77 106.176C118.941 104.548 114.365 104.544 111.54 106.176Z" fill="white"/>
<path d="M100.98 165.26L71.9575 182.015V164.38L100.98 147.62V165.26Z" fill="#19283D"/>
<path d="M42.9352 165.26L71.9575 182.015V164.38L42.9352 147.62V165.26Z" fill="#263238"/>
<path d="M100.98 147.62L71.9575 130.865L42.9352 147.62L71.9575 164.379L100.98 147.62Z" fill="#263E5E"/>
<path d="M77.0748 150.92C78.4872 151.734 79.1912 152.803 79.1912 153.872V156.728C79.1912 157.797 78.4872 158.866 77.0748 159.68C75.5008 160.517 73.7395 160.938 71.9575 160.904V149.679C73.7413 149.648 75.5032 150.075 77.0748 150.92Z" fill="#19283D"/>
<path d="M66.8405 150.92C65.428 151.734 64.724 152.803 64.724 153.872V156.728C64.724 157.797 65.428 158.866 66.8405 159.68C68.4144 160.517 70.1756 160.938 71.9575 160.904V149.679C70.1738 149.648 68.4119 150.075 66.8405 150.92Z" fill="#263238"/>
<path d="M66.8405 150.92C64.0157 152.548 64.0157 155.197 66.8405 156.825C69.6653 158.453 74.25 158.457 77.0748 156.825C79.8995 155.192 79.8995 152.552 77.0748 150.92C74.25 149.288 69.6697 149.27 66.8405 150.92Z" fill="#263E5E"/>
<path opacity="0.07" d="M66.8405 150.92C64.0157 152.548 64.0157 155.197 66.8405 156.825C69.6653 158.453 74.25 158.457 77.0748 156.825C79.8995 155.192 79.8995 152.552 77.0748 150.92C74.25 149.288 69.6697 149.27 66.8405 150.92Z" fill="white"/>
<path d="M77.0748 134.556C78.4872 135.37 79.1912 136.44 79.1912 137.509V140.36C79.1912 141.429 78.4872 142.498 77.0748 143.312C75.5016 144.151 73.7398 144.572 71.9575 144.536V133.32C73.7407 133.29 75.5021 133.715 77.0748 134.556Z" fill="#19283D"/>
<path d="M66.8405 134.556C65.428 135.37 64.724 136.44 64.724 137.509V140.36C64.724 141.429 65.428 142.498 66.8405 143.312C68.4135 144.151 70.1753 144.572 71.9575 144.536V133.32C70.1744 133.29 68.4131 133.715 66.8405 134.556Z" fill="#263238"/>
<path d="M66.8405 134.557C64.0157 136.189 64.0157 138.833 66.8405 140.466C69.6653 142.098 74.25 142.094 77.0748 140.466C79.8995 138.838 79.8995 136.189 77.0748 134.557C74.25 132.924 69.6697 132.924 66.8405 134.557Z" fill="#263E5E"/>
<path opacity="0.07" d="M66.8405 134.557C64.0157 136.189 64.0157 138.833 66.8405 140.466C69.6653 142.098 74.25 142.094 77.0748 140.466C79.8995 138.838 79.8995 136.189 77.0748 134.557C74.25 132.924 69.6697 132.924 66.8405 134.557Z" fill="white"/>
<path d="M91.2209 142.732C92.6334 143.546 93.3416 144.615 93.3416 145.684V148.54C93.3416 149.609 92.6376 150.678 91.2252 151.492C89.651 152.328 87.8899 152.749 86.1079 152.715V141.508C87.8888 141.472 89.6493 141.893 91.2209 142.732Z" fill="#19283D"/>
<path d="M80.9908 142.732C79.5783 143.546 78.8743 144.615 78.8743 145.684V148.54C78.8743 149.609 79.5783 150.678 80.9908 151.492C82.5647 152.328 84.326 152.749 86.108 152.715V141.508C84.3257 141.472 82.5639 141.893 80.9908 142.732Z" fill="#263238"/>
<path d="M80.9908 142.732C78.166 144.36 78.166 147.004 80.9908 148.636C83.8155 150.269 88.3962 150.269 91.221 148.636C94.0457 147.004 94.0502 144.36 91.221 142.732C88.3917 141.104 83.8155 141.099 80.9908 142.732Z" fill="#263E5E"/>
<path opacity="0.07" d="M80.9908 142.732C78.166 144.36 78.166 147.004 80.9908 148.636C83.8155 150.269 88.3962 150.269 91.221 148.636C94.0457 147.004 94.0502 144.36 91.221 142.732C88.3917 141.104 83.8155 141.099 80.9908 142.732Z" fill="white"/>
<path d="M62.92 142.723C64.3325 143.541 65.0365 144.611 65.0365 145.68V148.535C65.0365 149.6 64.3325 150.669 62.92 151.488C61.3461 152.324 59.5848 152.745 57.8027 152.711V141.5C59.5848 141.465 61.3461 141.886 62.92 142.723Z" fill="#19283D"/>
<path d="M52.69 142.723C51.2775 143.541 50.5735 144.611 50.5735 145.68V148.535C50.5735 149.6 51.2775 150.669 52.69 151.488C54.2639 152.324 56.0252 152.745 57.8072 152.711V141.5C56.0252 141.466 54.2641 141.887 52.69 142.723Z" fill="#263238"/>
<path d="M52.69 142.723C49.8652 144.355 49.8652 147 52.69 148.632C55.5147 150.264 60.0995 150.264 62.9243 148.632C65.749 147 65.749 144.355 62.9243 142.727C60.0995 141.099 55.5192 141.095 52.69 142.723Z" fill="#263E5E"/>
<path opacity="0.07" d="M52.69 142.723C49.8652 144.355 49.8652 147 52.69 148.632C55.5147 150.264 60.0995 150.264 62.9243 148.632C65.749 147 65.749 144.355 62.9243 142.727C60.0995 141.099 55.5192 141.095 52.69 142.723Z" fill="white"/>
<path d="M162.078 92.1538L133.056 108.913V91.2736L162.078 74.5183V92.1538Z" fill="#19283D"/>
<path d="M104.034 92.1538L133.056 108.913V91.2736L104.034 74.5183V92.1538Z" fill="#263238"/>
<path d="M162.078 74.5183L133.056 57.7632L104.034 74.5183L133.056 91.2735L162.078 74.5183Z" fill="#263E5E"/>
<path d="M138.16 77.7965C139.572 78.615 140.276 79.684 140.276 80.749V83.6C140.276 84.6693 139.572 85.7385 138.16 86.5568C136.586 87.3932 134.825 87.8142 133.043 87.78V76.56C134.826 76.5298 136.587 76.9554 138.16 77.7965Z" fill="#19283D"/>
<path d="M127.939 77.7965C126.526 78.615 125.822 79.684 125.822 80.749V83.6C125.822 84.6693 126.526 85.7385 127.939 86.5568C129.513 87.3932 131.274 87.8142 133.056 87.78V76.56C131.273 76.5299 129.511 76.9555 127.939 77.7965Z" fill="#263238"/>
<path d="M127.939 77.7965C125.114 79.429 125.114 82.0732 127.939 83.7057C130.764 85.3382 135.344 85.3337 138.173 83.7057C141.002 82.0777 140.998 79.429 138.173 77.7965C135.348 76.164 130.764 76.1683 127.939 77.7965Z" fill="#263E5E"/>
<path opacity="0.07" d="M127.939 77.7965C125.114 79.429 125.114 82.0732 127.939 83.7057C130.764 85.3382 135.344 85.3337 138.173 83.7057C141.002 82.0777 140.998 79.429 138.173 77.7965C135.348 76.164 130.764 76.1683 127.939 77.7965Z" fill="white"/>
<path d="M138.16 61.4548C139.572 62.2688 140.276 63.338 140.276 64.4073V67.263C140.276 68.3322 139.572 69.4015 138.16 70.2155C136.586 71.0519 134.825 71.4729 133.043 71.4387V60.2319C134.825 60.1953 136.587 60.6163 138.16 61.4548Z" fill="#19283D"/>
<path d="M127.939 61.4548C126.526 62.2688 125.822 63.338 125.822 64.4073V67.263C125.822 68.3322 126.526 69.4015 127.939 70.2155C129.513 71.0519 131.274 71.4729 133.056 71.4387V60.2319C131.274 60.1953 129.512 60.6163 127.939 61.4548Z" fill="#263238"/>
<path d="M127.939 61.4548C125.114 63.0828 125.114 65.7273 127.939 67.3596C130.764 68.9918 135.344 68.9921 138.173 67.3596C141.002 65.7271 140.998 63.0828 138.173 61.4548C135.348 59.8268 130.764 59.8401 127.939 61.4548Z" fill="#263E5E"/>
<path opacity="0.07" d="M127.939 61.4548C125.114 63.0828 125.114 65.7273 127.939 67.3596C130.764 68.9918 135.344 68.9921 138.173 67.3596C141.002 65.7271 140.998 63.0828 138.173 61.4548C135.348 59.8268 130.764 59.8401 127.939 61.4548Z" fill="white"/>
<path d="M152.319 69.6256C153.732 70.444 154.44 71.5088 154.44 72.578V75.4338C154.44 76.503 153.732 77.5722 152.319 78.3862C150.748 79.2247 148.987 79.6458 147.206 79.6093V68.4025C148.987 68.3681 150.747 68.7891 152.319 69.6256Z" fill="#19283D"/>
<path d="M142.089 69.6255C140.677 70.444 139.973 71.5088 139.973 72.578V75.4338C139.973 76.503 140.677 77.5722 142.089 78.3862C143.662 79.2246 145.424 79.6457 147.206 79.6093V68.4025C145.424 68.3682 143.663 68.7892 142.089 69.6255Z" fill="#263238"/>
<path d="M142.089 69.6255C139.264 71.258 139.264 73.9023 142.089 75.5348C144.914 77.1672 149.494 77.1628 152.319 75.5348C155.144 73.9068 155.148 71.258 152.319 69.6255C149.49 67.9932 144.914 67.9932 142.089 69.6255Z" fill="#263E5E"/>
<path opacity="0.07" d="M142.089 69.6255C139.264 71.258 139.264 73.9023 142.089 75.5348C144.914 77.1672 149.494 77.1628 152.319 75.5348C155.144 73.9068 155.148 71.258 152.319 69.6255C149.49 67.9932 144.914 67.9932 142.089 69.6255Z" fill="white"/>
<path d="M124.023 69.6213C125.435 70.4353 126.139 71.5045 126.139 72.5738V75.4295C126.139 76.4987 125.435 77.568 124.023 78.3818C122.45 79.2202 120.688 79.6414 118.906 79.605V68.3982C120.688 68.3639 122.449 68.7848 124.023 69.6213Z" fill="#19283D"/>
<path d="M113.788 69.6212C112.376 70.4352 111.672 71.5045 111.672 72.5737V75.4294C111.672 76.4987 112.376 77.5679 113.788 78.3817C115.362 79.2202 117.123 79.6414 118.906 79.6049V68.3982C117.124 68.3638 115.362 68.7848 113.788 69.6212Z" fill="#263238"/>
<path d="M113.788 69.6212C110.964 71.2537 110.964 73.898 113.788 75.526C116.613 77.154 121.198 77.1583 124.023 75.526C126.848 73.8935 126.848 71.249 124.023 69.6168C121.198 67.9845 116.6 67.9888 113.788 69.6212Z" fill="#263E5E"/>
<path opacity="0.07" d="M113.788 69.6212C110.964 71.2537 110.964 73.898 113.788 75.526C116.613 77.154 121.198 77.1583 124.023 75.526C126.848 73.8935 126.848 71.249 124.023 69.6168C121.198 67.9845 116.6 67.9888 113.788 69.6212Z" fill="white"/>
<path d="M152.214 36.6213L154.854 38.1437C154.84 38.0283 154.832 37.9122 154.832 37.796V37.0305C154.832 35.671 155.786 35.1165 156.966 35.7985C157.474 36.1098 157.909 36.5269 158.242 37.0215C158.435 35.31 159.777 34.672 161.41 35.6135C162.338 36.2204 163.111 37.0373 163.665 37.9981C164.219 38.9589 164.539 40.0367 164.6 41.1443V42.2883C164.61 42.7428 164.518 43.1938 164.331 43.6083L166.531 44.8755C166.876 45.1 167.163 45.4027 167.369 45.759C167.575 46.1153 167.693 46.5152 167.715 46.926C167.715 47.6783 167.183 47.9863 166.531 47.608L152.214 39.3535C151.868 39.1296 151.581 38.827 151.375 38.4707C151.169 38.1143 151.051 37.7142 151.03 37.3033C151.03 36.5508 151.558 36.2428 152.214 36.6213Z" fill="#E9F2FC"/>
<path d="M169.673 29.6077L171.129 30.1665V26.9588C171.129 24.4113 173.157 23.804 175.362 25.0755C177.562 26.3471 179.348 29.4403 179.348 31.9835V32.45C179.658 32.3539 179.986 32.3297 180.307 32.3793C180.628 32.4288 180.934 32.5508 181.201 32.736C182.036 33.281 182.731 34.0152 183.229 34.8791C183.728 35.7429 184.015 36.7121 184.069 37.708V37.9193L186.12 39.094C186.67 39.4526 187.128 39.9359 187.457 40.5046C187.786 41.0734 187.976 41.7116 188.012 42.3675C188.012 43.5731 187.162 44.0615 186.12 43.4588L169.673 33.9723C169.122 33.6143 168.663 33.1311 168.334 32.5623C168.005 31.9934 167.816 31.3549 167.781 30.6988C167.781 29.48 168.626 29.0048 169.673 29.6077Z" fill="#E9F2FC"/>
<path d="M46.1999 30.3863H44.4134C39.5971 30.3936 35.6868 26.4951 35.6794 21.6788V21.6655C35.677 16.6475 39.7429 12.5775 44.7612 12.5753H45.8259C50.8448 12.5777 54.9119 16.6469 54.9119 21.6655C54.9119 26.4784 51.0128 30.3816 46.1999 30.3863Z" fill="#2B3049"/>
<path d="M34.4784 26.6245C35.9919 25.1725 37.7564 26.0042 39.3184 27.6233C40.8804 29.2423 41.6329 31.042 40.1192 32.494C38.6057 33.946 36.1197 33.814 34.5619 32.1903C33.0042 30.5668 32.9647 28.0765 34.4784 26.6245Z" fill="#2B3049"/>
<path d="M55.5764 39.4593C57.6839 43.0277 60.2272 47.3485 61.6529 48.8355C64.3589 50.094 70.5452 52.448 73.0312 52.7955C73.4696 52.8491 73.9127 52.7446 74.2809 52.5008C75.2577 51.8583 76.0146 51.7573 77.0484 51.4008C77.8537 51.1193 78.1969 50.7363 78.3684 50.8815C78.5235 51.0644 78.6011 51.3005 78.5846 51.5397C78.5681 51.7789 78.4589 52.0022 78.2802 52.162C77.894 52.5295 77.4657 52.85 77.0042 53.117C78.1076 53.3892 79.2582 53.4088 80.3702 53.1742C82.5262 52.611 83.5425 53.645 82.0862 55.9815C81.5627 56.8217 79.5122 58.1595 75.3499 57.7987C73.8667 57.7138 72.39 57.5389 70.9279 57.275C66.937 56.4259 62.6735 55.1807 59.9279 54.3622C58.9177 53.9633 58.014 53.3352 57.2879 52.5275C52.6987 47.2957 50.4459 42.6627 48.4352 39.2747L48.6067 33.7395C51.8495 33.616 53.8119 36.4715 55.5764 39.4593Z" fill="#FFA8A7"/>
<path d="M33.9547 122.408C33.7403 123.606 33.6255 124.821 33.6114 126.038C33.5674 128.238 33.1714 129.021 33.1099 130.83C33.0484 132.893 33.4047 133.668 34.2452 134.829C35.0856 135.991 37.2812 137.029 38.2052 135.08C39.1292 133.131 39.0149 131.833 38.7199 129.8C38.425 127.767 38.3722 126.548 38.1964 124.96C38.0379 123.552 37.8487 122.483 37.8487 122.483L33.9547 122.408Z" fill="#263238"/>
<path d="M40.2071 105.09L32.9514 104.958C33.0614 109.798 33.8314 117.863 33.9547 122.408C33.9547 123.266 33.9547 129.057 34.2584 130.817C34.7424 133.457 37.8796 133.105 38.0469 131.521C38.2141 129.937 37.8399 123.2 37.8399 122.479C37.8136 119.566 39.1599 111.958 39.8947 106.727C39.9431 106.48 40.1719 105.341 40.2071 105.09Z" fill="#FFA8A7"/>
<path d="M50.8684 118.642C50.8684 118.642 50.4944 118.664 50.4284 118.967C50.3624 119.271 50.3404 119.905 50.1907 120.503C49.9431 121.439 49.8554 122.411 49.9312 123.376C50.0544 124.049 51.5989 125.057 52.6549 125.237C53.7109 125.418 55.2024 126.456 56.0296 127.235C57.3571 128.333 59.0002 128.979 60.7199 129.078C62.4799 129.078 63.7119 128.493 64.2927 127.547C64.8736 126.601 63.7604 126.491 61.7496 125.184L60.1832 124.168C56.9932 122.082 55.8227 120.965 54.9032 118.888L50.8684 118.642Z" fill="#263238"/>
<path d="M54.956 117.348C54.9032 115.852 55.9327 100.443 55.9327 100.443L49.0422 103.585C50.5162 112.385 51.0267 117.313 50.855 118.593C50.8259 118.714 50.8126 118.838 50.8155 118.963C50.8155 120.674 52.7558 121.603 54.2607 122.738C54.8547 123.178 56.386 124.577 58.1767 125.184C59.3384 125.58 61.481 125.73 61.754 125.026C59.9235 123.627 57.4287 121.796 55.968 120.186C55.2727 119.438 55 118.848 54.956 117.348Z" fill="#FFA8A7"/>
<path d="M35.9259 57.838C33.2859 63.646 33.2859 68.1383 33.7259 75.548C34.1264 82.346 34.7644 88.3345 34.7644 88.3345C34.6632 89.54 33.0044 91.8942 32.7712 97.2268C32.6874 101.003 32.802 104.78 33.1144 108.544C33.1144 108.544 36.8764 110.629 39.6616 108.544C39.6616 108.544 42.3456 95.7222 43.1332 89.483C43.8196 84.0357 45.7424 72.7235 45.7424 72.7235L48.8839 89.4435C48.3378 91.1974 47.9418 92.9947 47.7002 94.8157C47.3437 98.4855 49.3942 105.693 49.3942 105.693C49.3942 105.693 53.2839 106.854 55.6599 104.747C55.6599 104.747 56.5399 93.0295 56.8787 88.6119C57.3187 82.6895 56.3154 66.4975 54.9604 58.1902L35.9259 57.838Z" fill="#2B3049"/>
<path d="M45.7335 72.7055L46.5388 67.166C46.5388 67.166 51.2203 66.5412 53.3412 64.526C52.734 65.4768 51.9248 66.2823 50.9713 66.8853C50.0177 67.4883 48.9431 67.874 47.8237 68.015L46.9965 73.0398L48.431 87.5598L45.7335 72.7055Z" fill="#263238"/>
<path d="M41.5887 33.9153C40.1895 34.012 38.3767 34.298 38.3767 34.298C36.9072 35.1208 36.1767 36.6168 36.1767 38.3635C36.1767 40.2733 35.1119 41.3423 35.6927 44.4883L37.985 50.2083C37.875 51.6383 36.159 54.9998 35.1777 59.6595C40.7835 62.7878 47.9377 62.0575 51.8977 60.3635C53.0878 59.906 54.146 59.1607 54.9777 58.1943C54.3265 54.7623 54.0977 54.8063 53.737 51.6691C53.5598 50.4026 53.4892 49.1236 53.5257 47.8453C55.321 45.5353 56.28 43.2738 55.3737 41.1969C53.5257 36.9816 50.0717 33.5893 48.2942 33.7169L41.5887 33.9153Z" fill="#4A6CC9"/>
<path opacity="0.1" d="M49.5835 47.6168C49.5835 47.6168 47.0228 49.6055 44.1013 48.5673C43.281 48.3074 42.5416 47.8404 41.9543 47.2116C41.367 46.5827 40.9517 45.8131 40.7485 44.977C40.7485 44.977 40.4405 48.3165 44.1277 49.4562C45.1142 49.7741 46.1767 49.767 47.1589 49.4359C48.141 49.1047 48.9909 48.4671 49.5835 47.6168Z" fill="black"/>
<path d="M51.3434 16.6628C52.3599 17.2655 53.6182 19.8175 53.4952 25.1723C53.3894 29.7131 51.9156 30.8351 51.1764 31.1563C50.4372 31.4775 49.0161 31.2838 47.6299 31.0551V33.7788C47.6299 33.7788 49.2272 35.4508 49.1039 36.7003C48.9807 37.9498 46.6002 38.0908 44.805 36.8675C43.7177 36.1244 42.7478 35.2226 41.9274 34.1923V27.4383C41.9274 27.4383 41.1707 28.2435 39.8287 27.3195C38.6775 26.5895 38.3361 25.0641 39.0664 23.913C39.1066 23.8499 39.1493 23.7885 39.195 23.7293C39.7759 23.0428 41.2585 22.9945 41.9714 24.0593C41.9714 24.0593 43.8327 23.8965 46.7762 22.2993C47.8706 21.7061 48.8373 20.9029 49.621 19.9358C50.4047 18.9686 50.99 17.8564 51.3434 16.6628Z" fill="#FFA8A7"/>
<path d="M51.9199 16.6583C51.9199 16.6583 53.0904 19.4348 49.9047 21.7228C49.9047 21.7228 51.5724 19.7295 50.9694 17.226C50.4722 15.1405 51.8144 15.686 51.9199 16.6583Z" fill="#263238"/>
<path d="M47.916 24.0328C47.9244 24.185 47.8722 24.3344 47.7707 24.4482C47.6693 24.562 47.5269 24.631 47.3747 24.64C47.221 24.6436 47.072 24.5866 46.96 24.4811C46.848 24.3757 46.782 24.2305 46.7763 24.0768C46.7668 23.9989 46.7735 23.9198 46.7959 23.8446C46.8184 23.7693 46.856 23.6995 46.9066 23.6394C46.9572 23.5794 47.0196 23.5304 47.09 23.4955C47.1603 23.4606 47.2371 23.4406 47.3155 23.4367C47.3939 23.4328 47.4723 23.445 47.5458 23.4727C47.6193 23.5004 47.6862 23.5429 47.7426 23.5976C47.7989 23.6523 47.8434 23.718 47.8732 23.7906C47.903 23.8633 47.9176 23.9413 47.916 24.0198V24.0328Z" fill="#263238"/>
<path d="M48.5759 27.8828L49.8959 28.3228C49.8725 28.4137 49.8305 28.4987 49.7726 28.5727C49.7148 28.6466 49.6423 28.7078 49.5596 28.7524C49.477 28.797 49.3861 28.8241 49.2925 28.8319C49.199 28.8398 49.1048 28.8282 49.0159 28.798C48.8375 28.7332 48.6915 28.6012 48.6093 28.4301C48.527 28.259 48.5151 28.0625 48.5759 27.8828Z" fill="#F28F8F"/>
<path d="M52.976 22.2815L51.8232 21.4808C51.8714 21.4027 51.935 21.3353 52.0101 21.2827C52.0852 21.2301 52.1703 21.1934 52.2602 21.1748C52.35 21.1563 52.4426 21.1563 52.5325 21.1749C52.6223 21.1934 52.7074 21.2301 52.7825 21.2828C52.9356 21.3935 53.0409 21.5583 53.0768 21.7439C53.1127 21.9294 53.0767 22.1216 52.976 22.2815Z" fill="#263238"/>
<path d="M52.712 23.6235C52.7128 23.7355 52.6806 23.8453 52.6196 23.9392C52.5585 24.0332 52.4712 24.1071 52.3685 24.1519C52.2659 24.1967 52.1523 24.2103 52.0419 24.1911C51.9315 24.172 51.8292 24.1208 51.7477 24.0441C51.6661 23.9673 51.6088 23.8682 51.583 23.7592C51.5572 23.6502 51.564 23.536 51.6024 23.4308C51.6409 23.3256 51.7094 23.234 51.7995 23.1674C51.8896 23.1008 51.9972 23.062 52.1091 23.056C52.264 23.0524 52.4141 23.1099 52.5269 23.2161C52.6397 23.3223 52.7062 23.4687 52.712 23.6235Z" fill="#263238"/>
<path d="M49.5439 23.2938L49.6319 26.73L51.4402 26.1713L49.5439 23.2938Z" fill="#F28F8F"/>
<path d="M47.6299 31.0553C46.1692 30.8618 43.1639 29.9993 42.6976 28.8113C42.8847 29.4129 43.2517 29.9427 43.7492 30.3293C44.6292 31.095 47.6299 31.9618 47.6299 31.9618V31.0553Z" fill="#F28F8F"/>
<path d="M97.1475 78.5575L68.1252 95.3172V77.6775L97.1475 60.9225V78.5575Z" fill="#D0665F"/>
<path opacity="0.3" d="M97.1475 78.5575L68.1252 95.3172V77.6775L97.1475 60.9225V78.5575Z" fill="black"/>
<path d="M39.1027 78.5575L68.1251 95.3172V77.6775L39.1027 60.9225V78.5575Z" fill="#D0665F"/>
<path opacity="0.4" d="M39.1027 78.5575L68.1251 95.3172V77.6775L39.1027 60.9225V78.5575Z" fill="black"/>
<path opacity="0.1" d="M44.3651 71.6188L42.8076 70.0613C42.5876 69.8456 42.3456 69.652 42.1344 69.4188C42.0551 69.3353 41.6504 68.8643 41.7779 68.7368C41.7929 68.7256 41.8101 68.7179 41.8283 68.7141C41.8466 68.7103 41.8655 68.7105 41.8836 68.7148C42.5744 68.7853 43.4499 68.7543 43.9339 68.1736C44.0179 68.0769 44.0755 67.9602 44.1011 67.8348C44.1156 67.7427 44.0952 67.6486 44.0439 67.5708C43.9427 67.4213 43.6789 67.4213 43.5159 67.3728C43.3091 67.3098 43.1099 67.2242 42.9219 67.1176C42.5982 66.9446 42.2613 66.7975 41.9144 66.6776L40.5329 66.3828C40.3331 66.2245 40.1036 66.1079 39.8579 66.0399C39.6122 65.9719 39.3554 65.9538 39.1027 65.9868V73.8673C39.6738 74.1864 40.3072 74.3786 40.9594 74.4305C41.8215 74.5302 42.6944 74.3885 43.4807 74.0213C44.1187 73.7045 45.1307 72.886 44.7259 72.0545C44.63 71.8908 44.5081 71.7436 44.3651 71.6188Z" fill="black"/>
<path d="M97.1474 60.9225L68.1251 44.1672L39.1027 60.9225L68.1251 77.6775L97.1474 60.9225Z" fill="#D0665F"/>
<path opacity="0.15" d="M97.1474 60.9225L68.1251 44.1672L39.1027 60.9225L68.1251 77.6775L97.1474 60.9225Z" fill="black"/>
<path d="M75.3587 50.8112C75.3587 49.742 74.6547 48.6728 73.238 47.8588C70.4132 46.2263 65.8327 46.2263 63.008 47.8588C61.5955 48.6728 60.8915 49.742 60.8915 50.8112V53.68C60.8915 54.7492 61.5955 55.814 63.008 56.6325C65.8327 58.2605 70.4132 58.265 73.238 56.6325C74.6547 55.814 75.3587 54.7448 75.3587 53.68V50.8112Z" fill="#D0665F"/>
<path opacity="0.3" d="M73.238 47.8588C74.6504 48.6728 75.3587 49.742 75.3587 50.811V53.6798C75.3587 54.749 74.6547 55.8138 73.238 56.6323C71.6656 57.4687 69.9057 57.8898 68.125 57.8555V46.64C69.9055 46.6025 71.6658 47.0221 73.238 47.8588Z" fill="black"/>
<path opacity="0.4" d="M63.0082 47.8588C61.5957 48.6728 60.8917 49.742 60.8917 50.811V53.6798C60.8917 54.749 61.5957 55.8138 63.0082 56.6323C64.582 57.4687 66.3433 57.8897 68.1252 57.8555V46.64C66.3435 46.6025 64.5818 47.0221 63.0082 47.8588Z" fill="black"/>
<path d="M63.0081 47.8588C60.1832 49.4868 60.1832 52.1313 63.0081 53.7635C65.8329 55.3958 70.4134 55.3958 73.2381 53.7635C76.0629 52.1311 76.0674 49.4866 73.2381 47.8588C70.4089 46.2308 65.8329 46.2265 63.0081 47.8588Z" fill="#D0665F"/>
<path d="M75.3587 67.1528C75.3587 66.0836 74.6547 65.0188 73.238 64.2003C70.4132 62.5678 65.8327 62.5678 63.008 64.2003C61.5955 65.0143 60.8915 66.0836 60.8915 67.1528V70.0085C60.8915 71.0778 61.5955 72.147 63.008 72.961C65.8327 74.5933 70.4132 74.5933 73.238 72.961C74.6547 72.147 75.3587 71.0778 75.3587 70.0085V67.1528Z" fill="#D0665F"/>
<path opacity="0.3" d="M73.238 64.2005C74.6504 65.0145 75.3587 66.0838 75.3587 67.153V70.0087C75.3587 71.078 74.6547 72.1472 73.238 72.9612C71.6664 73.7996 69.9059 74.2207 68.125 74.1842V62.9775C69.9057 62.9431 71.6656 63.3641 73.238 64.2005Z" fill="black"/>
<path opacity="0.4" d="M63.0082 64.2005C61.5957 65.0145 60.8917 66.0838 60.8917 67.153V70.0087C60.8917 71.078 61.5957 72.1472 63.0082 72.9612C64.5813 73.7996 66.3431 74.2207 68.1252 74.1842V62.9775C66.3433 62.9431 64.582 63.364 63.0082 64.2005Z" fill="black"/>
<path d="M63.0081 64.2005C60.1832 65.833 60.1832 68.4773 63.0081 70.1097C65.8329 71.7422 70.4134 71.7377 73.2381 70.1097C76.0629 68.4817 76.0674 65.833 73.2381 64.2005C70.4089 62.568 65.8329 62.568 63.0081 64.2005Z" fill="#D0665F"/>
<path d="M61.2085 58.96C61.2085 57.8908 60.5045 56.8216 59.092 56.0076C56.2627 54.3751 51.6825 54.3751 48.8575 56.0076C47.445 56.8216 46.7412 57.8908 46.7412 58.96V61.8158C46.7412 62.885 47.4452 63.9542 48.8575 64.7682C51.6825 66.4007 56.2627 66.4007 59.092 64.7682C60.5045 63.9542 61.2085 62.885 61.2085 61.8158V58.96Z" fill="#D0665F"/>
<path opacity="0.3" d="M59.092 56.0253C60.5045 56.8393 61.2085 57.9085 61.2085 58.9778V61.8335C61.2085 62.9027 60.5045 63.972 59.092 64.786C57.5173 65.6194 55.756 66.0373 53.9747 66.0002V54.8022C55.7567 54.7685 57.5179 55.1894 59.092 56.0253Z" fill="black"/>
<path opacity="0.4" d="M48.8399 56.0253C47.4274 56.8393 46.7236 57.9085 46.7236 58.9777V61.8335C46.7236 62.9027 47.4276 63.9719 48.8399 64.7859C50.4199 65.6222 52.1877 66.0402 53.9749 66.0002V54.8022C52.1869 54.7648 50.4191 55.1859 48.8399 56.0253Z" fill="black"/>
<path d="M48.84 56.0253C46.0152 57.6577 46.0152 60.302 48.84 61.93C51.6648 63.558 56.2452 63.5625 59.0745 61.93C61.9037 60.2975 61.8995 57.6575 59.0745 56.0253C56.2495 54.3928 51.6825 54.3928 48.84 56.0253Z" fill="#D0665F"/>
<path d="M89.5092 58.982C89.5092 57.9128 88.8007 56.8435 87.3885 56.0297C84.5637 54.3972 79.983 54.3972 77.1583 56.0297C75.7458 56.8437 75.0375 57.913 75.0418 58.982V61.8377C75.0418 62.907 75.7458 63.9762 77.1583 64.7902C79.983 66.4227 84.5637 66.4227 87.3885 64.7902C88.8009 63.9762 89.5092 62.907 89.5092 61.8377V58.982Z" fill="#D0665F"/>
<path opacity="0.3" d="M87.3884 56.0297C88.8009 56.8437 89.5091 57.913 89.5091 58.982V61.8377C89.5091 62.907 88.8007 63.9762 87.3884 64.7902C85.8167 65.6227 84.0581 66.0393 82.2799 66.0002V54.8067C84.059 54.7736 85.8172 55.1945 87.3884 56.0297Z" fill="black"/>
<path opacity="0.4" d="M77.1583 56.0298C75.7458 56.8438 75.0375 57.913 75.0418 58.982V61.8378C75.0418 62.907 75.7458 63.9762 77.1583 64.7902C78.734 65.6248 80.4974 66.0414 82.28 66.0002V54.8067C80.4964 54.7716 78.7335 55.1925 77.1583 56.0298Z" fill="black"/>
<path d="M77.1582 56.0297C74.3335 57.662 74.3335 60.3065 77.1582 61.939C79.983 63.5712 84.5637 63.567 87.3884 61.939C90.2132 60.311 90.2132 57.662 87.3884 56.0297C84.5637 54.3972 79.9832 54.3972 77.1582 56.0297Z" fill="#D0665F"/>
<path d="M26.642 51.3083C28.3007 47.6916 31.24 42.0993 32.6302 39.2568C34.6587 35.1648 36.322 34.276 39.1025 34.1923C40.198 35.1428 40.7262 38.4428 38.953 42.6756C37.4702 45.2188 32.903 53.0288 32.903 53.0288C33.123 53.6623 36.687 62.458 38.1478 64.4688C38.411 64.8218 38.7946 65.0659 39.2258 65.1551C40.3785 65.4016 41.8658 66.3123 42.825 66.7963C43.5905 67.1746 44.1143 67.1483 44.1055 67.3596C44.0726 67.6014 43.9497 67.8219 43.7612 67.9769C43.5727 68.1319 43.3326 68.21 43.089 68.1956C42.3241 68.1037 41.5668 67.9566 40.823 67.7556C41.6572 68.6303 42.5495 69.4476 43.4938 70.202C45.2538 71.5528 45.4825 72.9696 42.7193 73.5725C40.6293 74.0125 39.2873 73.0708 36.7045 69.85C35.961 68.9216 35.0633 67.4873 34.1525 66.2816C31.8602 63.25 30.6325 61.116 29.2378 59.2153C25.2472 53.856 26.0304 52.6416 26.642 51.3083Z" fill="#FFA8A7"/>
</g>
<defs>
<clipPath id="clip0_151_4253">
<rect width="220" height="220" fill="white"/>
</clipPath>
</defs>
</svg>
