<svg width="573" height="413" viewBox="0 0 573 413" fill="none" xmlns="http://www.w3.org/2000/svg">
<g clip-path="url(#clip0_62_13)">
<path opacity="0.1" d="M568.691 406.676C568.691 410.805 554.467 414.675 529.646 418H60.1617C39.2734 418.044 18.7459 412.556 0.666129 402.093L0.388062 401.936C7.52124 399.337 20.3972 396.912 37.9219 394.724L38.7077 394.627C46.5663 393.666 55.3498 392.753 64.9494 391.888C65.1912 391.888 65.439 391.852 65.6808 391.822C73.2976 391.144 81.4 390.51 89.988 389.917C90.2601 389.917 90.526 389.869 90.7981 389.857C94.1108 389.619 97.492 389.393 100.942 389.18L102.272 389.095C127.389 387.535 155.94 386.29 186.903 385.467H186.939C191.275 385.347 195.658 385.24 200.087 385.147C205.012 385.03 209.997 384.927 215.042 384.839C218.893 384.754 222.792 384.694 226.703 384.633H226.794C244.439 384.367 262.671 384.234 281.314 384.234C327.414 384.234 370.987 385.075 409.597 386.586H409.706C415.642 386.816 421.469 387.07 427.152 387.33L431.988 387.559C438.4 387.866 444.646 388.194 450.727 388.545C522.241 392.614 568.691 399.222 568.691 406.676Z" fill="#6C63FF"/>
<g opacity="0.2">
<path d="M336.234 381.459C336.214 382.111 336.14 382.761 336.01 383.4C331.803 382.731 327.571 382.126 323.315 381.586C323.315 381.417 323.315 381.242 323.315 381.066C323.355 379.253 323.876 377.484 324.827 375.939C326.072 373.968 327.964 372.735 330.05 372.802C332.135 372.868 333.943 374.216 335.061 376.254C335.907 377.854 336.312 379.651 336.234 381.459Z" fill="#3F3D56"/>
<path d="M336.581 371.128C336.729 366.452 333.954 362.571 330.384 362.458C326.813 362.345 323.799 366.044 323.651 370.719C323.503 375.395 326.278 379.277 329.849 379.39C333.419 379.502 336.433 375.804 336.581 371.128Z" fill="#3F3D56"/>
<path d="M336.911 360.777C337.059 356.102 334.284 352.22 330.713 352.107C327.143 351.994 324.129 355.693 323.981 360.369C323.833 365.044 326.608 368.926 330.178 369.039C333.749 369.152 336.763 365.453 336.911 360.777Z" fill="#3F3D56"/>
<path d="M337.235 350.427C337.382 345.751 334.608 341.869 331.037 341.756C327.467 341.644 324.452 345.342 324.305 350.018C324.157 354.694 326.932 358.575 330.502 358.688C334.073 358.801 337.087 355.102 337.235 350.427Z" fill="#3F3D56"/>
<path d="M337.558 340.076C337.706 335.4 334.931 331.519 331.361 331.406C327.79 331.293 324.776 334.992 324.628 339.667C324.481 344.343 327.255 348.225 330.826 348.338C334.396 348.45 337.411 344.752 337.558 340.076Z" fill="#3F3D56"/>
<path d="M309.091 268.258C308.24 267.105 307.472 265.893 306.794 264.63L323.878 262.375L305.489 261.934C303.848 258.041 303.018 253.854 303.05 249.629C303.082 245.405 303.976 241.231 305.676 237.364L329.929 250.936L307.713 233.5C309.954 229.875 312.919 226.751 316.421 224.323C319.924 221.895 323.889 220.216 328.07 219.39C332.251 218.563 336.557 218.608 340.72 219.521C344.882 220.434 348.812 222.195 352.263 224.696C355.715 227.196 358.614 230.381 360.779 234.052C362.944 237.722 364.33 241.8 364.848 246.031C365.367 250.261 365.008 254.553 363.794 258.639C362.579 262.724 360.536 266.515 357.791 269.775C359.115 271.568 360.24 273.5 361.146 275.537L338.724 286.298L362.5 279.146C363.997 284.087 364.238 289.323 363.202 294.381C362.165 299.439 359.883 304.158 356.563 308.112C360.015 312.795 362.079 318.356 362.52 324.158C362.96 329.96 361.759 335.769 359.054 340.92C356.349 346.072 352.249 350.358 347.223 353.289C342.197 356.219 336.448 357.676 330.633 357.493C324.818 357.31 319.172 355.493 314.34 352.252C309.509 349.01 305.687 344.474 303.312 339.163C300.936 333.851 300.104 327.978 300.909 322.215C301.714 316.453 304.124 311.033 307.864 306.576C303.74 300.978 301.618 294.157 301.837 287.207C302.056 280.258 304.605 273.584 309.073 268.258H309.091Z" fill="#134D86"/>
<path opacity="0.1" d="M363.817 289.164C363.606 296.117 361.049 302.795 356.563 308.112C360.015 312.795 362.079 318.356 362.52 324.158C362.96 329.96 361.759 335.769 359.054 340.92C356.349 346.072 352.249 350.358 347.223 353.289C342.197 356.22 336.448 357.677 330.633 357.493C324.818 357.31 319.172 355.493 314.34 352.252C309.509 349.01 305.687 344.474 303.312 339.163C300.936 333.851 300.104 327.978 300.909 322.215C301.714 316.453 304.124 311.033 307.864 306.576C303.893 301.177 363.926 285.688 363.817 289.164Z" fill="black"/>
</g>
<g opacity="0.2">
<path d="M244.349 381.459C244.329 382.111 244.255 382.761 244.125 383.4C239.918 382.731 235.686 382.126 231.43 381.586C231.43 381.417 231.43 381.242 231.43 381.066C231.47 379.253 231.991 377.484 232.942 375.939C234.187 373.968 236.079 372.735 238.165 372.802C240.25 372.868 242.058 374.216 243.176 376.254C244.022 377.854 244.427 379.651 244.349 381.459Z" fill="#3F3D56"/>
<path d="M244.689 371.131C244.837 366.455 242.062 362.573 238.492 362.46C234.921 362.347 231.907 366.046 231.759 370.722C231.612 375.398 234.386 379.279 237.957 379.392C241.527 379.505 244.542 375.806 244.689 371.131Z" fill="#3F3D56"/>
<path d="M245.019 360.78C245.167 356.104 242.392 352.222 238.822 352.11C235.251 351.997 232.237 355.696 232.089 360.371C231.941 365.047 234.716 368.929 238.287 369.041C241.857 369.154 244.871 365.455 245.019 360.78Z" fill="#3F3D56"/>
<path d="M245.343 350.429C245.491 345.754 242.716 341.872 239.145 341.759C235.575 341.646 232.561 345.345 232.413 350.021C232.265 354.696 235.04 358.578 238.61 358.691C242.181 358.804 245.195 355.105 245.343 350.429Z" fill="#3F3D56"/>
<path d="M245.667 340.078C245.814 335.403 243.04 331.521 239.469 331.408C235.899 331.295 232.885 334.994 232.737 339.67C232.589 344.345 235.364 348.227 238.934 348.34C242.505 348.453 245.519 344.754 245.667 340.078Z" fill="#3F3D56"/>
<path d="M217.206 268.258C216.355 267.105 215.587 265.893 214.909 264.63L231.993 262.375L213.604 261.934C211.963 258.041 211.133 253.854 211.165 249.629C211.197 245.405 212.091 241.231 213.791 237.364L238.044 250.936L215.828 233.5C218.069 229.875 221.034 226.751 224.536 224.323C228.039 221.895 232.004 220.216 236.185 219.39C240.366 218.563 244.672 218.608 248.835 219.521C252.997 220.434 256.927 222.195 260.378 224.696C263.83 227.196 266.729 230.381 268.894 234.052C271.059 237.722 272.445 241.8 272.963 246.031C273.482 250.261 273.123 254.553 271.909 258.639C270.694 262.724 268.651 266.515 265.905 269.775C267.23 271.568 268.355 273.5 269.26 275.537L246.839 286.298L270.615 279.146C272.112 284.087 272.353 289.323 271.317 294.381C270.28 299.439 267.998 304.158 264.678 308.112C268.13 312.795 270.194 318.356 270.635 324.158C271.075 329.96 269.874 335.769 267.169 340.92C264.464 346.072 260.364 350.358 255.338 353.289C250.312 356.219 244.563 357.676 238.748 357.493C232.933 357.31 227.287 355.493 222.455 352.252C217.624 349.01 213.802 344.474 211.427 339.163C209.051 333.851 208.219 327.978 209.024 322.215C209.829 316.453 212.239 311.033 215.979 306.576C211.855 300.978 209.733 294.157 209.952 287.207C210.171 280.258 212.72 273.584 217.188 268.258H217.206Z" fill="#134D86"/>
<path opacity="0.1" d="M271.932 289.164C271.721 296.117 269.164 302.795 264.678 308.112C268.13 312.795 270.194 318.356 270.635 324.158C271.075 329.96 269.874 335.769 267.169 340.92C264.464 346.072 260.364 350.358 255.338 353.289C250.312 356.22 244.563 357.677 238.748 357.493C232.933 357.31 227.287 355.493 222.455 352.252C217.624 349.01 213.802 344.474 211.427 339.163C209.051 333.851 208.219 327.978 209.024 322.215C209.829 316.453 212.239 311.033 215.979 306.576C212.008 301.177 272.041 285.688 271.932 289.164Z" fill="black"/>
</g>
<g opacity="0.2">
<path d="M495.34 388.073C495.294 389.309 495.146 390.538 494.899 391.749C486.798 390.455 478.639 389.299 470.422 388.279C470.422 387.952 470.422 387.62 470.422 387.281C470.499 383.79 471.505 380.382 473.336 377.409C475.754 373.618 479.381 371.242 483.389 371.363C487.397 371.484 490.885 374.089 493.061 378.013C494.702 381.104 495.489 384.577 495.34 388.073Z" fill="#3F3D56"/>
<path d="M495.998 368.169C496.282 359.164 490.938 351.689 484.06 351.472C477.183 351.254 471.377 358.377 471.092 367.381C470.808 376.386 476.152 383.861 483.03 384.078C489.907 384.296 495.713 377.173 495.998 368.169Z" fill="#3F3D56"/>
<path d="M496.626 348.241C496.911 339.237 491.566 331.761 484.688 331.544C477.811 331.327 472.005 338.45 471.721 347.454C471.436 356.458 476.781 363.934 483.658 364.151C490.536 364.368 496.341 357.245 496.626 348.241Z" fill="#3F3D56"/>
<path d="M497.26 328.314C497.545 319.31 492.2 311.834 485.323 311.617C478.445 311.4 472.639 318.523 472.355 327.527C472.07 336.531 477.415 344.007 484.292 344.224C491.17 344.441 496.976 337.318 497.26 328.314Z" fill="#3F3D56"/>
<path d="M497.18 307.48C497.45 298.471 492.091 291.001 485.21 290.795C478.329 290.588 472.532 297.724 472.262 306.732C471.992 315.741 477.351 323.211 484.232 323.418C491.112 323.624 496.91 316.489 497.18 307.48Z" fill="#3F3D56"/>
<path d="M443.08 170.146C441.449 167.927 439.973 165.598 438.661 163.176L471.547 158.835L436.153 157.982C432.991 150.488 431.392 142.428 431.452 134.295C431.512 126.162 433.231 118.126 436.503 110.68L483.201 136.804L440.439 103.238C444.762 96.2752 450.474 90.2781 457.217 85.6201C463.959 80.962 471.589 77.7428 479.63 76.163C487.672 74.5832 495.952 74.6768 503.956 76.4379C511.959 78.1989 519.515 81.5898 526.15 86.399C532.786 91.2083 538.361 97.3329 542.526 104.391C546.691 111.449 549.359 119.29 550.362 127.424C551.364 135.559 550.681 143.813 548.355 151.671C546.028 159.53 542.108 166.826 536.839 173.103C539.386 176.558 541.553 180.277 543.302 184.197L500.134 204.928L545.901 191.143C548.785 200.644 549.255 210.714 547.267 220.442C545.28 230.17 540.898 239.248 534.518 246.856C541.162 255.873 545.135 266.578 545.982 277.747C546.829 288.916 544.516 300.098 539.309 310.014C534.101 319.931 526.208 328.181 516.532 333.823C506.857 339.464 495.789 342.269 484.595 341.916C473.401 341.563 462.532 338.067 453.231 331.827C443.93 325.587 436.573 316.855 432 306.631C427.427 296.406 425.823 285.1 427.372 274.007C428.921 262.914 433.56 252.48 440.759 243.899C432.824 233.123 428.74 219.994 429.161 206.618C429.582 193.242 434.484 180.396 443.08 170.14V170.146Z" fill="#134D86"/>
<path opacity="0.1" d="M548.446 210.387C548.049 223.766 543.15 236.619 534.542 246.868C541.186 255.885 545.159 266.59 546.006 277.759C546.853 288.928 544.54 300.11 539.333 310.026C534.125 319.943 526.232 328.193 516.557 333.835C506.881 339.476 495.814 342.281 484.619 341.928C473.425 341.575 462.556 338.079 453.255 331.839C443.955 325.599 436.597 316.868 432.024 306.643C427.451 296.418 425.848 285.112 427.397 274.019C428.946 262.926 433.585 252.492 440.783 243.911C433.082 233.506 548.657 203.695 548.446 210.387Z" fill="black"/>
</g>
<path d="M20.4033 389.137L26.7445 389.119H35.6852L46.9895 205.46L158.938 18.6266L154.072 13.403V0.174805L33.0012 201.131L20.4033 389.137Z" fill="#F1C0C0"/>
<path opacity="0.1" d="M27.4216 389.119H35.6852L46.9895 205.46L158.938 18.6266L154.072 13.403L38.5989 202.661L27.4216 389.119Z" fill="black"/>
<path d="M1.71796 390.667L291.79 412.867L292.038 412.885L572.765 395.618L572.977 395.606V383.751L263.651 378.074L5.58075 377.826H3.69469L3.48916 379.156L1.71796 390.667Z" fill="#F1C0C0"/>
<path opacity="0.1" d="M1.71796 390.667L291.79 412.867L292.038 412.885L572.765 395.618L572.977 395.389V383.998H572.729L291.79 393.382L5.58075 377.826H5.53843L5.03065 378.158L3.48916 379.156L1.71796 390.667Z" fill="black"/>
<path opacity="0.1" d="M1.71796 390.667L291.79 412.867V393.382L5.03065 378.158L3.48916 379.156L1.71796 390.667Z" fill="black"/>
<path d="M154.035 13.1552L281.919 150.431L277.965 391.9L288.828 393.212L289.01 393.236H299.873L301.172 160.8L540.636 240.798L544.674 383.237L553.415 384.216L556.377 384.549L549.522 230.919L299.196 143.025L161.936 0.313904H154.035V13.1552Z" fill="#F1C0C0"/>
<path opacity="0.1" d="M300.187 156.356L301.172 160.8L540.636 240.798L544.674 383.237L553.415 384.216L546.56 237.835L300.187 156.356Z" fill="black"/>
<path opacity="0.1" d="M154.035 13.1552L281.919 150.431L277.965 391.9L288.828 393.212L291.79 142.529L154.035 0.313904V13.1552Z" fill="black"/>
<path d="M300.652 253.264L388.481 270.561L388.512 270.567L542.34 300.875L549.383 298.051L549.359 297.556L548.899 287.731L300.743 237.581L300.652 253.264Z" fill="#F1C0C0"/>
<path opacity="0.1" d="M388.512 270.567L542.34 300.875L549.383 298.051L549.359 297.556L388.512 270.567Z" fill="black"/>
<path d="M394.393 191.942L396.769 322.736L397.996 389.839L408.811 389.476L415.618 389.246L413.502 193.834L408.811 192.274L407.783 191.942H394.393Z" fill="#F1C0C0"/>
<path opacity="0.1" d="M394.49 191.911V191.941L396.769 322.736L397.996 389.839L408.811 389.476V191.911H394.49Z" fill="black"/>
<path d="M224.993 225.345C225.627 225.689 226.233 226.084 226.806 226.523C227.483 227.116 228.092 227.784 228.62 228.513C231.213 231.868 233.607 235.767 233.353 240C233.358 240.615 233.242 241.226 233.011 241.797C232.779 242.367 232.437 242.887 232.005 243.325C230.935 244.238 229.399 244.28 227.997 244.28C226.474 244.28 224.872 244.28 223.554 243.494C222.236 242.708 221.136 241.178 219.576 241.215C219.356 241.251 219.131 241.251 218.911 241.215C218.373 241.039 218.264 240.332 217.914 239.885C217.309 239.081 216.034 239.28 215.085 239.631C214.136 239.981 213.084 240.507 212.147 240.102C211.603 239.815 211.158 239.371 210.871 238.827C208.629 235.199 208.151 230.84 207.728 226.626C207.468 224.063 205.485 215.321 210.956 217.31C213.374 218.18 215.635 219.921 217.835 221.197L224.993 225.345Z" fill="#2B3049"/>
<path d="M219.588 226.209C220.077 226.561 220.669 226.739 221.27 226.714C221.872 226.69 222.448 226.466 222.907 226.076C223.807 225.263 224.381 224.15 224.521 222.944C225.125 222.757 225.434 223.549 225.821 224.033C226.498 224.855 227.876 224.843 228.493 225.719C228.922 226.324 228.825 227.164 229.127 227.848C229.52 228.73 230.493 229.19 231.158 229.903C231.786 230.683 232.24 231.588 232.488 232.557L233.48 235.532C233.954 236.769 234.259 238.064 234.387 239.383C234.449 240.042 234.38 240.707 234.182 241.339C233.985 241.972 233.664 242.558 233.238 243.065C231.908 244.498 229.726 244.649 227.797 244.607C227.153 244.62 226.511 244.545 225.887 244.383C224.176 243.851 223.082 242.128 222.629 240.393C222.175 238.657 222.224 236.838 221.958 235.06C221.671 233.314 221.163 231.612 220.447 229.994C219.915 228.736 218.452 226.862 218.476 225.526C218.911 225.526 219.225 225.925 219.588 226.209Z" fill="#2B3049"/>
<path d="M221.758 220.085C221.476 219.226 221.311 218.333 221.269 217.431C221.269 215.617 222.097 213.912 222.931 212.292L216.022 213.229C215.187 213.344 214.256 213.513 213.785 214.208C213.606 214.553 213.512 214.935 213.512 215.324C213.512 215.712 213.606 216.095 213.785 216.439C214.131 217.129 214.407 217.852 214.607 218.598C214.623 219.25 214.698 219.899 214.831 220.538C215.046 221.007 215.347 221.432 215.719 221.79C217.696 223.978 219.177 226.56 220.652 229.117C220.61 229.045 224.817 225.786 224.648 224.722C224.551 224.117 223.336 223.392 222.949 222.811C222.415 221.969 222.013 221.049 221.758 220.085Z" fill="#BE6F72"/>
<path d="M281 196.464V202.419L179.038 222.31L173.748 225.514H155.498V222.158L255.677 197.951L281 196.464Z" fill="#F1C0C0"/>
<path opacity="0.1" d="M281 202.419L179.038 222.31L173.748 225.514H155.498L256.421 203.912L281 202.419Z" fill="black"/>
<path d="M199.138 365.516C198.002 364.14 196.433 363.19 194.688 362.818C192.943 362.447 191.124 362.678 189.526 363.473C189.184 363.634 188.883 363.869 188.643 364.162C188.039 365.009 188.426 366.175 188.48 367.221C188.619 369.773 186.588 371.846 184.763 373.63C183.783 374.585 182.786 375.607 182.345 376.907C181.903 378.207 182.23 379.857 183.415 380.534C183.932 380.793 184.494 380.949 185.071 380.994C187.003 381.371 188.984 381.426 190.935 381.157C192.863 380.788 194.755 379.694 195.589 377.916C195.75 377.434 196.017 376.994 196.369 376.629C197.433 375.788 199.065 376.774 200.274 376.175C201.272 375.679 201.314 374.899 201.326 373.872C201.362 371.03 200.939 367.814 199.138 365.516Z" fill="#4A6CC9"/>
<path d="M213.646 365.408C214.389 367.366 214.492 369.501 214.589 371.592C214.643 372.802 214.68 374.095 214.027 375.117C213.374 376.139 212.098 376.677 210.877 376.931C208.356 377.451 205.437 376.961 203.811 374.96C202.565 373.43 202.305 371.332 202.535 369.349C202.728 367.723 203.14 365.819 201.973 364.664C201.671 364.356 201.278 364.138 201 363.805C200.395 363.068 200.492 361.955 200.818 361.049C201.243 360.181 201.562 359.266 201.767 358.322C201.816 357.874 209.952 358.636 210.702 359.005C211.724 359.507 211.566 360.347 211.875 361.363C212.304 362.778 213.126 364.053 213.646 365.408Z" fill="#4A6CC9"/>
<path d="M215.139 278.554C216.735 279.587 217.352 281.619 217.599 283.505C218.282 288.674 217.086 293.898 216.995 299.115C216.91 306.425 219.026 313.867 217.219 320.947C216.136 325.179 217.055 330.015 216.04 334.29C215.737 335.559 215.181 336.757 214.891 338.026C214.287 340.777 214.921 343.655 215.774 346.345C216.046 347.07 216.219 347.829 216.288 348.6C216.247 349.788 215.945 350.952 215.405 352.01L211.778 360.589C211.373 361.55 209.777 361.708 208.755 361.835C206.833 362.064 204.687 362.227 203.158 361.036C201.628 359.845 201.26 357.85 201.024 355.988C200.572 352.413 200.37 348.811 200.419 345.209C200.486 344.268 200.402 343.323 200.171 342.409C199.839 341.376 199.108 340.481 198.908 339.386C198.654 337.972 199.374 336.581 199.639 335.154C199.822 333.851 199.802 332.528 199.579 331.231C199.343 329.296 199.071 327.361 198.763 325.439C198.328 322.748 198.95 320.094 199.367 317.398C199.76 314.865 199.259 312.283 198.763 309.768C198.806 311.809 198.551 313.846 198.007 315.814C197.687 316.775 197.227 317.694 196.949 318.674C195.71 323.069 198.352 327.682 197.977 332.234C197.802 334.362 196.968 336.466 197.203 338.564C197.367 340.1 198.08 341.509 198.57 342.972C199.059 344.435 199.313 346.109 198.57 347.476C196.605 351.188 198.074 356.236 199.833 360.045C200.19 360.72 200.501 361.419 200.764 362.137C201.284 363.854 200.849 365.698 200.988 367.487C200.481 367.57 199.963 367.537 199.471 367.389C198.98 367.241 198.529 366.983 198.152 366.635C197.886 366.357 197.669 366.03 197.409 365.74C196.683 365.048 195.823 364.511 194.882 364.162C194.33 363.853 193.7 363.708 193.069 363.745C192.404 363.931 191.807 364.302 191.346 364.815C190.748 365.341 190.113 365.824 189.447 366.26C189.164 366.478 188.832 366.625 188.48 366.689C188.303 366.717 188.122 366.688 187.963 366.606C187.803 366.525 187.673 366.395 187.592 366.236C187.554 366.135 187.531 366.029 187.525 365.921C187.301 364.096 187.182 362.259 187.169 360.42C187.169 357.258 183.384 355.081 182.907 351.956C182.526 349.435 183.233 346.865 182.997 344.326C182.883 343.02 182.52 341.738 182.544 340.432C182.544 339.586 182.737 338.758 182.804 337.917C182.859 336.985 182.845 336.049 182.762 335.118L182.574 332.198C182.393 329.314 182.193 326.37 181.057 323.734C179.709 320.656 178.911 317.366 178.699 314.012C178.578 311.896 178.657 309.78 178.415 307.658C178.198 305.742 177.714 303.837 177.853 301.915C177.968 300.427 178.458 298.988 178.572 297.501C178.808 294.641 177.72 291.86 176.868 289.122C176.015 286.383 175.387 283.348 176.505 280.706C176.665 280.272 176.931 279.886 177.279 279.581C177.708 279.298 178.196 279.116 178.705 279.049C189.077 276.87 199.708 276.192 210.273 277.036C211.995 277.134 213.666 277.655 215.139 278.554Z" fill="#2B3049"/>
<path d="M180.821 214.341C186.17 214.341 190.505 210.005 190.505 204.656C190.505 199.307 186.17 194.97 180.821 194.97C175.473 194.97 171.137 199.307 171.137 204.656C171.137 210.005 175.473 214.341 180.821 214.341Z" fill="#BE6F72"/>
<path d="M178.947 216.753C179.086 217.307 179.086 217.887 178.947 218.44C178.795 218.827 178.581 219.187 178.312 219.504C177.375 220.714 176.338 221.842 175.211 222.878C175.785 224.16 176.818 225.18 178.107 225.738C179.387 226.282 180.729 226.666 182.103 226.88C182.789 227.061 183.502 227.11 184.206 227.025C184.855 226.862 185.47 226.584 186.02 226.203L191.4 222.981C192.212 222.541 192.964 221.998 193.637 221.366C194.623 220.352 195.182 218.997 195.196 217.582C195.221 217.328 195.153 217.074 195.003 216.868C194.797 216.689 194.538 216.581 194.265 216.56C192.373 216.143 190.88 214.607 190.034 212.866C189.269 211.081 188.774 209.192 188.565 207.262L182.828 210.284C181.976 210.738 181.129 211.191 180.247 211.584C179.685 211.838 178.548 212.05 178.149 212.564C177.388 213.513 178.748 215.611 178.947 216.753Z" fill="#BE6F72"/>
<path d="M175.248 221.119C174.431 221.788 173.793 222.65 173.392 223.628C173.017 224.837 173.392 226.112 173.73 227.309C175.317 232.412 176.529 237.623 177.357 242.902C177.865 246.529 178.053 250.211 178.3 253.881C178.808 261.365 179.546 273.3 180.531 280.736C184.158 280.899 187.694 279.841 191.291 279.454C198.013 278.741 204.935 280.373 211.518 278.85C209.922 272.544 208.326 261.777 206.73 255.477C206.024 252.995 205.535 250.456 205.267 247.889C205.128 246.045 205.213 244.195 205.237 242.339C205.292 238.712 205.092 235.084 204.893 231.457C204.663 227.225 204.433 222.993 203.43 218.851C203.36 218.324 203.113 217.835 202.728 217.467C202.124 217.026 201.338 217.183 200.619 217.279C198.416 217.559 196.187 217.031 194.344 215.792C193.546 215.248 192.476 214.583 191.732 215.188C191.415 215.552 191.206 215.998 191.128 216.475C190.799 217.331 190.291 218.106 189.639 218.749C188.986 219.392 188.204 219.889 187.344 220.206C185.621 220.83 183.817 221.2 181.988 221.306C181.428 221.426 180.844 221.36 180.325 221.119C179.467 220.593 179.407 218.7 178.325 218.573C177.375 218.464 175.888 220.508 175.248 221.119Z" fill="#2B3049"/>
<path d="M189.55 235.882C187.32 233.748 186.34 230.653 184.714 228.023C183.607 226.254 182.192 224.698 180.537 223.428C179.705 222.878 178.942 222.231 178.264 221.499C177.69 220.792 177.255 219.849 176.384 219.577C176.024 219.499 175.651 219.509 175.296 219.607C174.941 219.705 174.616 219.887 174.347 220.139C173.814 220.647 173.309 221.184 172.836 221.747C170.272 224.401 165.769 224.77 163.738 227.842C163.19 228.493 162.817 229.273 162.656 230.109C162.071 234.579 163.227 239.103 165.884 242.744C166.398 243.589 167.188 244.229 168.12 244.558C167.994 245.685 168.143 246.827 168.556 247.883C169.675 251.71 171.05 255.457 172.672 259.098C172.285 260.523 172.014 261.977 171.862 263.445C171.439 267.139 171.832 270.888 171.433 274.588C171.107 277.611 170.224 280.555 170.194 283.584C170.194 284.067 170.236 284.642 170.653 284.89C170.875 285.004 171.124 285.056 171.373 285.041L178.808 285.265C183.124 285.391 187.483 285.518 191.732 284.72C192.298 284.637 192.847 284.463 193.359 284.206C194.797 283.402 195.275 281.589 195.505 279.974C195.805 277.881 195.924 275.765 195.861 273.651C196.762 276.498 197.832 279.442 200.552 280.676C201.991 281.329 203.635 281.28 205.213 281.238C208.614 281.087 212.003 280.737 215.363 280.192C215.57 280.218 215.78 280.195 215.976 280.124C216.173 280.054 216.35 279.939 216.494 279.788C216.638 279.637 216.745 279.454 216.806 279.255C216.866 279.055 216.879 278.844 216.844 278.638L216.88 275.337C216.952 268.633 215.29 262.224 214.643 255.549C214.438 253.445 214.456 251.317 213.942 249.256C213.73 248.391 213.422 247.545 213.235 246.674C213.073 245.822 212.972 244.959 212.933 244.093L212.461 237.442C212.237 234.365 211.917 231.396 211.681 228.325C211.552 225.335 211.118 222.365 210.388 219.462C209.862 217.648 208.767 215.593 206.875 215.369C205.866 215.254 204.887 215.695 203.925 216.004C201.563 216.748 199.027 216.737 196.671 215.974C195.943 215.686 195.185 215.483 194.41 215.369C194.021 215.316 193.624 215.368 193.261 215.518C192.897 215.669 192.581 215.914 192.343 216.228C192.108 216.7 191.998 217.224 192.023 217.751C191.739 223.791 191.213 230.012 189.55 235.882Z" fill="#4A6CC9"/>
<path d="M179.824 236.064C177.037 233.126 174.178 230.133 170.587 228.265C169.172 227.527 167.564 226.971 165.999 227.249C164.433 227.527 162.976 228.887 163.049 230.477C163.097 231.463 163.696 232.334 163.883 233.301C164.101 234.389 163.786 235.55 164.125 236.602C164.4 237.295 164.811 237.926 165.334 238.458L169.614 243.53C171.427 245.646 173.241 247.793 175.574 249.256C177.907 250.719 180.93 251.402 183.493 250.362C185.317 249.514 186.833 248.123 187.833 246.378C188.897 244.685 189.647 242.835 190.644 241.088C192.197 238.296 194.245 235.811 196.689 233.754C195.432 233.428 193.854 232.968 193.062 231.941C192.837 231.614 192.645 231.266 192.488 230.901L191.509 228.785C191.176 228.767 190.843 228.819 190.531 228.937C190.219 229.054 189.934 229.235 189.695 229.468C189.275 229.953 188.825 230.412 188.347 230.84C187.495 231.481 186.34 231.656 185.567 232.388C185.267 232.702 184.996 233.042 184.757 233.404C184.171 234.173 183.428 234.808 182.578 235.267C181.727 235.726 180.788 235.998 179.824 236.064Z" fill="#2B3049"/>
<path d="M196.913 223.422C199.011 219.595 198.914 215.006 199.512 210.683C199.577 209.539 199.979 208.439 200.667 207.522C201.876 206.155 204.01 206.137 205.836 206.312C206.374 206.373 207.045 206.627 207.014 207.165C206.972 207.358 206.878 207.535 206.742 207.679C204.973 209.963 203.932 212.727 203.756 215.611C204.705 216.27 206.174 214.916 207.087 215.611C207.691 216.119 207.413 217.122 207.051 217.848C206.208 219.528 205.34 221.197 204.445 222.854C203.731 224.314 202.8 225.657 201.683 226.838C200.915 227.575 200.014 228.156 199.234 228.881C197.421 230.58 196.327 232.98 194.453 234.637C194.294 234.808 194.08 234.918 193.848 234.945C193.61 234.928 193.385 234.828 193.214 234.661C192.277 233.9 191.501 232.961 190.928 231.898C190.215 230.58 190.324 230.193 191.448 229.262C193.552 227.6 195.601 225.816 196.913 223.422Z" fill="#BE6F72"/>
<path d="M176.318 233.464C176.68 233.688 177.128 233.942 177.527 233.754C177.69 233.656 177.828 233.521 177.932 233.361C178.623 232.439 179.199 231.436 179.648 230.375C179.726 230.225 179.769 230.06 179.775 229.891C179.775 229.504 179.431 229.22 179.11 228.996C177.394 227.902 175.548 227.025 173.615 226.385C172.02 225.78 170.351 225.254 168.659 225.405C168.023 225.448 167.402 225.619 166.833 225.908C166.265 226.196 165.761 226.597 165.352 227.086C164.143 228.64 166.168 229.111 167.437 229.673C170.375 231.01 173.555 231.783 176.318 233.464Z" fill="#4A6CC9"/>
<path opacity="0.1" d="M174.413 243.742C174.393 243.88 174.405 244.021 174.449 244.153C174.494 244.285 174.568 244.406 174.667 244.504C174.843 243.645 174.613 242.738 174.794 241.874C175.06 240.574 176.324 239.595 176.432 238.289C174.117 237.835 174.432 242.339 174.413 243.742Z" fill="black"/>
<path opacity="0.2" d="M281 196.464V202.419L256.421 203.912L255.677 197.951L281 196.464Z" fill="black"/>
<path d="M172.104 206.095C173.64 204.843 172.751 202.219 173.791 200.539C174.395 199.62 175.417 199.136 176.42 198.725C177.631 198.158 178.929 197.799 180.259 197.661C180.925 197.597 181.597 197.684 182.225 197.915C182.853 198.146 183.421 198.516 183.886 198.997C184.279 199.444 184.545 199.988 184.914 200.454C185.37 200.997 185.966 201.406 186.636 201.638C187.307 201.871 188.027 201.917 188.722 201.772C189.526 201.591 190.36 200.98 190.306 200.158C190.215 199.658 189.96 199.202 189.58 198.864L187.852 196.947C185.887 194.771 183.705 192.461 180.821 191.917C178.814 191.536 176.759 192.075 174.824 192.721C174.045 192.981 173.168 193.368 172.951 194.16C172.805 194.704 173.023 195.297 172.896 195.847C172.648 196.941 171.246 197.31 170.593 198.229C169.94 199.148 170.14 200.236 169.952 201.252C169.765 202.268 169.221 203.259 169.154 204.311C169.112 204.946 169.432 206.125 170.146 206.355C170.859 206.584 171.663 205.339 172.104 206.095Z" fill="#2B3049"/>
<path d="M189.719 199.287C189.21 196.627 188.111 194.115 186.504 191.936C185.074 189.899 183.086 188.32 180.779 187.389C179.626 186.938 178.385 186.755 177.151 186.852C175.916 186.95 174.72 187.325 173.652 187.951C172.066 189.084 170.831 190.641 170.091 192.443C168.525 195.817 167.945 199.94 169.765 203.181C170.49 202.298 171.735 202.697 172.836 202.377C174.214 201.984 175.381 201.065 176.692 200.49C180.652 198.743 185.488 200.158 189.719 199.287Z" fill="#FED253"/>
<path opacity="0.1" d="M170.69 199.1C170.551 198.011 170.46 196.748 171.234 195.974C171.272 195.927 171.321 195.889 171.377 195.864C171.432 195.838 171.493 195.827 171.554 195.829C171.608 195.846 171.658 195.875 171.7 195.912C171.743 195.95 171.778 195.995 171.802 196.047C172.249 196.752 172.629 197.496 172.938 198.271C172.488 198.168 172.017 198.201 171.585 198.368C171.154 198.536 170.783 198.828 170.52 199.209" fill="black"/>
<path opacity="0.1" d="M184.817 196.029L184.599 193.87C184.564 193.692 184.579 193.508 184.642 193.338C184.733 193.196 184.873 193.092 185.036 193.048C185.199 193.003 185.373 193.02 185.524 193.096C185.822 193.261 186.067 193.506 186.231 193.804C186.735 194.576 187.152 195.401 187.477 196.264C186.503 196.077 185.502 196.089 184.533 196.301" fill="black"/>
<path opacity="0.1" d="M190.227 283.626V288.559L186.062 288.838H164.155V283.626H190.227Z" fill="black"/>
<path d="M190.227 283.626V288.838H164.155L94.8906 202.062V197.963H109.411L190.227 283.626Z" fill="#F1C0C0"/>
<path opacity="0.1" d="M190.227 283.626V288.838H164.155L94.8906 202.062V197.963H109.411L190.227 283.626Z" fill="black"/>
<path opacity="0.1" d="M190.227 283.626V288.838H164.155L94.8906 202.062V197.963L164.53 283.626H190.227Z" fill="black"/>
<path d="M103.97 370.601C104.016 370.846 104.01 371.098 103.954 371.341C103.898 371.584 103.792 371.813 103.643 372.013C103.495 372.214 103.306 372.381 103.09 372.505C102.874 372.629 102.634 372.708 102.386 372.735C100.706 373.303 98.9226 373.866 97.7317 375.153C96.5408 376.441 96.3051 378.829 97.7317 379.875C98.461 380.315 99.2982 380.543 100.15 380.534C102.888 380.722 105.741 380.685 108.226 379.525C110.003 378.702 111.678 377.3 113.63 377.427C114.64 377.487 115.716 377.959 116.617 377.499C117.517 377.04 117.771 375.758 117.777 374.688C117.8 372.454 117.463 370.231 116.78 368.104C116.689 367.814 112.844 367.59 112.385 367.499L107.724 366.895C106.842 366.78 104.937 366.115 104.242 366.853C103.547 367.59 103.97 369.724 103.97 370.601Z" fill="#4A6CC9"/>
<path d="M131.784 355.511C131.981 356.599 132.301 357.662 132.739 358.679C133.386 360.323 134.214 362.07 135.797 362.868C137.236 363.588 139.001 363.328 140.464 362.645C141.075 362.392 141.61 361.986 142.018 361.466C142.49 360.643 142.701 359.696 142.622 358.751C142.622 356.411 142.483 353.993 141.413 351.913C140.495 350.1 138.893 348.54 138.868 346.533L133.361 347.597C133.067 347.625 132.786 347.736 132.551 347.917C132.377 348.101 132.256 348.329 132.201 348.576C131.613 350.839 131.471 353.194 131.784 355.511Z" fill="#4A6CC9"/>
<path d="M66.0193 298.076C65.7896 300.022 65.8863 302.108 66.9019 303.789C67.9175 305.47 70.0574 306.582 71.9072 305.911C72.002 305.887 72.0909 305.844 72.1688 305.784C72.2467 305.725 72.3119 305.651 72.3606 305.566C72.4098 305.362 72.3818 305.147 72.282 304.962C71.4654 302.782 71.5326 300.37 72.4694 298.239C72.5903 297.961 72.8503 297.634 73.1344 297.743C73.2532 297.803 73.3488 297.901 73.4064 298.021C73.699 298.527 73.8455 299.105 73.8295 299.69C73.7442 300.219 73.7279 300.758 73.7812 301.292C73.896 301.812 74.4522 302.302 74.9358 302.078C75.0756 301.992 75.1965 301.879 75.291 301.744C75.3856 301.61 75.4519 301.458 75.4859 301.298C76.8339 297.398 76.2234 293.136 75.6068 289.055C75.612 288.961 75.5964 288.868 75.5614 288.781C75.5264 288.694 75.4727 288.615 75.4041 288.551C75.3354 288.487 75.2536 288.439 75.1643 288.41C75.0751 288.381 74.9805 288.372 74.8874 288.384C72.0342 288.1 70.4745 287.417 68.8424 290.071C67.4399 292.308 66.0193 295.385 66.0193 298.076Z" fill="#4A6CC9"/>
<path d="M99.376 288.154C98.5297 291.673 97.6773 295.234 97.6229 298.849C97.6378 301.101 97.8075 303.35 98.1307 305.578L98.7655 310.814C98.9831 312.579 99.1947 314.339 99.503 316.086C99.6996 316.986 99.8069 317.903 99.8233 318.825C99.764 319.733 99.6203 320.634 99.3941 321.515C99.014 323.366 98.8016 325.248 98.7594 327.138C98.6929 330.161 99.0677 333.183 99.3035 336.206C99.7741 342.23 99.7033 348.284 99.0919 354.295C98.8478 355.918 99.2 357.574 100.083 358.957C100.442 359.393 100.737 359.877 100.96 360.396C101.413 361.78 100.355 363.165 100.083 364.585C99.9093 365.693 100.182 366.825 100.842 367.732C101.501 368.639 102.494 369.246 103.602 369.422C108.438 369.996 113.407 369.736 117.765 371.949C118.225 370.607 117.221 369.083 117.68 367.717C117.971 366.871 118.769 366.32 119.313 365.607C120.044 364.52 120.408 363.228 120.352 361.919C120.374 360.211 120.07 358.514 119.458 356.919C118.944 355.589 118.206 354.277 118.249 352.85C118.249 352.149 118.497 351.412 118.212 350.765C118.018 350.393 117.753 350.062 117.433 349.791C115.626 347.812 114.516 345.296 114.271 342.627C114.035 339.978 114.121 337.311 114.525 334.683C114.821 332.18 115.22 329.538 116.81 327.585C116.073 321.664 116.506 315.655 118.085 309.901C118.243 309.369 118.491 308.752 119.035 308.625C119.251 308.603 119.469 308.633 119.671 308.713C119.873 308.793 120.053 308.921 120.195 309.085C121.144 309.974 121.598 311.261 122.009 312.495C122.462 313.831 122.922 315.258 122.577 316.624C122.432 317.229 122.142 317.761 121.972 318.341C121.605 319.507 121.669 320.767 122.154 321.89C122.39 322.3 122.538 322.755 122.589 323.226C122.533 323.63 122.41 324.023 122.226 324.387C122.002 325.102 121.931 325.857 122.017 326.602C122.104 327.346 122.346 328.065 122.728 328.71C123.499 329.993 124.449 331.16 125.551 332.174C125.025 334.494 125.161 336.916 125.944 339.163C126.001 339.264 126.037 339.375 126.05 339.49C126.064 339.606 126.054 339.722 126.023 339.834C125.914 340.064 125.636 340.148 125.418 340.311C124.814 340.807 125.188 341.744 125.593 342.391C126.703 344.167 127.929 345.867 129.263 347.482C130.472 348.927 130.363 351.714 132.164 352.234C132.921 352.397 133.705 352.397 134.462 352.234C136.239 351.962 138.222 351.448 139.092 349.876C139.449 349.229 139.594 348.443 140.15 347.959C140.706 347.476 141.425 347.391 141.734 346.811C142.042 346.23 141.698 345.469 141.8 344.797C141.903 344.126 142.489 343.588 142.677 342.881C143.124 341.249 141.22 339.906 140.96 338.238C140.585 335.819 143.632 334.006 143.505 331.587C143.239 326.334 143.07 321.056 142.798 315.802C142.456 311.096 142.408 306.373 142.653 301.661C142.864 298.728 143.257 295.657 142.181 292.93C140.634 289.085 136.366 286.927 132.237 286.516C128.108 286.105 123.992 287.084 119.899 287.725C113.107 288.772 106.206 288.916 99.376 288.154Z" fill="#2B3049"/>
<path d="M111.647 230.369C116.996 230.369 121.332 226.032 121.332 220.683C121.332 215.334 116.996 210.998 111.647 210.998C106.299 210.998 101.963 215.334 101.963 220.683C101.963 226.032 106.299 230.369 111.647 230.369Z" fill="#FBBEBE"/>
<path d="M107.706 232.176C107.377 232.942 106.824 233.591 106.119 234.037C105.415 234.482 104.592 234.704 103.759 234.673C103.408 236.124 104.248 237.587 105.209 238.73C107.205 241.053 109.785 242.801 112.681 243.795C115.578 244.788 118.687 244.991 121.688 244.383C122.856 244.174 123.964 243.711 124.935 243.029C126.243 241.936 127.121 240.415 127.413 238.736C127.691 237.069 127.77 235.374 127.649 233.688C127.683 233.355 127.587 233.021 127.383 232.757C127.141 232.569 126.842 232.471 126.536 232.479C124.493 232.297 122.359 232.219 120.564 231.215C118.769 230.211 117.493 227.944 118.358 226.082C118.218 226.372 114.688 226.511 114.223 226.572C112.766 226.777 111.309 227.007 109.858 227.273C109.161 227.311 108.472 227.442 107.809 227.66C106.932 228.114 107.259 227.89 107.464 228.712C107.773 229.97 108.226 230.87 107.706 232.176Z" fill="#FBBEBE"/>
<path d="M115.075 238.065C113.771 238.08 112.469 237.936 111.2 237.636C109.918 237.336 108.789 236.582 108.02 235.514C107.573 234.836 107.283 233.984 106.57 233.603C105.403 232.999 104.073 234.02 103.142 234.957C102.294 235.882 101.312 236.672 100.228 237.303C98.9347 237.986 97.4234 238.228 96.2023 239.032C95.2483 239.753 94.4297 240.637 93.7843 241.644L85.2184 253.312C81.7788 258.004 78.7865 263.04 75.7216 267.992C73.0678 272.278 71.6775 277.211 69.6765 281.836C69.5181 282.12 69.4525 282.445 69.4892 282.768C69.5617 283.082 69.9425 283.336 70.2085 283.154C69.3078 284.049 70.0997 285.573 69.8881 286.83C69.6476 287.71 69.146 288.497 68.4494 289.085C69.78 288.912 71.1307 288.975 72.4391 289.273C73.7914 289.656 75.0675 290.27 76.2113 291.087C76.9427 290.972 76.8762 289.672 77.4203 289.188C77.7467 288.904 78.2303 288.94 78.6595 288.856C80.2736 288.541 80.9143 286.601 82.1536 285.506C83.1873 284.593 84.6502 284.297 85.7443 283.439C87.5216 282.042 87.9024 279.557 88.8334 277.496C89.6253 275.748 90.8706 274.225 91.5657 272.435C92.0191 271.274 92.2367 270.017 92.8836 268.947C93.9173 267.218 95.8638 266.299 97.7196 265.471C98.8924 264.945 100.138 264.4 101.401 264.485C101.335 267.296 100.978 270.065 101.588 272.81C101.8 273.777 102.096 274.721 102.35 275.682C103.505 280.011 103.777 284.521 103.831 288.983C106.609 288.347 109.445 288.007 112.294 287.967C114.537 287.9 116.774 288.191 119.016 288.148C121.676 288.1 124.306 287.586 126.966 287.405C129.625 287.223 132.406 287.405 134.758 288.614C134.567 284.782 134.674 280.942 135.078 277.127L135.719 271.117C135.864 269.371 136.132 267.638 136.523 265.93C136.874 264.552 137.381 263.221 137.768 261.849C139.128 257.012 138.88 251.849 138.621 246.813C138.488 244.226 137.49 241.68 136.317 239.377C135.893 238.521 135.408 237.697 134.867 236.91C133.449 234.957 131.561 233.395 129.377 232.37C127.193 231.344 124.785 230.889 122.377 231.046C122.07 231.055 121.767 231.121 121.483 231.239C120.973 231.566 120.574 232.04 120.34 232.599C119.09 234.848 117.275 236.731 115.075 238.065Z" fill="#2B3049"/>
<path d="M103.13 223.894C103.402 223.289 104.133 223.065 104.581 222.582C105.439 221.663 105.052 220.194 105.185 218.954C105.403 217.14 106.908 215.623 108.631 214.976C110.388 214.412 112.257 214.294 114.072 214.631C114.945 214.695 115.788 214.976 116.526 215.448C116.84 215.677 117.13 215.974 117.427 216.185C117.967 216.512 118.613 216.614 119.227 216.471C119.841 216.327 120.375 215.949 120.715 215.417C118.575 212.842 116.205 210.121 112.953 209.329C111.838 209.102 110.701 208.994 109.562 209.009C108.057 208.979 106.503 208.954 105.113 209.529C103.221 210.309 101.891 212.104 101.208 214.039C100.61 216 100.291 218.035 100.259 220.085C100.135 221.452 100.135 222.828 100.259 224.196C100.492 226.064 101.186 227.844 102.278 229.377C102.425 229.615 102.634 229.809 102.882 229.939C105.639 231.149 102.906 224.395 103.13 223.894Z" fill="#2B3049"/>
<path d="M120.401 213.924C120.068 211.076 118.037 208.725 115.879 206.832C114.14 205.192 112.068 203.944 109.804 203.175C107.525 202.504 104.901 202.649 102.949 204.009C101.377 205.103 100.379 206.844 99.6117 208.598C98.6032 210.667 98.1037 212.947 98.1549 215.248C98.306 217.533 99.4183 219.849 101.401 221.004C102.114 219.952 103.354 219.408 104.545 218.978C109.735 217.009 115.028 215.322 120.401 213.924Z" fill="#FED253"/>
<path opacity="0.1" d="M102.066 212.739C102.259 212.739 102.386 212.939 102.483 213.102C102.975 213.869 103.398 214.678 103.747 215.52C103.039 215.671 101.824 215.841 101.474 215.218C101.286 214.903 101.51 212.709 102.066 212.739Z" fill="black"/>
<path opacity="0.1" d="M115.843 211.373C115.698 211.512 115.528 211.228 115.528 211.022V208.676C115.524 208.611 115.539 208.546 115.571 208.489C115.596 208.46 115.626 208.437 115.661 208.42C115.695 208.404 115.732 208.394 115.77 208.392C116.26 208.338 116.665 208.755 116.979 209.154C117.456 209.801 117.871 210.491 118.218 211.216L115.661 211.137" fill="black"/>
<path d="M147.755 250.217C148.311 249.689 148.905 249.202 149.532 248.76C151.206 247.641 153.231 247.2 155.111 246.487C156.991 245.773 158.902 244.619 159.633 242.744C159.999 241.572 160.119 240.337 159.984 239.117C160.001 238.606 159.911 238.097 159.718 237.624C159.488 237.205 159.16 236.848 158.763 236.584C156.212 234.697 152.79 234.546 149.623 234.74C142.639 235.173 135.794 236.882 129.426 239.782C129.089 239.893 128.794 240.104 128.58 240.387C128.456 240.649 128.4 240.938 128.416 241.227C128.304 243.01 128.536 244.798 129.1 246.493C129.934 248.645 131.651 250.38 132.37 252.575C132.696 253.56 132.805 254.606 133.089 255.598C133.322 256.622 133.928 257.522 134.788 258.125C137.176 259.552 139.431 257.635 141.087 256.148L147.755 250.217Z" fill="#2B3049"/>
<path d="M116.484 258.59L113.419 251.904C112.969 250.977 112.582 250.022 112.258 249.044C111.907 247.877 111.738 246.668 111.412 245.495C110.336 241.59 107.621 238.337 106.298 234.51C106.214 234.165 106.043 233.846 105.802 233.585C105.609 233.448 105.388 233.356 105.155 233.314C104.922 233.272 104.683 233.282 104.454 233.343C102.604 233.664 101.159 235.072 99.4667 235.87C98.6808 236.233 97.8345 236.475 97.0486 236.892C96.6558 237.078 96.3078 237.347 96.0282 237.68C95.7486 238.012 95.5441 238.402 95.4286 238.821C95.2412 239.746 95.7006 240.634 96.0875 241.535C97.7317 245.247 98.1065 249.395 98.1791 253.458C98.2335 256.19 98.0944 259.123 96.4804 261.317C93.3793 265.549 95.3621 271.764 96.5227 276.885C96.6617 277.49 96.825 278.143 96.9217 278.783C97.024 279.585 97.0704 280.393 97.0607 281.202C97.0607 283.916 96.9096 286.716 95.7731 289.176C96.8952 289.773 98.1318 290.124 99.4002 290.204C102.91 290.651 106.435 290.966 109.973 291.147C111.082 291.251 112.199 291.194 113.292 290.978C114.589 290.627 115.732 289.854 116.541 288.781C117.35 287.709 117.779 286.397 117.759 285.053C117.952 286.728 118.309 288.547 119.524 289.708C120.739 290.869 122.51 291.044 124.161 291.135C128.818 291.382 133.488 291.251 138.125 290.742C138.421 290.729 138.712 290.661 138.983 290.543C139.878 290.095 139.926 288.862 139.854 287.87C139.721 286.014 139.582 284.158 139.358 282.314C139.168 281.139 139.071 279.95 139.068 278.759C139.16 277.534 139.362 276.32 139.672 275.132C140.482 271.359 141.123 267.508 140.851 263.645C140.744 262.704 140.705 261.756 140.736 260.809C140.894 258.675 142.018 256.644 141.806 254.522C141.202 248.282 140.712 241.88 138.971 235.858C138.657 234.782 138.258 233.627 137.321 233.011C136.112 232.201 134.413 232.624 133.029 232.11C132.379 231.808 131.762 231.441 131.185 231.016C129.932 230.232 128.496 229.79 127.02 229.734C125.908 229.692 124.669 229.939 123.998 230.834C123.687 231.338 123.481 231.899 123.393 232.485C122.517 236.173 121.489 239.818 120.461 243.464L119.476 246.958L116.834 256.341C116.574 257.339 116.75 257.647 116.484 258.59Z" fill="#4A6CC9"/>
<path d="M131.941 221.983L190.415 283.439V288.65H164.342L120.401 231.294" fill="#F1C0C0"/>
<path opacity="0.1" d="M131.941 221.983L190.415 283.439V288.65H164.342L120.401 231.294" fill="black"/>
<path opacity="0.1" d="M121.332 230.484L121.519 230.55L164.717 283.439H190.415V288.65H164.342L120.401 231.294L121.332 230.484Z" fill="black"/>
<path d="M128.06 231.777C125.944 232.702 123.593 233.887 122.958 236.112C122.832 236.503 122.805 236.918 122.879 237.321C123.034 237.796 123.329 238.212 123.725 238.515C124.121 238.819 124.6 238.995 125.098 239.02C126.093 239.044 127.083 238.863 128.005 238.488L140.488 234.365C140.827 234.256 141.214 234.093 141.299 233.76C141.32 233.551 141.278 233.34 141.178 233.156C140.791 232.213 140.41 230.284 139.6 229.625C138.935 229.093 137.617 229.28 136.813 229.292C133.718 229.317 130.81 230.568 128.06 231.777Z" fill="#4A6CC9"/>
<path d="M139.189 234.855C141.292 234.849 143.383 235.173 145.385 235.816C147.396 236.469 149.178 237.686 150.517 239.323C150.907 239.78 151.185 240.322 151.327 240.907C151.448 241.511 153.419 241.874 152.984 242.285C154.308 242.073 153.993 242.696 155.335 242.684C156.677 242.672 158.128 242.327 158.932 241.257C159.491 240.378 159.74 239.338 159.639 238.301C159.657 237.583 159.521 236.87 159.24 236.209C158.636 234.939 157.245 234.256 155.964 233.67L145.167 228.73C144.541 228.397 143.869 228.159 143.173 228.023C142.587 227.968 141.996 227.982 141.413 228.065L136.523 228.628C137.592 229.32 138.463 230.279 139.049 231.41C139.636 232.541 139.917 233.805 139.866 235.078" fill="#2B3049"/>
</g>
<defs>
<clipPath id="clip0_62_13">
<rect width="573" height="413" fill="white"/>
</clipPath>
</defs>
</svg>
