<svg width="463" height="448" viewBox="0 0 463 448" fill="none" xmlns="http://www.w3.org/2000/svg">
<g clip-path="url(#clip0_29_16)">
<path d="M310.248 83.1297H267.987V15.6349L310.248 29.1338V83.1297Z" fill="#2F2E41"/>
<path d="M317.75 425.821L309.029 426.027L304.168 386.813L317.038 386.508L317.75 425.821Z" fill="#A0616A"/>
<path d="M287.829 444.032C287.829 445.507 288.875 446.702 290.164 446.702H307.475C307.475 446.702 309.179 439.848 316.124 436.899L316.604 446.702H325.534L324.452 430.939C324.452 430.939 326.84 422.506 321.879 418.195C316.918 413.884 320.937 414.484 320.937 414.484L318.985 404.728L305.491 406.317L305.391 421.631L298.843 436.832L289.238 441.581C288.383 442.004 287.829 442.967 287.829 444.032Z" fill="#2B3049"/>
<path d="M273.054 425.821L264.333 426.027L259.471 386.813L272.341 386.508L273.054 425.821Z" fill="#A0616A"/>
<path d="M243.132 444.032C243.132 445.507 244.178 446.702 245.468 446.702H262.779C262.779 446.702 264.482 439.848 271.428 436.899L271.907 446.702H280.837L279.755 430.939C279.755 430.939 282.144 422.506 277.183 418.195C272.222 413.884 276.24 414.484 276.24 414.484L274.288 404.728L260.794 406.317L260.695 421.631L254.146 436.832L244.541 441.581C243.686 442.004 243.132 442.967 243.132 444.032Z" fill="#2B3049"/>
<path d="M312.945 156.924L257.197 190.222L244.609 241.518L250.903 399.906H278.508L284.622 247.367L296.86 399.906H324.896L331.988 228.611C333.941 216.162 332.399 203.415 327.536 191.792L312.945 156.924Z" fill="#2B3049"/>
<path d="M300.357 55.2319L276.979 53.432L270.685 66.031L252.702 70.5307L248.206 126.326C257.1 149.453 262.683 171.553 257.197 190.222L325.534 186.622L314.124 155.744C314.124 155.744 313.844 144.325 320.139 129.026C326.433 113.727 316.542 74.1304 316.542 74.1304L302.155 70.5307L300.357 55.2319Z" fill="#4A6CC9"/>
<path d="M142.946 76.9363C145.222 77.0069 147.326 76.5571 148.98 75.7512L170.623 77.7947L171.294 67.4588L149.267 66.4987C147.665 65.5919 145.594 65.0125 143.317 64.9419C138.117 64.7807 133.818 67.335 133.715 70.6471C133.613 73.9593 137.746 76.775 142.946 76.9363Z" fill="#A0616A"/>
<path d="M270.973 108.49C270.973 108.49 270.209 75.5627 262.993 70.6205C260.017 68.5823 214.261 68.1193 212.594 67.9464C202.315 66.8801 195 62.7954 186.344 62.3476C165.251 61.2566 154.588 66.3796 154.588 66.3796L154.216 76.951L270.973 108.49Z" fill="#4A6CC9"/>
<path d="M286.677 52.5789C296.986 52.5789 305.344 44.2141 305.344 33.8956C305.344 23.5772 296.986 15.2124 286.677 15.2124C276.367 15.2124 268.009 23.5772 268.009 33.8956C268.009 44.2141 276.367 52.5789 286.677 52.5789Z" fill="#A0616A"/>
<path d="M281.015 6.07521C277 8.60841 274.059 6.79478 271.191 8.07236C265.588 10.5685 256.128 28.1006 256.981 35.4406C258.189 45.836 262.006 46.2641 261.892 53.7223C261.71 65.6985 260.759 65.6488 263.209 69.8305C265.935 74.4815 281.372 73.2187 284.238 66.9116C284.804 65.6673 278.523 66.1566 271.584 49.8323C268.102 41.6407 270.388 34.1763 271.584 30.9337C271.864 30.1745 271.992 24.785 272.59 25.3831C277.83 30.6278 280.767 26.794 283.931 26.354C290.425 25.4511 295.315 30.6945 297.285 28.812C298.751 27.4113 296.881 23.7077 297.592 23.4351C298.35 23.1445 300.861 27.2074 302.504 31.5773C303.564 34.3954 304.094 35.8044 304.039 37.4152C303.87 42.3895 302.603 56.4932 300.357 60.6315C295.508 69.568 301.614 72.94 305.421 72.2885C308.496 71.7622 322.092 73.8345 322.836 72.3306C323.499 70.9908 321.985 57.2096 320.394 44.3976C318.481 28.9984 310.816 14.8474 298.797 5.04446C298.092 4.46959 297.566 4.07516 297.285 3.92445C296.62 3.56748 289.756 0.000460863 284.699 2.84907C282.837 3.89775 283.14 4.73435 281.015 6.07521Z" fill="#2B3049"/>
<path d="M47.8299 440.407L37.4727 440.406L32.5457 400.422L47.832 400.423L47.8299 440.407Z" fill="#FFB6B6"/>
<path d="M12.3447 440.172C12.0223 440.715 11.8521 442.47 11.8521 443.102C11.8521 445.045 13.4259 446.62 15.3674 446.62H47.4425C48.7669 446.62 49.8407 445.546 49.8407 444.22V442.883C49.8407 442.883 51.4274 438.866 48.1606 433.915C48.1606 433.915 44.1004 437.792 38.0335 431.72L36.2444 428.476L23.2938 437.956L16.1155 438.84C14.545 439.033 13.1526 438.81 12.3447 440.172Z" fill="#2B3049"/>
<path d="M91.4977 440.407L81.1405 440.406L76.2135 400.422L91.4998 400.423L91.4977 440.407Z" fill="#FFB6B6"/>
<path d="M56.0125 440.172C55.69 440.715 55.5199 442.47 55.5199 443.102C55.5199 445.045 57.0937 446.62 59.0352 446.62H91.1103C92.4347 446.62 93.5084 445.546 93.5084 444.22V442.883C93.5084 442.883 95.0952 438.866 91.8284 433.915C91.8284 433.915 87.7682 437.792 81.7012 431.72L79.9122 428.476L66.9616 437.956L59.7833 438.84C58.2128 439.033 56.8204 438.81 56.0125 440.172Z" fill="#2B3049"/>
<path d="M93.5517 187.967L17.5698 187.093L9.70959 236.917L28.9234 409.115H54.1132L59.9275 248.717L70.4078 412.175H96.1993L107.962 225.99L93.5517 187.967Z" fill="#2B3049"/>
<path d="M415.674 433.539C417.478 433.653 418.475 431.409 417.11 430.101L416.974 429.561C416.992 429.518 417.01 429.474 417.028 429.431C418.853 425.077 425.037 425.107 426.846 429.468C428.451 433.338 430.496 437.216 430.999 441.308C431.225 443.115 431.123 444.955 430.723 446.728C434.485 438.502 436.465 429.52 436.465 420.487C436.465 418.217 436.341 415.948 436.087 413.684C435.879 411.832 435.591 409.991 435.219 408.168C433.205 398.31 428.844 388.922 422.555 381.08C419.531 379.425 417.01 376.84 415.487 373.74C414.94 372.622 414.511 371.42 414.308 370.195C414.652 370.24 415.605 364.995 415.346 364.673C415.825 363.945 416.684 363.583 417.207 362.872C419.812 359.338 423.4 359.955 425.274 364.758C429.276 366.779 429.315 370.132 426.859 373.356C425.297 375.408 425.082 378.183 423.711 380.38C423.852 380.56 423.999 380.735 424.14 380.916C426.726 384.236 428.963 387.804 430.848 391.553C430.315 387.386 431.102 382.367 432.443 379.132C433.97 375.445 436.832 372.341 439.352 369.154C442.379 365.326 448.586 366.997 449.12 371.849C449.125 371.896 449.13 371.943 449.135 371.99C448.761 372.201 448.394 372.426 448.036 372.663C445.992 374.015 446.699 377.185 449.119 377.56L449.174 377.568C449.039 378.917 448.808 380.255 448.469 381.571C451.702 394.084 444.722 398.642 434.756 398.847C434.536 398.96 434.322 399.073 434.102 399.18C435.112 402.025 435.918 404.944 436.516 407.903C437.052 410.516 437.424 413.159 437.633 415.812C437.893 419.16 437.87 422.525 437.588 425.867L437.605 425.749C438.321 422.068 440.318 418.629 443.218 416.247C447.537 412.696 453.639 411.388 458.299 408.534C460.542 407.16 463.416 408.935 463.025 411.538L463.006 411.663C462.312 411.945 461.635 412.272 460.981 412.639C460.606 412.851 460.24 413.075 459.881 413.312C457.838 414.665 458.544 417.835 460.965 418.209L461.02 418.217C461.06 418.223 461.094 418.229 461.133 418.234C459.943 421.063 458.284 423.688 456.208 425.952C454.187 436.876 445.505 437.912 436.217 434.731H436.212C435.196 439.157 433.713 443.482 431.806 447.603H416.068C416.012 447.428 415.961 447.248 415.91 447.073C417.365 447.163 418.832 447.078 420.265 446.813C419.097 445.379 417.929 443.934 416.762 442.5C416.734 442.471 416.711 442.443 416.688 442.415C416.096 441.681 415.498 440.953 414.906 440.219L414.906 440.218C414.868 437.965 415.139 435.719 415.674 433.539Z" fill="#E9F2FC"/>
<path d="M67.7877 57.288H40.7447L35.4736 67.7772L9.70959 79.619L18.8798 147.321L11.893 191.9H99.1701L91.3683 140.328L101.849 78.2665L73.0279 66.9031L67.7877 57.288Z" fill="#E9F2FC"/>
<path d="M158.309 221.342C157.13 218.934 156.592 216.459 156.653 214.292L143.969 192.06L154.715 186.329L166.425 209.498C168.173 210.777 169.798 212.719 170.977 215.128C173.672 220.63 173.02 226.481 169.522 228.197C166.024 229.913 161.004 226.844 158.309 221.342Z" fill="#FFB6B6"/>
<path d="M74.7046 75.2831C74.7046 75.2831 83.2612 66.4717 92.8598 72.6035C102.458 78.7352 137.474 141.482 137.474 141.482L164.484 195.425L145.419 204.315L122.417 152.66L74.1116 100.632L74.7046 75.2831Z" fill="#E9F2FC"/>
<path d="M53.1209 52.1751C66.6075 52.1751 77.5404 41.2327 77.5404 27.7347C77.5404 14.2366 66.6075 3.29419 53.1209 3.29419C39.6344 3.29419 28.7014 14.2366 28.7014 27.7347C28.7014 41.2327 39.6344 52.1751 53.1209 52.1751Z" fill="#FFB6B6"/>
<path d="M45.4574 47.4046C45.5704 49.799 45.627 50.9962 45.2594 51.1409C44.1531 51.5765 29.9063 43.1555 28.2287 37.5497C27.4463 34.9352 28.107 34.8831 27.5359 27.4448C26.9896 20.3307 26.3773 20.274 27.1012 18.514C27.9059 16.5577 30.3634 14.1475 35.2782 9.32699C37.1366 7.50433 38.0658 6.593 38.6523 6.12181C40.4301 4.69373 47.0528 -0.626356 53.1255 0.0609791C55.671 0.349093 55.7707 0.96053 65.2801 6.12181C66.0992 6.56636 66.6628 7.55894 68.1797 8.23272C71.8689 9.87142 74.1576 10.2963 75.3625 10.7532C82.6646 13.5228 80.5217 28.9506 79.8942 29.039C79.6655 29.0712 79.6034 27.0707 78.4051 26.9053C77.3265 26.7564 76.6397 28.2755 75.6594 28.3308C72.9823 28.4818 75.9553 25.9168 69.4031 23.068C66.8559 21.9606 73.9434 26.9539 67.1965 26.8729C56.6454 26.7461 63.3935 27.4182 59.3865 29.5249C56.4643 31.0612 44.7087 22.6064 45.1864 25.308C45.5233 27.2136 46.9049 27.7622 46.7056 29.897C46.5125 31.9651 44.9595 34.1942 43.5897 34.2761C42.3271 34.3516 41.6352 32.5783 41.2141 32.748C40.756 32.9326 41.2591 35.1579 42.2469 37.4441C43.501 40.3465 44.2495 40.3692 44.9109 42.6014C45.2913 43.8853 45.3466 45.0584 45.4574 47.4046Z" fill="#2B3049"/>
<path d="M237.923 214.166L80.5808 174.099C70.5229 171.538 64.422 161.265 66.981 151.198L86.5552 74.1973C89.1142 64.1307 99.3791 58.0245 109.437 60.5857L266.779 100.652C276.837 103.213 282.938 113.487 280.379 123.553L260.804 200.554C258.245 210.621 247.981 216.727 237.923 214.166Z" fill="#E9F2FC"/>
<path d="M237.923 214.166L80.5808 174.099C75.5519 172.819 71.5122 169.61 68.6264 165.356C64.4277 159.165 63.3321 151.372 65.1754 144.121L81.5897 79.5503C83.433 72.2994 88.1168 65.9776 94.7608 62.5483C99.3273 60.1914 104.408 59.3051 109.437 60.5857L266.779 100.652C276.853 103.217 282.942 113.471 280.379 123.553L260.804 200.554C258.245 210.621 247.981 216.727 237.923 214.166ZM109.006 62.28C99.8671 59.9527 102.256 68.2369 99.9305 77.384C88.5859 122.011 112.05 168.149 154.784 185.212C177.853 194.423 197.04 201.951 197.04 201.951C228.996 210.089 261.492 190.758 269.623 158.775L278.686 123.122C281.011 113.975 275.487 104.674 266.348 102.346L109.006 62.28Z" fill="#2B3049"/>
<path d="M182.626 122.959C181.529 113.938 173.334 107.514 164.32 108.612C155.392 109.699 149.015 117.757 149.961 126.677L149.699 126.709L153.67 159.377L183.705 155.72C184.654 155.772 185.62 155.746 186.596 155.627C195.609 154.53 202.027 146.327 200.931 137.306C199.834 128.285 191.639 121.862 182.626 122.959Z" fill="#4A6CC9"/>
<path d="M125.055 431.565C123.783 428.285 120.094 426.657 116.816 427.931C113.569 429.192 111.945 432.825 113.151 436.082L113.056 436.119L117.662 448L128.585 443.757C128.946 443.686 129.306 443.584 129.661 443.446C132.939 442.173 134.565 438.481 133.293 435.2C132.021 431.92 128.333 430.292 125.055 431.565Z" fill="#E9F2FC"/>
<path d="M369.594 431.565C368.322 428.285 364.634 426.657 361.356 427.931C358.109 429.192 356.485 432.825 357.691 436.082L357.595 436.119L362.202 448L373.125 443.757C373.486 443.686 373.846 443.584 374.201 443.446C377.479 442.173 379.105 438.481 377.833 435.2C376.561 431.92 372.872 430.292 369.594 431.565Z" fill="#E9F2FC"/>
<path d="M169.729 217.116C181.305 217.116 190.689 207.723 190.689 196.137C190.689 184.551 181.305 175.158 169.729 175.158C158.152 175.158 148.768 184.551 148.768 196.137C148.768 207.723 158.152 217.116 169.729 217.116Z" fill="#4A6CC9"/>
<path d="M74.4451 111.058C72.196 112.516 69.8043 113.345 67.6481 113.542L47.0995 128.789L40.1366 118.791L61.7308 104.4C62.7916 102.511 64.5251 100.666 66.7742 99.2072C71.9122 95.8756 77.7945 95.8277 79.9127 99.1001C82.031 102.373 79.583 107.726 74.4451 111.058Z" fill="#FFB6B6"/>
<path d="M26.3166 75.4777C26.3166 75.4777 10.5962 73.7295 7.97615 79.8482C5.35609 85.967 0.115952 147.154 0.115952 147.154L8.84951 162.014L66.1231 118.63L54.5246 107.022L29.9785 118.63L26.3166 75.4777Z" fill="#E9F2FC"/>
<path d="M254.013 95.2491C255.881 97.1721 258.028 98.5134 260.086 99.186L276.726 118.63L285.739 110.435L267.889 91.593C267.275 89.5149 265.996 87.329 264.128 85.406C259.86 81.0129 254.136 79.655 251.343 82.3731C248.55 85.0912 249.745 90.856 254.013 95.2491Z" fill="#A0616A"/>
<path d="M308.849 71.2901C308.849 71.2901 324.564 73.0898 325.757 79.6389C326.95 86.188 318.443 147.007 318.443 147.007L306.623 159.547L260.441 104.486L274.331 95.7548L295.677 112.543L308.849 71.2901Z" fill="#4A6CC9"/>
<path d="M96.9609 141.905C104.198 141.905 110.065 136.033 110.065 128.789C110.065 121.546 104.198 115.674 96.9609 115.674C89.7236 115.674 83.8567 121.546 83.8567 128.789C83.8567 136.033 89.7236 141.905 96.9609 141.905Z" fill="#E9F2FC"/>
</g>
<defs>
<clipPath id="clip0_29_16">
<rect width="463" height="448" fill="white"/>
</clipPath>
</defs>
</svg>
