<svg width="68" height="38" viewBox="0 0 68 38" fill="none" xmlns="http://www.w3.org/2000/svg">
<g clip-path="url(#clip0_98_53)">
<path d="M35.1296 2.70483C44.1169 2.70483 51.411 10.0342 51.411 19.065C51.411 28.0958 44.1169 35.4252 35.1296 35.4252C26.1422 35.4252 18.8482 28.0958 18.8482 19.065C18.8482 10.0342 26.1422 2.70483 35.1296 2.70483Z" fill="#5E88FC"/>
<path d="M35.2108 2.65845C44.2236 2.65845 51.5383 10.0086 51.5383 19.065C51.5383 28.1214 44.2236 35.4715 35.2108 35.4715C26.198 35.4715 18.8833 28.1214 18.8833 19.065C18.8833 10.0086 26.198 2.65845 35.2108 2.65845Z" stroke="#4A6CC9" stroke-width="2" stroke-linecap="round"/>
<path d="M35.1296 10.7485C39.7889 10.7485 43.5704 14.5483 43.5704 19.2302C43.5704 23.912 39.7889 27.7118 35.1296 27.7118C30.4702 27.7118 26.6888 23.912 26.6888 19.2302C26.6888 14.5483 30.4702 10.7485 35.1296 10.7485Z" fill="#1A1C2B"/>
<path d="M38.7719 10.7485L35.8832 19.0173L45.7872 16.3328L38.7719 10.7485Z" fill="#5E88FC"/>
<path d="M1.68584 20.1367C1.68584 20.1367 32.0977 54.8409 67.6902 20.1367C67.488 19.7304 62.3928 12.8038 53.7642 7.73882C41.9183 0.785399 23.4128 -2.65932 1.76563 19.0926C1.47782 20.153 1.68584 20.1367 1.68584 20.1367Z" stroke="#4A6CC9" stroke-width="2" stroke-linecap="round"/>
</g>
<defs>
<clipPath id="clip0_98_53">
<rect width="68" height="38" fill="white"/>
</clipPath>
</defs>
</svg>
