<svg width="68" height="34" viewBox="0 0 68 34" fill="none" xmlns="http://www.w3.org/2000/svg">
<g clip-path="url(#clip0_98_53)">
<path d="M35.1296 0.704834C44.1169 0.704834 51.411 8.0342 51.411 17.065C51.411 26.0958 44.1169 33.4252 35.1296 33.4252C26.1422 33.4252 18.8482 26.0958 18.8482 17.065C18.8482 8.0342 26.1422 0.704834 35.1296 0.704834Z" fill="#5E88FC"/>
<path d="M35.2108 0.658447C44.2236 0.658447 51.5383 8.00857 51.5383 17.065C51.5383 26.1214 44.2236 33.4715 35.2108 33.4715C26.198 33.4715 18.8833 26.1214 18.8833 17.065C18.8833 8.00857 26.198 0.658447 35.2108 0.658447Z" stroke="#4A6CC9" stroke-width="2" stroke-linecap="round"/>
<path d="M35.1296 8.74854C39.7889 8.74854 43.5704 12.5483 43.5704 17.2302C43.5704 21.912 39.7889 25.7118 35.1296 25.7118C30.4702 25.7118 26.6888 21.912 26.6888 17.2302C26.6888 12.5483 30.4702 8.74854 35.1296 8.74854Z" fill="#1A1C2B"/>
<path d="M38.7719 8.74854L35.8832 17.0173L45.7872 14.3328L38.7719 8.74854Z" fill="#5E88FC"/>
<path d="M1.68584 18.1367C1.68584 18.1367 32.0977 52.8409 67.6902 18.1367C67.488 17.7304 62.3928 10.8038 53.7642 5.73882C41.9183 -1.2146 23.4128 -4.65932 1.76563 17.0926C1.47782 18.153 1.68584 18.1367 1.68584 18.1367Z" stroke="#4A6CC9" stroke-width="2" stroke-linecap="round"/>
</g>
<defs>
<clipPath id="clip0_98_53">
<rect width="68" height="34" fill="white"/>
</clipPath>
</defs>
</svg>
