<svg width="63" height="59" viewBox="0 0 63 59" fill="none" xmlns="http://www.w3.org/2000/svg">
<g clip-path="url(#clip0_94_9)">
<path d="M27.5027 52.8552C27.5027 52.8552 27.9232 53.4339 28.0977 53.6377C28.4209 54.5285 27.4128 55.6155 27.1108 55.9657C26.1127 57.6388 24.9177 57.7981 24.3744 58.0492C21.9602 58.9544 20.1394 58.5387 19.8981 58.4396C19.2841 58.554 18.6484 57.3929 18.5422 57.1879C18.4626 56.5341 16.5954 53.395 16.3843 53.054C15.6005 51.2404 12.0045 49.0632 11.5899 48.8293C10.4875 48.4007 6.95633 46.0155 6.7145 45.8819C5.32906 44.9066 4.09704 42.8941 3.95668 42.6897C2.9104 41.536 1.52289 36.4228 1.37959 36.046C0.178402 31.826 0.0729776 29.6554 -0.00366614 29.174C-0.126267 28.0038 -0.158136 20.1076 -0.16401 19.7629C-0.197933 15.7634 0.313461 15.6508 0.447366 15.476C0.921024 15.1572 1.99153 15.7243 2.19973 15.893C2.6521 16.3332 2.94634 17.5348 3.02122 17.9128C3.40869 18.5611 3.58768 23.0407 3.63481 23.7985C3.6376 25.9709 3.99366 28.7922 4.13814 29.2379C4.46835 30.5424 3.8301 31.2435 3.76344 31.3481C3.16174 32.1865 3.45775 33.4915 3.49901 33.9046C3.72776 35.2799 5.61036 37.3152 5.88874 37.5861C7.25349 39.3549 9.21699 40.1129 9.24944 40.0088C8.62543 39.5372 6.04218 36.5489 5.86819 36.3796C4.83131 35.7774 4.37379 33.0269 4.36851 32.7166C4.45528 31.784 5.37955 31.802 5.61726 31.6943C6.05789 31.445 7.75299 32.5182 8.02902 32.6512C8.30857 32.991 12.906 37.702 13.2528 37.9717C14.1404 39.8524 21.5385 42.2375 22.0197 42.3668C23.4648 42.8237 24.219 44.9137 24.3983 45.3933C24.5776 45.8729 25.3524 49.1694 25.4279 49.5819C25.4744 50.3052 27.5027 52.8552 27.5027 52.8552ZM5.74772 29.496C5.74772 29.496 5.68372 29.6135 5.65271 29.7304C5.58623 29.965 5.39898 30.3336 5.20217 30.4036C5.00536 30.4736 4.88504 30.1905 4.80143 30.1255C4.74798 29.8937 4.69691 28.8331 4.69464 28.7001C4.77145 28.3662 4.45082 26.0109 4.415 25.8452C4.29103 25.3486 4.10484 20.2309 4.08551 20.0649C3.99085 19.3517 4.2821 19.0139 4.41237 18.9118C4.77045 18.6228 5.30255 18.8627 5.46807 18.893C6.13298 19.1804 6.44207 19.8898 6.5433 20.021C6.94995 20.6455 6.87958 22.3261 6.88242 22.4924C6.88525 22.6586 5.74772 29.496 5.74772 29.496ZM7.81546 30.8624C7.75522 31.064 7.39218 31.2469 7.31302 31.2724C7.18693 31.3468 6.79855 30.9768 6.75835 30.9534C6.63035 30.9156 6.39852 30.3904 6.3822 30.3666C6.30126 30.2879 6.36427 29.7814 6.3699 29.645C6.37553 29.5085 6.68519 27.594 6.69933 27.4894C6.71347 27.3849 7.5298 23.44 7.55081 23.2712C7.96647 21.9724 8.07251 22.1229 8.08693 22.0344C8.50102 21.5778 9.06925 22.2254 9.12618 22.2966C9.14359 22.3845 9.41625 23.0373 9.45065 23.1198C9.66818 23.6723 9.49434 24.7152 9.47982 24.8319C9.46531 24.9485 7.87965 30.6633 7.87965 30.6633C7.87965 30.6633 7.83028 30.7979 7.81546 30.8624ZM9.10518 32.5972C8.98036 32.6687 8.88754 32.6011 8.80735 32.6026C8.65903 32.6399 8.42167 32.1592 8.38652 32.1136C8.31642 32.034 8.29021 31.1685 8.28707 30.9838C8.28392 30.7992 8.91133 28.6172 8.93247 28.5129C9.1567 27.5506 9.96812 26.0813 10.0007 25.9768C10.1503 25.339 10.69 25.4102 10.7473 25.4092C10.9539 25.4286 11.1656 25.7481 11.212 25.7819C11.3626 25.8831 11.4396 26.3667 11.4637 26.4356C11.5476 26.6534 11.3977 27.2681 11.3989 27.3373C11.402 27.522 9.30959 32.4897 9.30959 32.4897C9.30959 32.4897 9.16206 32.5731 9.10518 32.5972Z" stroke="#4A6CC9" stroke-linecap="round"/>
<path d="M34.749 53.2468C34.749 53.2468 34.3285 53.8255 34.1539 54.0293C33.8308 54.9201 34.8389 56.0071 35.1409 56.3573C36.139 58.0304 37.334 58.1897 37.8773 58.4408C40.2915 59.346 42.1123 58.9303 42.3535 58.8312C42.9676 58.9456 43.6033 57.7845 43.7095 57.5795C43.7891 56.9257 45.6562 53.7866 45.8674 53.4456C46.6511 51.632 50.2472 49.4548 50.6618 49.2209C51.7642 48.7923 55.2954 46.4071 55.5372 46.2735C56.9226 45.2982 58.1546 43.2857 58.295 43.0813C59.3413 41.9276 60.7288 36.8144 60.8721 36.4376C62.0733 32.2176 62.1787 30.047 62.2553 29.5656C62.3779 28.3954 62.4098 20.4992 62.4157 20.1545C62.4496 16.155 61.9382 16.0424 61.8043 15.8676C61.3307 15.5488 60.2601 16.1159 60.0519 16.2846C59.5996 16.7248 59.3053 17.9264 59.2305 18.3044C58.843 18.9527 58.664 23.4323 58.6169 24.1901C58.6141 26.3625 58.258 29.1838 58.1135 29.6295C57.7833 30.934 58.4216 31.6351 58.4882 31.7397C59.0899 32.5781 58.7939 33.8831 58.7527 34.2962C58.5239 35.6715 56.6413 37.7068 56.3629 37.9777C54.9982 39.7465 53.0347 40.5045 53.0022 40.4004C53.6262 39.9288 56.2095 36.9405 56.3835 36.7712C57.4204 36.169 57.8779 33.4185 57.8832 33.1082C57.7964 32.1756 56.8721 32.1936 56.6344 32.0859C56.1938 31.8366 54.4987 32.9098 54.2227 33.0428C53.9431 33.3826 49.3457 38.0936 48.9989 38.3633C48.1113 40.244 40.7132 42.6291 40.2319 42.7584C38.7869 43.2153 38.0326 45.3053 37.8534 45.7849C37.6741 46.2645 36.8993 49.561 36.8238 49.9735C36.7773 50.6968 34.749 53.2468 34.749 53.2468ZM56.504 29.8876C56.504 29.8876 56.568 30.0051 56.599 30.122C56.6654 30.3566 56.8527 30.7252 57.0495 30.7952C57.2463 30.8652 57.3666 30.5821 57.4502 30.5171C57.5037 30.2853 57.5548 29.2247 57.557 29.0917C57.4802 28.7578 57.8009 26.4025 57.8367 26.2368C57.9606 25.7402 58.1468 20.6225 58.1662 20.4565C58.2608 19.7433 57.9696 19.4055 57.8393 19.3034C57.4812 19.0144 56.9491 19.2543 56.7836 19.2846C56.1187 19.572 55.8096 20.2814 55.7084 20.4126C55.3017 21.0371 55.3721 22.7177 55.3693 22.884C55.3664 23.0502 56.504 29.8876 56.504 29.8876ZM54.4362 31.254C54.4965 31.4556 54.8595 31.6385 54.9387 31.664C55.0648 31.7384 55.4531 31.3684 55.4933 31.3451C55.6213 31.3072 55.8532 30.782 55.8695 30.7582C55.9504 30.6795 55.8874 30.173 55.8818 30.0366C55.8761 29.9001 55.5665 27.9856 55.5523 27.881C55.5382 27.7765 54.7219 23.8316 54.7009 23.6628C54.2852 22.364 54.1792 22.5145 54.1648 22.426C53.7507 21.9694 53.1824 22.617 53.1255 22.6882C53.1081 22.7761 52.8354 23.4289 52.801 23.5114C52.5835 24.0639 52.7573 25.1068 52.7719 25.2235C52.7864 25.3401 54.372 31.0549 54.372 31.0549C54.372 31.0549 54.4214 31.1895 54.4362 31.254ZM53.1465 32.9888C53.2713 33.0603 53.3641 32.9927 53.4443 32.9942C53.5926 33.0315 53.83 32.5508 53.8652 32.5052C53.9353 32.4256 53.9615 31.5601 53.9646 31.3754C53.9678 31.1908 53.3404 29.0088 53.3192 28.9046C53.095 27.9422 52.2836 26.4729 52.251 26.3684C52.1014 25.7306 51.5617 25.8018 51.5044 25.8008C51.2978 25.8202 51.0861 26.1397 51.0397 26.1735C50.889 26.2747 50.812 26.7583 50.788 26.8272C50.704 27.045 50.854 27.6597 50.8528 27.7289C50.8496 27.9136 52.9421 32.8813 52.9421 32.8813C52.9421 32.8813 53.0896 32.9647 53.1465 32.9888Z" stroke="#4A6CC9" stroke-linecap="round"/>
<path d="M31.343 30.7273C31.343 30.7273 44.9873 20.5986 46.1981 16.4476C46.3596 15.9592 48.6678 12.9841 47.0533 8.83308C46.7801 8.39232 45.8704 6.62347 44.3259 5.1341C43.5888 4.42322 42.6041 3.72329 41.274 3.32883C40.4668 3.32883 35.9475 1.9598 33.2029 4.80853C32.6378 5.45966 31.343 7.33168 31.343 7.33168C31.343 7.33168 28.8426 3.81718 26.4209 3.32883C25.9578 3.32883 22.4563 2.57216 19.8025 3.9874C19.218 4.29908 18.5289 4.5612 18.1064 5.1341C17.5413 5.94802 13.8858 9.69205 15.3389 13.5175C15.4196 14.5756 17.9771 20.2907 20.3181 22C20.8831 22.6511 28.4743 29.4261 29.0394 29.6703C29.6044 30.0772 30.8607 31.2136 30.8607 31.2136L31.343 30.7273Z" fill="#5E88FC"/>
<path opacity="0.8" d="M21.1648 5.55481C21.84 5.55481 22.3879 6.10728 22.3879 6.78799C22.3879 7.46871 21.84 8.02118 21.1648 8.02118C20.4897 8.02118 19.9418 7.46871 19.9418 6.78799C19.9418 6.10728 20.4897 5.55481 21.1648 5.55481Z" fill="white"/>
<path opacity="0.8" d="M19.1031 8.21851C19.4238 8.21851 19.684 8.48092 19.684 8.80425C19.684 9.12758 19.4238 9.38999 19.1031 9.38999C18.7824 9.38999 18.5222 9.12758 18.5222 8.80425C18.5222 8.48092 18.7824 8.21851 19.1031 8.21851Z" fill="white"/>
<path d="M31.4854 30.7083C31.4854 30.7083 45.2178 20.5142 46.4365 16.3364C46.599 15.8449 48.4676 12.814 46.8427 8.63617C46.5677 8.19256 46.1066 6.44887 44.5522 4.94988C43.8103 4.23441 42.8193 3.52996 41.4806 3.13296C40.6681 3.13296 36.1197 1.75509 33.3574 4.62221C32.7886 5.27755 31.4854 7.16165 31.4854 7.16165C31.4854 7.16165 28.9689 3.62446 26.5315 3.13296C26.0655 3.13296 22.5414 2.3714 19.8704 3.79578C19.2821 4.10947 18.5886 4.37328 18.1633 4.94988C17.9812 5.21218 17.3177 5.61301 16.7687 6.38591C15.6032 8.02679 14.3838 10.7701 15.378 13.3874C15.4592 14.4523 18.6145 20.5573 20.9706 22.2776C21.5393 22.9329 28.5982 29.3988 29.1669 29.6445C29.7356 30.0541 31 31.1978 31 31.1978L31.4854 30.7083Z" stroke="#4A6CC9" stroke-linecap="round"/>
</g>
<defs>
<clipPath id="clip0_94_9">
<rect width="63" height="59" fill="white"/>
</clipPath>
</defs>
</svg>
