<svg width="71" height="72" viewBox="0 0 71 72" fill="none" xmlns="http://www.w3.org/2000/svg">
<path d="M29.7159 14.7003C44.5423 14.7003 56.5753 26.7461 56.5753 41.5883C56.5753 56.4305 44.5423 68.4763 29.7159 68.4763C14.8895 68.4763 2.85654 56.4305 2.85654 41.5883C2.85654 26.7461 14.8895 14.7003 29.7159 14.7003Z" fill="#5E88FC"/>
<path d="M29.7159 20.0869C41.5721 20.0869 51.1944 29.7195 51.1944 41.5883C51.1944 53.457 41.5721 63.0897 29.7159 63.0897C17.8598 63.0897 8.23743 53.457 8.23743 41.5883C8.23743 29.7195 17.8598 20.0869 29.7159 20.0869Z" fill="#1A1C2B"/>
<path d="M29.6809 24.7306C39.0073 24.7306 46.5766 32.3079 46.5766 41.6443C46.5766 50.9806 39.0073 58.558 29.6809 58.558C20.3545 58.558 12.7852 50.9806 12.7852 41.6443C12.7852 32.3079 20.3545 24.7306 29.6809 24.7306Z" fill="#5E88FC"/>
<path d="M29.9011 28.8406C37.0828 28.8406 42.9114 34.6754 42.9114 41.8648C42.9114 49.0541 37.0828 54.8889 29.9011 54.8889C22.7193 54.8889 16.8907 49.0541 16.8907 41.8648C16.8907 34.6754 22.7193 28.8406 29.9011 28.8406Z" fill="#1A1C2B"/>
<path d="M29.7719 31.8811C35.1246 31.8811 39.4688 36.23 39.4688 41.5884C39.4688 46.9468 35.1246 51.2956 29.7719 51.2956C24.4192 51.2956 20.075 46.9468 20.075 41.5884C20.075 36.23 24.4192 31.8811 29.7719 31.8811Z" fill="#5E88FC"/>
<path d="M29.6809 37.3197C31.8842 37.3197 33.6724 39.1098 33.6724 41.3154C33.6724 43.5211 31.8842 45.3112 29.6809 45.3112C27.4776 45.3112 25.6895 43.5211 25.6895 41.3154C25.6895 39.1098 27.4776 37.3197 29.6809 37.3197Z" fill="#1A1C2B"/>
<path d="M55.4878 14.3687C55.4878 14.3687 29.2122 40.4651 29.1542 40.9611C29.0961 41.4571 29.2685 42.2248 30.2676 41.8647C30.947 41.4246 56.5753 15.4791 56.5753 15.4791H61.8393L70.5515 6.59762H64.6767V0.356567L55.4878 9.63813V14.3687Z" fill="#4A6CC9"/>
<path d="M29.7719 14.6537C44.6549 14.6537 56.7338 26.7455 56.7338 41.6443C56.7338 56.5431 44.6549 68.6349 29.7719 68.6349C14.889 68.6349 2.81003 56.5431 2.81003 41.6443C2.81003 26.7455 14.889 14.6537 29.7719 14.6537Z" stroke="#4A6CC9" stroke-width="3" stroke-linecap="round"/>
</svg>
